<svg viewBox="0 0 300 100" version="1.1" xmlns="http://www.w3.org/2000/svg">
    <path d="M-0.002,49.098C-0.324,30.821 14.025,13.313 36.098,13.13C54.691,12.976 72.125,27.912 72.177,49.077C72.221,69.179 56.083,85.162 35.945,85.17C16.055,85.184 -0.295,69.223 -0.002,49.098ZM4.285,46.783L16.077,46.783C16.172,45.669 16.135,44.591 16.37,43.58C17.161,40.172 18.041,36.779 18.906,33.386C19.221,32.17 19.155,32.001 18.041,31.495C17.323,31.166 16.612,30.814 15.923,30.433C14.545,29.663 13.182,28.872 11.804,28.08C7.568,33.613 4.996,39.777 4.293,46.775L4.285,46.783ZM52.91,32.272C52.939,32.404 52.961,32.551 53.005,32.69C54.478,37.138 55.519,41.689 56.237,46.321C56.267,46.526 56.64,46.827 56.86,46.827C59.938,46.841 63.009,46.856 66.087,46.768C67.633,46.724 67.846,46.453 67.567,44.921C66.614,39.667 65.068,34.639 61.829,30.279C61.272,29.531 60.73,28.776 60.239,28.102C57.762,29.517 55.38,30.872 52.903,32.28L52.91,32.272ZM16.092,51.517L4.285,51.517C5.047,58.479 7.473,64.657 11.914,70.183C14.047,68.9 16.15,67.654 18.239,66.372C18.788,66.035 18.92,65.566 18.715,64.869C17.455,60.546 16.238,56.207 16.092,51.51L16.092,51.517ZM67.897,53.063C67.816,53.041 67.736,53.012 67.648,52.99C67.662,52.081 67.362,51.627 66.336,51.605C63.148,51.539 59.96,51.568 56.78,51.605C56.589,51.605 56.274,51.957 56.23,52.191C55.68,54.756 55.219,57.343 54.64,59.908C54.215,61.784 53.628,63.624 53.167,65.485C53.101,65.734 53.247,66.218 53.438,66.328C55.292,67.383 57.19,68.351 59.044,69.406C59.879,69.882 60.422,69.677 60.986,68.973C62.818,66.702 64.357,64.239 65.332,61.498C66.321,58.736 67.054,55.877 67.897,53.063ZM20.195,46.775L33.907,46.775C33.907,43.375 33.914,40.04 33.885,36.706C33.885,36.515 33.526,36.193 33.306,36.171C30.096,35.775 26.996,34.947 23.97,33.833C23.735,33.745 23.486,33.709 23.193,33.643C21.522,37.915 20.613,42.268 20.195,46.783L20.195,46.775ZM34.01,51.502L20.247,51.502C20.525,56.09 21.712,60.384 23.09,64.452C26.315,63.66 29.356,62.876 32.427,62.173C33.409,61.945 33.805,61.418 33.834,60.48C33.893,58.047 33.958,55.621 34.01,53.188C34.024,52.638 34.01,52.089 34.01,51.495L34.01,51.502ZM38.319,46.761L51.884,46.761C51.51,44.408 51.239,42.144 50.763,39.923C50.374,38.106 49.759,36.325 49.216,34.544C49.004,33.848 48.601,33.657 47.817,33.914C45.816,34.559 43.786,35.116 41.741,35.607C40.627,35.878 39.462,35.951 38.319,36.112L38.319,46.761ZM38.348,51.51C38.312,51.641 38.268,51.729 38.268,51.81C38.348,55.057 38.429,58.31 38.553,61.557C38.561,61.762 38.935,62.07 39.191,62.129C41.881,62.803 44.578,63.426 47.274,64.078C47.853,64.217 48.425,64.408 49.092,64.598C50.169,60.216 51.657,56.046 51.664,51.502L38.348,51.502L38.348,51.51ZM33.936,80.692L33.936,66.518C33.761,66.489 33.643,66.452 33.533,66.452C30.69,66.511 27.986,67.222 25.318,68.145C24.688,68.365 24.834,68.754 25.025,69.186C26.615,72.777 28.491,76.214 30.712,79.461C31.489,80.597 32.522,81.066 33.929,80.692L33.936,80.692ZM34.002,17.63C32.368,17.175 31.328,17.82 30.587,19.022C29.29,21.104 27.978,23.185 26.777,25.325C26.117,26.49 25.655,27.758 25.128,28.996C24.878,29.583 25.069,30.008 25.721,30.198C26.307,30.374 26.872,30.645 27.473,30.755C29.305,31.092 31.144,31.4 32.984,31.664C33.651,31.759 33.922,31.407 33.922,30.682C33.922,26.702 33.973,22.716 34.01,18.736L34.01,17.63L34.002,17.63ZM38.312,32.104C41.478,31.378 44.497,30.689 47.736,29.942C46.204,27.106 44.871,24.482 43.39,21.946C42.628,20.642 41.639,19.469 40.708,18.275C40.107,17.498 39.272,17.359 38.304,17.6L38.304,32.096L38.312,32.104ZM38.348,73.957L38.422,73.957C38.422,75.921 38.378,77.878 38.444,79.842C38.473,80.809 39.096,81.11 39.961,80.633C40.356,80.413 40.73,80.084 41.009,79.724C43.5,76.551 45.406,73.041 46.959,69.318C47.238,68.651 47.033,68.248 46.366,68.072C44.446,67.566 42.54,67.002 40.605,66.592C38.927,66.24 38.466,66.599 38.37,68.336C38.275,70.205 38.348,72.081 38.348,73.957ZM14.758,73.055C18.012,75.738 21.647,77.416 25.267,79.145C23.926,76.199 22.497,73.363 21.082,70.512C20.87,70.08 20.628,70.073 20.247,70.263C18.481,71.172 16.707,72.059 14.75,73.055L14.758,73.055ZM46.578,79.175C50.426,77.577 54.017,75.774 57.256,73.041C55.248,71.942 53.394,70.923 51.496,69.875C49.832,73.026 48.249,76.016 46.578,79.167L46.578,79.175ZM25.457,19.154C21.471,20.525 18.136,22.606 14.831,25.164C16.553,26.116 18.048,26.959 19.558,27.78C20.621,28.359 20.606,28.337 21.156,27.296C22.475,24.79 23.823,22.298 25.157,19.806C25.238,19.66 25.296,19.513 25.457,19.154ZM57.183,25.207C54.046,22.452 50.47,20.737 46.893,19.03C46.842,19.088 46.783,19.147 46.732,19.205C48.315,22.195 49.898,25.185 51.51,28.234C53.357,27.252 55.197,26.263 57.183,25.207Z" style="fill:white;"/>
    <path d="M241.598,49.282C241.576,57.446 236.71,63.829 229.037,65.551C219.839,67.618 210.906,62.715 208.795,53.29C207.11,45.779 210.195,38.194 216.461,34.639C224.61,30.022 235.237,32.844 239.546,40.759C240.938,43.316 241.605,46.086 241.598,49.282ZM237.728,49.208C237.545,47.999 237.486,46.753 237.164,45.581C235.823,40.663 232.789,37.307 227.717,36.237C222.8,35.204 218.52,36.559 215.303,40.531C212.665,43.785 211.946,47.603 212.54,51.7C213.654,59.402 221.129,64.217 228.597,62.048C234.049,60.465 237.633,55.372 237.728,49.208Z" style="fill:white;"/>
    <path d="M81.872,65.229L81.872,33.401C82.151,33.379 82.4,33.349 82.657,33.349C85.705,33.349 88.754,33.32 91.803,33.357C93.833,33.379 95.833,33.657 97.702,34.529C100.611,35.892 102.158,38.15 102.063,41.411C101.975,44.628 100.34,46.79 97.424,48.036C97.189,48.138 96.947,48.234 96.537,48.41C96.911,48.512 97.116,48.593 97.336,48.629C100.392,49.194 102.898,51.51 103.462,54.448C104.114,57.819 103.352,60.736 100.436,62.839C98.647,64.122 96.588,64.782 94.441,64.891C90.293,65.104 86.138,65.126 81.872,65.221L81.872,65.229ZM85.588,61.667L86.57,61.667C88.71,61.66 90.857,61.792 92.975,61.594C94.397,61.462 95.819,60.978 97.152,60.421C98.347,59.923 99.131,58.889 99.49,57.607C100.384,54.456 98.64,51.517 95.328,50.74C92.125,49.985 88.871,50.513 85.588,50.344L85.588,61.674L85.588,61.667ZM85.588,46.981C88.292,46.885 90.901,46.9 93.488,46.673C96.258,46.431 97.966,44.613 98.068,42.114C98.186,39.33 96.911,37.519 94.008,37.124C91.253,36.75 88.439,36.823 85.588,36.699L85.588,46.981Z" style="fill:white;"/>
    <path d="M174.146,36.581C173.135,37.637 172.248,38.567 171.31,39.549C169.807,38.025 168.063,37.014 166.055,36.427C158.485,34.236 150.863,39.264 149.888,47.09C149.346,51.451 150.27,55.394 153.333,58.633C156.404,61.879 160.332,62.935 164.641,62.414C166.561,62.18 168.43,61.484 170.306,60.949C170.54,60.883 170.87,60.538 170.87,60.318C170.907,57.218 170.892,54.111 170.892,50.909L163.615,50.909L163.615,47.464L174.593,47.464C174.615,47.706 174.652,47.963 174.652,48.219C174.652,52.909 174.666,57.6 174.637,62.29C174.637,62.627 174.424,63.14 174.161,63.265C168.239,66.174 162.076,67.119 155.81,64.701C149.837,62.392 146.635,57.761 145.894,51.429C145.352,46.724 146.268,42.342 149.332,38.641C153.26,33.892 158.485,32.118 164.516,32.543C167.609,32.763 170.511,33.606 172.966,35.614C173.193,35.797 173.406,35.995 173.633,36.186C173.772,36.296 173.919,36.398 174.153,36.574L174.146,36.581Z" style="fill:white;"/>
    <path d="M186.311,50.887L186.311,65.082L182.684,65.082L182.684,33.474C182.728,33.445 182.772,33.379 182.823,33.379C187.447,33.423 192.093,32.983 196.674,33.884C199.591,34.456 202.024,35.885 202.903,38.905C204.354,43.866 202.793,48.893 196.337,50.352C196.058,50.418 195.787,50.484 195.413,50.572C198.425,55.43 201.379,60.201 204.435,65.133C202.896,65.133 201.511,65.163 200.126,65.104C199.898,65.097 199.635,64.738 199.481,64.488C196.872,60.216 194.263,55.943 191.698,51.641C191.346,51.055 190.972,50.843 190.305,50.872C189.023,50.923 187.733,50.887 186.304,50.887L186.311,50.887ZM186.348,47.31C188.693,47.31 190.943,47.369 193.193,47.281C194.197,47.244 195.23,47.003 196.19,46.687C198.293,45.991 199.341,44.482 199.378,42.342C199.415,39.857 198.499,38.34 196.359,37.512C195.714,37.263 195.01,37.036 194.329,37.006C191.756,36.904 189.177,36.882 186.604,36.831C186.531,36.831 186.451,36.896 186.348,36.94L186.348,47.31Z" style="fill:white;"/>
    <path d="M247.6,33.393L251.242,33.393L251.242,34.441C251.242,40.392 251.22,46.336 251.257,52.286C251.264,53.569 251.381,54.866 251.645,56.119C252.62,60.795 256.262,63.228 261.011,62.458C264.822,61.843 267.138,59.234 267.607,55.013C267.724,53.965 267.783,52.909 267.79,51.861C267.805,46.086 267.797,40.319 267.797,34.544L267.797,33.423L271.454,33.423C271.469,33.738 271.498,34.046 271.498,34.361C271.498,40.487 271.542,46.607 271.469,52.733C271.447,54.478 271.278,56.258 270.853,57.944C269.615,62.839 265.819,65.771 260.498,65.969C258.937,66.027 257.31,65.932 255.8,65.558C251.315,64.452 248.838,61.366 247.944,56.947C247.71,55.782 247.578,54.566 247.57,53.378C247.534,46.988 247.556,40.605 247.556,34.214C247.556,33.958 247.585,33.701 247.6,33.408L247.6,33.393Z" style="fill:white;"/>
    <path d="M107.757,61.74C108.995,60.729 110.007,59.893 111.062,59.036C112.865,61.638 115.371,62.642 118.368,62.524C119.981,62.466 121.446,61.931 122.78,60.985C125.572,59.014 125.8,54.111 122.091,52.521C120.215,51.715 118.259,51.099 116.346,50.374C115.225,49.949 114.103,49.524 113.026,49.003C107.295,46.255 107.676,38.795 110.996,35.563C115.027,31.642 123.154,31.393 127.317,35.167C127.639,35.46 128.027,35.687 128.482,36.01C127.251,37.08 126.269,37.93 125.294,38.78C122.487,35.863 119.248,35.152 115.782,36.647C113.209,37.754 112.037,40.187 112.784,42.825C113.129,44.034 113.898,44.914 114.983,45.442C116.375,46.116 117.826,46.658 119.27,47.222C120.846,47.838 122.487,48.314 124.019,49.025C126.884,50.359 128.614,52.565 128.819,55.826C129.053,59.483 127.83,62.488 124.568,64.254C119.871,66.797 115.071,66.687 110.417,64.019C109.457,63.47 108.709,62.561 107.764,61.74L107.757,61.74Z" style="fill:white;"/>
    <path d="M279.435,33.43C279.538,33.401 279.618,33.357 279.699,33.357C283.561,33.408 287.43,33.415 291.292,33.54C292.355,33.577 293.44,33.87 294.451,34.222C299.874,36.112 301.78,43.104 298.101,47.53C296.43,49.546 294.151,50.447 291.637,50.674C289.482,50.872 287.313,50.821 285.144,50.872C284.499,50.887 283.854,50.872 283.107,50.872L283.107,65.06L279.442,65.06L279.442,33.43L279.435,33.43ZM283.085,47.42L289.321,47.42C289.761,47.42 290.223,47.479 290.633,47.362C291.747,47.032 292.875,46.717 293.916,46.218C294.913,45.742 295.44,44.782 295.712,43.727C296.598,40.238 294.891,37.446 291.314,37.036C288.654,36.728 285.935,36.896 283.246,36.86C283.202,36.86 283.15,36.918 283.077,36.977L283.077,47.428L283.085,47.42Z" style="fill:white;"/>
</svg>
