<svg viewBox="0 0 300 241" version="1.1" xmlns="http://www.w3.org/2000/svg" fill="white">
  <path d="M150.092,0.002C150.214,0.637 150.195,1.271 150.08,1.947C149.86,1.979 149.657,2.029 149.451,2.037C147.768,2.098 146.082,2.111 144.403,2.218C142.143,2.362 139.89,2.576 137.643,2.875C134.821,3.252 132.021,3.744 129.244,4.366C119.92,6.456 111.111,9.873 102.835,14.643C90.828,21.562 80.784,30.662 72.682,41.903C72.506,42.146 72.314,42.378 72.092,42.663C71.555,42.286 71.063,41.942 70.531,41.568C70.71,41.293 70.85,41.059 71.007,40.841C80.178,28.086 91.723,18.069 105.677,10.836C113.492,6.785 121.723,3.895 130.336,2.096C133.181,1.503 136.05,1.043 138.942,0.724C141.408,0.452 143.875,0.228 146.356,0.168C146.746,0.159 147.154,0.218 147.517,0L150.09,0L150.092,0.002Z"/>
  <path d="M176.395,12.271C171.666,22.403 166.988,32.429 162.302,42.468C161.546,42.493 160.87,42.275 160.185,42.162C158.099,41.821 156.005,41.597 153.895,41.455C151.321,41.281 148.752,41.341 146.187,41.532C143.132,41.76 140.114,42.256 137.137,42.991C122.443,46.62 109.626,56.246 102.048,69.348C101.899,69.604 101.682,69.84 101.688,70.236C101.82,70.265 101.958,70.314 102.096,70.32C102.433,70.333 102.77,70.328 103.107,70.328L163.831,70.328C164.193,70.328 164.555,70.335 164.924,70.339C164.957,70.691 164.716,70.822 164.559,70.982C163.23,72.338 161.89,73.683 160.556,75.033C154.211,81.458 147.866,87.886 141.521,94.311C138.014,97.862 134.505,101.411 130.997,104.959C130.911,105.046 130.815,105.124 130.654,105.27L129.534,105.27C118.45,105.27 107.364,105.27 96.279,105.273C95.892,105.273 95.487,105.181 95.108,105.394L95.108,166.917C94.893,167.074 94.765,166.892 94.639,166.785C93.197,165.55 91.723,164.35 90.332,163.062C79.358,152.909 71.375,140.789 66.454,126.667C64.687,121.599 63.416,116.41 62.608,111.102C61.8,105.792 61.444,100.456 61.603,95.09C61.992,81.99 65.052,69.551 70.906,57.813C80.57,38.435 97.077,23.149 117.108,15.01C122.824,12.689 128.713,10.972 134.789,9.892C137.532,9.404 140.288,9.038 143.065,8.803C146.21,8.535 149.361,8.422 152.515,8.489C155.057,8.545 157.589,8.719 160.118,8.979C165.305,9.511 170.399,10.516 175.408,11.955C175.699,12.04 175.986,12.139 176.395,12.269L176.395,12.271Z"/>
  <path d="M102.729,172.609C102.71,166.735 102.693,160.899 102.712,155.021C103.087,155.04 103.262,155.273 103.461,155.438C105.474,157.09 107.564,158.636 109.739,160.072C114.354,163.119 119.244,165.627 124.422,167.573C124.703,167.679 124.989,167.769 125.26,167.86C125.63,167.281 126.462,165.064 126.677,164.094C126.357,163.958 126.03,163.803 125.693,163.676C121.009,161.904 116.576,159.639 112.38,156.91C109.32,154.919 106.437,152.699 103.717,150.262C103.424,150 103.166,149.686 102.712,149.613L102.712,127.19C103.015,127.132 103.047,127.412 103.143,127.563C104.448,129.603 105.861,131.565 107.419,133.416C115.269,142.742 125.078,148.974 136.89,152.025C139.561,152.714 142.273,153.179 145.021,153.432C147.372,153.648 149.722,153.8 152.083,153.717C166.478,153.208 178.977,148.086 189.444,138.179C197.047,130.982 202.194,122.276 204.948,112.17C205.738,109.272 206.273,106.326 206.571,103.334C206.818,100.863 206.952,98.388 206.856,95.908C206.286,81.236 200.917,68.603 190.653,58.089C184.902,52.195 178.128,47.833 170.42,44.926C170.194,44.842 169.976,44.736 169.694,44.616C169.755,44.426 169.792,44.254 169.863,44.099C171.761,40.022 173.664,35.947 175.57,31.874C175.658,31.684 175.777,31.508 175.902,31.292C178.755,32.323 181.473,33.575 184.125,34.972C186.808,36.389 189.384,37.981 191.859,39.737C194.307,41.471 196.627,43.364 198.836,45.372C199.483,44.878 201.103,43.125 201.585,42.399C201.384,42.2 201.181,41.98 200.959,41.779C196.243,37.543 191.075,33.96 185.447,31.039C183.192,29.868 180.88,28.821 178.516,27.888C178.288,27.798 178.064,27.705 177.842,27.603C177.793,27.58 177.76,27.517 177.72,27.473C177.919,26.776 183.156,15.539 183.631,14.813C183.868,14.894 184.126,14.968 184.373,15.068C192.131,18.236 199.301,22.416 205.869,27.618C215.877,35.545 223.85,45.163 229.757,56.479C233.416,63.489 236.071,70.866 237.748,78.595C238.462,81.889 238.986,85.21 239.329,88.559C239.765,92.83 239.886,97.114 239.693,101.399C239.118,114.141 236.05,126.252 230.247,137.622C221.457,154.843 208.439,167.908 191.283,176.83C184.517,180.35 177.377,182.873 169.931,184.521C167.273,185.11 164.587,185.556 161.885,185.897C157.318,186.475 152.735,186.695 148.138,186.569C145.812,186.506 143.492,186.333 141.176,186.094C137.671,185.73 134.203,185.156 130.771,184.373C124.062,182.842 117.617,180.561 111.439,177.527C108.744,176.204 106.123,174.747 103.577,173.159C103.294,172.983 103.019,172.791 102.735,172.604L102.729,172.609ZM218.942,128.815C220.393,126.566 223.155,118.303 224.301,112.947C225.216,108.671 225.997,101.466 225.729,100.103C225.593,100.069 225.45,100.002 225.302,99.996C224.232,99.96 223.161,99.931 222.089,99.912C221.98,99.912 221.87,99.989 221.765,100.029C221.748,100.184 221.727,100.304 221.719,100.425C221.61,102.442 221.457,104.454 221.208,106.46C220.823,109.561 220.232,112.622 219.438,115.642C218.479,119.288 217.231,122.833 215.699,126.279C215.581,126.547 215.372,126.799 215.454,127.209C216.578,127.728 217.738,128.262 218.942,128.817L218.942,128.815ZM170.46,165.631C169.995,165.749 169.641,165.835 169.286,165.931C166.034,166.812 162.733,167.434 159.391,167.832C157.143,168.1 154.885,168.251 152.618,168.285C149.587,168.331 146.562,168.264 143.548,167.92C143.283,167.889 143.002,167.803 142.698,168.029C142.629,168.622 142.56,169.26 142.48,169.895C142.397,170.552 142.25,171.206 142.353,171.915C143.063,171.991 143.728,172.087 144.396,172.127C145.982,172.227 147.571,172.299 149.16,172.382C151.485,172.502 153.811,172.391 156.131,172.248C158.543,172.098 160.941,171.805 163.324,171.405C165.918,170.969 168.483,170.4 171.019,169.706C171.212,169.652 171.386,169.53 171.591,169.43C171.216,168.159 170.923,166.915 170.462,165.627L170.46,165.631ZM209.701,57.945C210.309,58.91 210.939,59.879 211.534,60.87C212.133,61.865 212.717,62.872 213.27,63.893C213.824,64.913 214.356,65.948 214.857,66.995C215.359,68.042 215.833,69.105 216.283,70.175C216.731,71.245 217.154,72.328 217.55,73.421C217.945,74.512 218.314,75.614 218.655,76.725C218.996,77.835 219.285,78.96 219.602,80.076C219.918,81.186 220.077,82.337 220.422,83.424C221.31,83.42 223.643,82.949 224.292,82.654C224.305,80.945 222.062,73.436 220.251,68.99C218.109,63.732 214.258,57.05 212.96,55.694C212.133,56.098 210.219,57.411 209.701,57.944L209.701,57.945ZM187.643,162.834C193.385,159.607 198.507,155.767 203.145,151.277C205.934,148.576 209.301,144.748 209.844,143.664C209.364,143.119 207.442,141.611 206.718,141.226C206.514,141.471 206.297,141.722 206.089,141.98C202.337,146.618 198.08,150.729 193.297,154.293C191.088,155.939 188.787,157.448 186.406,158.837C186.153,158.985 185.826,159.058 185.709,159.442C186.32,160.535 186.923,161.661 187.641,162.834L187.643,162.834Z"/>
  <path d="M159.905,2.506C159.976,1.83 160.036,1.258 160.101,0.643C160.288,0.63 160.436,0.595 160.577,0.611C171.377,1.788 181.709,4.638 191.54,9.268C201.405,13.914 210.242,20.046 218.054,27.651C224.588,34.013 230.122,41.149 234.653,49.064C234.773,49.276 234.892,49.491 235.005,49.707C235.03,49.757 235.028,49.822 235.047,49.918C234.584,50.293 234.031,50.542 233.437,50.852C232.867,49.994 232.417,49.095 231.885,48.247C231.349,47.391 230.827,46.526 230.277,45.678C229.713,44.805 229.134,43.938 228.541,43.082C227.967,42.252 227.375,41.433 226.774,40.621C226.173,39.809 225.557,39.007 224.931,38.217C224.305,37.424 223.666,36.642 223.015,35.87C222.364,35.099 221.698,34.339 221.023,33.587C220.347,32.836 219.66,32.094 218.961,31.366C218.239,30.616 217.506,29.875 216.764,29.15C216.042,28.443 215.305,27.751 214.561,27.069C213.816,26.388 213.06,25.716 212.292,25.057C211.527,24.399 210.748,23.754 209.961,23.12C209.174,22.487 208.376,21.867 207.57,21.258C206.764,20.649 205.949,20.052 205.124,19.47C204.274,18.871 203.413,18.283 202.544,17.711C201.7,17.156 200.846,16.616 199.985,16.088C199.123,15.56 198.256,15.043 197.38,14.541C196.503,14.04 195.617,13.556 194.725,13.083C193.833,12.612 192.931,12.155 192.024,11.71C191.117,11.268 190.202,10.84 189.281,10.424C188.334,9.997 187.378,9.584 186.418,9.186C185.485,8.801 184.546,8.432 183.6,8.077C182.654,7.725 181.701,7.392 180.746,7.069C179.791,6.745 178.83,6.433 177.865,6.139C176.901,5.846 175.928,5.568 174.954,5.308C173.98,5.046 173.002,4.801 172.02,4.569C171.007,4.33 169.993,4.104 168.974,3.897C167.985,3.696 166.993,3.512 165.996,3.348C165.001,3.183 164,3.047 163.001,2.909C162.005,2.772 161.006,2.647 159.909,2.506L159.905,2.506Z"/>
  <path d="M149.412,194.39C149.338,193.81 149.338,193.218 149.418,192.593C151.361,192.52 153.252,192.48 155.139,192.372C157.034,192.265 158.929,192.143 160.815,191.938C162.698,191.731 164.578,191.457 166.446,191.13C168.343,190.799 170.232,190.412 172.108,189.972C173.953,189.538 175.787,189.05 177.601,188.506C179.416,187.962 181.217,187.363 182.997,186.712C184.777,186.062 186.54,185.357 188.278,184.599C190.016,183.841 191.733,183.028 193.421,182.166C195.111,181.305 196.777,180.394 198.411,179.431C200.046,178.47 201.654,177.456 203.227,176.399C204.802,175.343 206.349,174.238 207.857,173.09C209.391,171.922 210.891,170.707 212.352,169.449C213.789,168.213 215.19,166.926 216.551,165.606C217.912,164.285 219.237,162.922 220.517,161.523C221.798,160.124 223.032,158.679 224.234,157.21C225.435,155.742 226.568,154.221 227.76,152.684C228.369,152.887 228.794,153.357 229.297,153.694C228.643,154.961 225.503,158.95 222.738,162.044C217.3,168.121 211.203,173.44 204.437,177.994C197.521,182.649 190.125,186.351 182.256,189.103C175.299,191.536 168.151,193.176 160.818,193.923C154.741,194.541 150.865,194.639 149.41,194.394L149.412,194.39Z"/>
  <path d="M141.308,192.227C141.279,192.69 141.26,193.115 141.226,193.536C141.214,193.682 141.17,193.825 141.134,193.999C140.521,194.072 139.949,193.974 139.383,193.909C135.583,193.465 131.814,192.841 128.086,191.972C115.188,188.965 103.401,183.543 92.728,175.718C81.87,167.755 73.04,157.947 66.216,146.34C66.048,146.055 65.833,145.789 65.764,145.385C66.26,145.096 66.756,144.807 67.21,144.543C67.604,144.614 67.667,144.918 67.801,145.144C69.2,147.517 70.678,149.841 72.274,152.086C81.552,165.133 93.308,175.304 107.618,182.501C114.98,186.203 122.705,188.872 130.779,190.539C133.657,191.132 136.557,191.576 139.471,191.94C140.045,192.011 140.634,191.97 141.306,192.227L141.308,192.227Z"/>
  <path d="M66.096,48.45C66.699,48.8 67.196,49.087 67.719,49.391C67.68,49.778 67.453,50.038 67.294,50.32C65.146,54.104 63.268,58.016 61.655,62.055C59.276,68.01 57.53,74.146 56.401,80.457C55.959,82.926 55.62,85.411 55.382,87.909C55.003,91.873 54.82,95.843 54.944,99.824C55.024,102.454 55.183,105.082 55.474,107.697C56.584,117.65 59.159,127.209 63.28,136.345C63.416,136.647 63.538,136.955 63.676,137.287C63.517,137.384 63.395,137.474 63.259,137.537C62.847,137.733 62.432,137.916 62.028,138.1C61.263,137.04 59.008,131.439 57.716,127.46C54.466,117.455 52.881,107.187 52.946,96.673C53.007,86.724 54.54,76.998 57.589,67.522C59.722,60.891 62.53,54.561 66.096,48.45Z"/>
  <path d="M233.83,146.871C233.244,146.518 232.75,146.222 232.256,145.925C232.287,145.525 232.519,145.265 232.683,144.981C235.729,139.723 238.253,134.228 240.24,128.486C242.035,123.3 243.379,118 244.242,112.579C244.798,109.102 245.165,105.606 245.351,102.088C245.475,99.732 245.519,97.378 245.456,95.021C245.374,91.963 245.157,88.912 244.798,85.868C244.032,79.404 242.608,73.094 240.533,66.926C239.635,64.258 238.617,61.636 237.486,59.058C237.352,58.753 237.225,58.443 237.076,58.091C237.589,57.714 238.159,57.52 238.709,57.312C239.044,57.484 239.092,57.81 239.212,58.079C240.657,61.324 241.9,64.647 242.97,68.033C244.457,72.738 245.575,77.529 246.319,82.404C246.832,85.763 247.156,89.141 247.33,92.537C247.523,96.304 247.493,100.065 247.236,103.822C246.365,116.58 243.148,128.719 237.48,140.19C236.492,142.191 235.38,144.131 234.32,146.097C234.192,146.335 234.033,146.555 233.834,146.869L233.83,146.871Z"/>
  <path d="M232.23,240.994C231.824,240.87 231.424,240.719 231.008,240.625C226.811,239.687 223.593,236.525 222.814,232.287C221.675,226.095 225.452,220.554 231.607,219.51C234.433,219.032 237.112,219.472 239.532,221.028C242.684,223.057 244.353,225.995 244.516,229.741C244.744,234.961 241.149,239.582 236.002,240.638C235.654,240.709 235.269,240.715 234.986,240.992L232.23,240.992L232.23,240.994ZM239.266,230.12C239.243,228.572 238.766,227.18 237.805,225.961C235.671,223.249 231.487,223.333 229.366,225.875C227.362,228.279 227.402,231.902 229.316,234.272C231.473,236.944 236.127,237.147 238.246,233.688C238.914,232.597 239.279,231.41 239.268,230.12L239.266,230.12Z"/>
  <path d="M199.338,240.994C198.961,240.876 198.589,240.722 198.205,240.646C193.624,239.725 190.345,235.826 189.744,231.475C189.149,227.171 191.549,221.472 197.226,219.834C201.06,218.728 204.63,219.336 207.733,221.96C209.31,223.297 210.405,224.975 210.968,226.979C211.016,227.148 211.018,227.328 211.044,227.54L205.61,227.54C205.484,227.305 205.348,227.035 205.199,226.774C204.535,225.626 203.625,224.742 202.364,224.28C200.193,223.488 197.814,224.162 196.384,225.902C194.399,228.319 194.466,232.092 196.52,234.456C198.62,236.873 202.605,236.984 204.693,234.226C205.042,233.767 205.337,233.265 205.652,232.789L211.037,232.789C211,233.001 210.993,233.181 210.939,233.346C209.676,237.208 207.063,239.624 203.128,240.623C202.718,240.726 202.318,240.874 201.912,241L199.34,241L199.338,240.994Z"/>
  <path d="M123.631,240.994C123.224,240.872 122.822,240.719 122.408,240.629C117.684,239.618 114.637,235.648 114.046,231.571C113.343,226.734 116.316,220.958 122.211,219.633C126.887,218.582 131.609,220.291 134.195,224.539C134.676,225.327 135.053,226.16 135.275,227.06C135.309,227.201 135.311,227.351 135.332,227.536L129.971,227.536C129.711,227.349 129.644,227.035 129.49,226.774C128.763,225.546 127.789,224.6 126.392,224.198C124.299,223.595 122.435,224.045 120.925,225.624C118.626,228.028 118.668,232.14 120.925,234.584C122.971,236.799 126.859,237.001 128.976,234.228C129.326,233.769 129.621,233.267 129.944,232.783L135.325,232.783C135.29,232.991 135.281,233.169 135.227,233.334C133.981,237.162 131.395,239.572 127.509,240.596C127.069,240.713 126.602,240.736 126.208,240.994L123.631,240.994Z"/>
  <path d="M0.884,219.687C1.064,219.7 1.246,219.727 1.426,219.727L11.615,219.727C11.854,219.727 12.093,219.75 12.375,219.765C12.507,220.278 12.44,220.764 12.451,221.245C12.461,221.735 12.457,222.223 12.451,222.713C12.447,223.197 12.438,223.681 12.432,224.122C12.149,224.388 11.86,224.321 11.596,224.322C10.219,224.33 8.841,224.322 7.465,224.33C7.136,224.332 6.789,224.255 6.491,224.466C6.351,225.211 6.351,227.071 6.502,227.887C6.717,227.911 6.95,227.959 7.184,227.961C8.529,227.969 9.877,227.961 11.222,227.967C11.523,227.967 11.821,227.99 12.107,228.001C12.271,228.702 12.296,231.439 12.149,232.473C11.932,232.496 11.699,232.542 11.465,232.542C10.12,232.549 8.772,232.542 7.427,232.547C7.128,232.547 6.828,232.574 6.569,232.586C6.315,232.915 6.395,233.231 6.393,233.527C6.385,235.455 6.389,237.38 6.389,239.308L6.389,240.347C6.175,240.401 6.006,240.481 5.838,240.479C4.186,240.476 2.536,240.456 0.884,240.443L0.884,219.687Z"/>
  <path d="M299.116,224.278C298.811,224.294 298.507,224.324 298.201,224.324C295.02,224.328 291.836,224.328 288.655,224.324C288.324,224.324 287.993,224.301 287.683,224.29C287.499,223.62 287.457,221.046 287.597,219.853C287.888,219.627 288.238,219.731 288.561,219.731C291.743,219.721 294.926,219.727 298.107,219.723C298.442,219.723 298.779,219.698 299.114,219.687L299.114,224.278L299.116,224.278Z"/>
  <path d="M299.116,240.443C298.811,240.458 298.505,240.489 298.201,240.489C295.018,240.493 291.833,240.493 288.649,240.489C288.318,240.489 287.989,240.464 287.679,240.453C287.501,239.767 287.459,237.268 287.591,236.006C287.88,235.775 288.232,235.882 288.556,235.882C291.739,235.872 294.924,235.876 298.107,235.874C298.444,235.874 298.779,235.859 299.116,235.849L299.116,240.443Z"/>
  <path d="M101.326,240.384C100.521,240.514 97.764,240.529 96.759,240.418C96.601,240.183 96.409,239.911 96.231,239.631C93.999,236.119 91.769,232.605 89.536,229.092C89.36,228.815 89.168,228.547 88.994,228.29C88.688,228.396 88.758,228.61 88.76,228.775C88.785,230.672 88.824,232.568 88.845,234.465C88.864,236.24 88.87,238.016 88.877,239.79C88.877,239.97 88.854,240.15 88.839,240.372C88.006,240.594 87.183,240.474 86.372,240.481C85.581,240.489 84.785,240.554 83.952,240.42C83.912,240.242 83.855,240.074 83.839,239.901C83.82,239.689 83.832,239.473 83.832,239.258C83.832,233.137 83.832,227.016 83.835,220.894C83.835,220.534 83.77,220.161 83.929,219.826C84.632,219.698 87.202,219.673 88.399,219.786C88.558,220.025 88.749,220.297 88.927,220.579C91.18,224.15 93.429,227.724 95.684,231.296C95.856,231.567 95.988,231.877 96.325,232.115C96.495,231.803 96.434,231.527 96.442,231.269C96.447,230.993 96.432,230.717 96.428,230.442C96.426,230.166 96.428,229.891 96.428,229.615C96.428,229.339 96.43,229.064 96.428,228.788C96.424,228.512 96.411,228.237 96.407,227.961C96.403,227.686 96.407,227.41 96.407,227.134C96.407,226.859 96.411,226.583 96.405,226.307C96.4,226.062 96.382,225.819 96.377,225.574C96.371,225.299 96.371,225.023 96.369,224.747C96.367,224.472 96.371,224.196 96.367,223.921C96.363,223.645 96.348,223.369 96.342,223.096C96.336,222.82 96.336,222.544 96.334,222.269L96.334,221.442C96.334,221.166 96.321,220.891 96.325,220.615C96.329,220.347 96.35,220.081 96.361,219.83C97.148,219.687 100.427,219.677 101.273,219.811C101.432,220.081 101.361,220.393 101.363,220.69C101.369,222.985 101.367,225.281 101.367,227.576L101.367,239.329C101.367,239.66 101.348,239.991 101.336,240.376L101.326,240.384Z"/>
  <path d="M257.145,240.437C257.099,240.267 257.057,240.183 257.057,240.097C257.055,233.43 257.055,226.761 257.057,220.094C257.057,220.008 257.101,219.924 257.14,219.788C257.308,219.769 257.482,219.732 257.656,219.732C260.105,219.729 262.553,219.719 264.999,219.736C266.071,219.744 267.137,219.878 268.172,220.163C271.398,221.047 273.388,223.222 274.453,226.304C275.029,227.976 275.121,229.722 274.937,231.472C274.855,232.258 274.715,233.049 274.506,233.811C273.605,237.109 271.444,239.153 268.165,240.047C267.007,240.363 265.82,240.481 264.624,240.489C262.359,240.5 260.095,240.495 257.831,240.489C257.618,240.489 257.406,240.458 257.142,240.437L257.145,240.437ZM262.401,235.849C263.517,235.887 264.589,235.964 265.644,235.817C267.74,235.524 269.057,234.266 269.528,232.201C269.589,231.933 269.642,231.661 269.673,231.389C269.849,229.812 269.723,228.273 269.02,226.822C268.341,225.419 267.212,224.6 265.665,224.441C264.725,224.344 263.772,224.363 262.824,224.342C262.681,224.338 262.535,224.405 262.403,224.437C262.285,225.176 262.273,234.877 262.4,235.849L262.401,235.849Z"/>
  <path d="M24.979,219.775C25.304,219.754 25.513,219.729 25.722,219.729C27.957,219.727 30.193,219.711 32.429,219.734C33.623,219.748 34.808,219.893 35.97,220.194C38.364,220.812 39.805,222.374 40.435,224.721C40.799,226.074 40.822,227.444 40.464,228.805C40.039,230.419 39.132,231.676 37.669,232.513C37.465,232.63 37.267,232.764 37.032,232.913C37.443,233.814 37.951,234.613 38.404,235.438C38.845,236.243 39.312,237.034 39.754,237.838C40.206,238.661 40.709,239.459 41.086,240.267C41.032,240.366 41.023,240.397 41.004,240.414C40.981,240.433 40.948,240.449 40.919,240.449C39.482,240.464 38.043,240.479 36.605,240.489C36.362,240.489 36.119,240.466 35.817,240.449C35.57,240.005 35.315,239.557 35.066,239.103C34.802,238.621 34.542,238.135 34.279,237.65C34.033,237.193 33.784,236.735 33.535,236.278C33.273,235.794 33.01,235.309 32.746,234.825C32.499,234.368 32.251,233.91 32.004,233.453C31.741,232.968 31.47,232.488 31.223,231.996C30.995,231.542 30.671,231.129 30.539,230.551C30.901,230.539 31.202,230.539 31.5,230.516C32.109,230.469 32.723,230.438 33.326,230.348C34.473,230.176 35.183,229.502 35.51,228.392C35.671,227.848 35.711,227.301 35.602,226.759C35.395,225.726 34.812,224.977 33.789,224.631C32.666,224.25 31.514,224.277 30.354,224.388C30.164,224.778 30.233,225.151 30.233,225.507C30.227,230.13 30.233,234.752 30.227,239.373C30.227,239.702 30.287,240.043 30.151,240.361C30.046,240.403 29.963,240.462 29.881,240.462C28.503,240.476 27.125,240.483 25.748,240.485C25.538,240.485 25.327,240.449 25.128,240.432C24.889,240.104 24.985,239.756 24.985,239.43C24.975,236.768 24.979,234.104 24.979,231.441L24.979,219.775Z"/>
  <path d="M58.001,237.488C57.658,238.514 57.342,239.461 57.036,240.378C56.194,240.531 52.245,240.531 51.464,240.384C51.474,240.269 51.464,240.144 51.499,240.035C51.943,238.661 59.295,220.305 59.622,219.75L63.998,219.75C64.428,220.485 70.374,235.799 71.809,239.863C71.869,240.03 71.897,240.208 71.941,240.382C71.227,240.518 67.504,240.544 66.352,240.422C65.845,239.555 65.745,238.489 65.251,237.518C62.872,237.459 60.489,237.509 57.999,237.488L58.001,237.488ZM61.645,226.256C61.176,226.817 61.14,227.444 60.943,228.001C60.738,228.576 60.573,229.163 60.394,229.747C60.212,230.329 60.018,230.909 59.854,231.497C59.693,232.071 59.423,232.62 59.392,233.231C60.313,233.368 63.146,233.351 63.891,233.196C63.165,230.901 62.449,228.612 61.645,226.258L61.645,226.256Z"/>
  <path d="M175.071,234.525C172.512,234.5 170.358,232.507 170.356,229.793C170.354,227.186 172.414,225.077 175.084,225.079C177.703,225.079 179.785,227.142 179.802,229.806C179.82,232.408 177.674,234.53 175.073,234.527L175.071,234.525Z"/>
  <path d="M159.452,236.018C159.473,236.138 159.526,236.31 159.526,236.485C159.528,237.765 159.567,239.046 159.507,240.278C159.155,240.573 158.805,240.483 158.479,240.485C156.276,240.495 154.075,240.489 151.872,240.489C150.863,240.489 149.853,240.491 148.844,240.489C148.541,240.489 148.239,240.468 147.906,240.454C147.649,239.674 147.803,238.91 147.782,238.161C147.762,237.436 147.726,236.703 147.816,236.042C147.904,235.964 147.923,235.939 147.948,235.926C147.975,235.912 148.006,235.901 148.036,235.901C151.644,235.891 155.252,235.884 158.862,235.878C159.013,235.878 159.165,235.901 159.316,235.918C159.343,235.922 159.366,235.953 159.45,236.016L159.452,236.018Z"/>
  <path d="M159.458,224.217C158.598,224.361 148.733,224.365 147.887,224.231C147.657,223.509 147.803,222.745 147.785,221.997C147.77,221.273 147.72,220.542 147.843,219.788C148.863,219.669 149.835,219.742 150.804,219.731C151.751,219.717 152.699,219.729 153.644,219.729C154.59,219.729 155.599,219.723 156.577,219.729C157.517,219.734 158.458,219.696 159.377,219.759C159.438,219.907 159.502,219.989 159.503,220.071C159.517,221.262 159.526,222.452 159.528,223.643C159.528,223.821 159.484,223.999 159.456,224.219L159.458,224.217Z"/>
  <path d="M159.19,227.793C159.347,228.556 159.364,231.259 159.222,232.165C159.065,232.197 158.893,232.266 158.721,232.266C155.268,232.272 151.815,232.272 148.36,232.266C148.212,232.266 148.065,232.226 147.873,232.197C147.69,231.46 147.787,230.731 147.785,230.011C147.785,229.286 147.69,228.553 147.873,227.81C148.038,227.777 148.182,227.731 148.329,227.722C149.579,227.649 158.518,227.707 159.19,227.793Z"/>
  <path d="M287.612,227.783C287.893,227.758 288.131,227.722 288.368,227.716C292.903,227.624 297.963,227.668 298.852,227.81C299.079,228.505 298.942,229.238 298.959,229.958C298.978,230.685 298.993,231.418 298.93,232.191C298.637,232.222 298.402,232.264 298.163,232.27C293.569,232.375 288.381,232.32 287.639,232.159C287.501,231.508 287.476,228.905 287.61,227.781L287.612,227.783Z"/>
</svg>
