<svg viewBox="0 0 300 200" version="1.1" xmlns="http://www.w3.org/2000/svg">
  <path d="M177.821,106.544C175.358,106.544 173.507,108.54 173.507,111.252C173.507,113.092 174.17,114.575 176.825,117.956C179.952,115.804 182.176,114.218 182.176,111.407C182.176,108.597 180.284,106.544 177.821,106.544M169.535,130.592C169.535,135.352 172.708,138.676 177.396,138.676C180.097,138.676 182.985,137.908 186.392,134.637L176.161,121.28C172.61,123.841 169.535,126.143 169.535,130.592M191.079,140.828L187.812,136.529C186.532,137.908 182.985,141.133 177.442,141.133C171.241,141.133 166.979,136.939 166.979,130.748C166.979,125.174 170.484,122.514 174.694,119.439C172.942,117.137 170.956,114.529 170.956,111.355C170.956,107.264 174.036,104.091 177.826,104.091C181.616,104.091 184.691,107.316 184.691,111.407C184.691,114.425 182.938,116.369 180.807,117.956L178.298,119.797L187.958,132.433C189.472,129.975 189.943,127.984 189.943,123.374L192.453,123.374C192.453,127.932 191.649,131.608 189.518,134.476L194.351,140.822L191.084,140.822L191.079,140.828Z" style="fill:white;fill-rule:nonzero;"/>
  <path d="M176.908,52.447C175.954,53.495 174.684,54.008 173.294,54.008C171.904,54.008 170.748,53.516 169.908,52.676C168.633,51.4 168.56,50.223 168.56,47.122C168.56,44.022 168.633,42.845 169.908,41.569C170.743,40.729 171.884,40.236 173.294,40.236C175.84,40.236 177.65,41.948 178.028,44.286L176.581,44.286C176.198,42.554 174.984,41.528 173.289,41.528C172.356,41.528 171.557,41.849 170.95,42.476C170.095,43.353 170.002,44.338 170.002,47.117C170.002,49.896 170.095,50.881 170.95,51.758C171.557,52.385 172.356,52.707 173.289,52.707C174.279,52.707 175.228,52.307 175.856,51.545C176.405,50.861 176.613,50.119 176.613,49.093L176.613,48.045L173.284,48.045L173.284,46.811L178.059,46.811L178.059,48.958C178.059,50.519 177.774,51.467 176.898,52.437" style="fill:white;fill-rule:nonzero;"/>
  <path d="M186.49,41.647L182.876,41.647L182.876,46.609L186.49,46.609C188.066,46.609 189.192,45.79 189.192,44.136C189.192,42.482 188.072,41.642 186.49,41.642M189.207,53.889L186.127,47.879L182.876,47.879L182.876,53.889L181.43,53.889L181.43,40.345L186.62,40.345C188.974,40.345 190.633,41.771 190.633,44.11C190.633,46.085 189.435,47.382 187.683,47.739L190.898,53.884L189.202,53.884L189.207,53.889Z" style="fill:white;fill-rule:nonzero;"/>
  <path d="M197.783,42.425L195.232,49.575L200.293,49.575L197.783,42.425ZM201.797,53.894L200.713,50.83L194.797,50.83L193.713,53.894L192.173,53.894L197.156,40.351L198.369,40.351L203.331,53.894L201.791,53.894L201.797,53.894Z" style="fill:white;fill-rule:nonzero;"/>
  <path d="M214.153,53.894L206.966,43.036L206.966,53.894L205.525,53.894L205.525,40.351L206.894,40.351L214.08,51.172L214.08,40.351L215.527,40.351L215.527,53.894L214.153,53.894Z" style="fill:white;fill-rule:nonzero;"/>
  <path d="M226.498,42.637C225.814,41.875 224.865,41.647 223.833,41.647L220.888,41.647L220.888,52.598L223.833,52.598C224.86,52.598 225.814,52.37 226.498,51.613C227.375,50.679 227.396,49.004 227.396,47.122C227.396,45.24 227.375,43.565 226.498,42.637M227.639,52.468C226.727,53.458 225.607,53.894 224.082,53.894L219.442,53.894L219.442,40.356L224.082,40.356C225.607,40.356 226.727,40.791 227.639,41.782C228.837,43.073 228.837,45.053 228.837,47.122C228.837,49.191 228.837,51.172 227.639,52.468" style="fill:white;fill-rule:nonzero;"/>
  <path d="M241.898,41.647L238.419,41.647L238.419,47.029L241.898,47.029C243.594,47.029 244.75,46.116 244.75,44.327C244.75,42.539 243.594,41.647 241.898,41.647M242.012,48.32L238.419,48.32L238.419,53.894L236.972,53.894L236.972,40.356L242.012,40.356C244.465,40.356 246.197,41.916 246.197,44.327C246.197,46.739 244.465,48.32 242.012,48.32" style="fill:white;fill-rule:nonzero;"/>
  <path d="M251.88,42.425L249.329,49.575L254.389,49.575L251.88,42.425ZM255.893,53.894L254.809,50.83L248.893,50.83L247.809,53.894L246.269,53.894L251.252,40.351L252.471,40.351L257.433,53.894L255.893,53.894Z" style="fill:white;fill-rule:nonzero;"/>
  <path d="M264.676,41.647L261.062,41.647L261.062,46.609L264.676,46.609C266.253,46.609 267.378,45.79 267.378,44.136C267.378,42.482 266.258,41.642 264.676,41.642M267.399,53.889L264.319,47.879L261.068,47.879L261.068,53.889L259.621,53.889L259.621,40.345L264.811,40.345C267.17,40.345 268.825,41.771 268.825,44.11C268.825,46.085 267.627,47.382 265.874,47.739L269.089,53.884L267.399,53.884L267.399,53.889Z" style="fill:white;fill-rule:nonzero;"/>
  <rect x="272.091" y="40.351" width="1.447" height="13.544" style="fill:white;"/>
  <path d="M280.937,54.008C278.92,54.008 277.572,53.495 276.317,52.219L277.287,51.25C278.407,52.37 279.454,52.717 280.973,52.717C282.97,52.717 284.188,51.804 284.188,50.207C284.188,49.481 283.981,48.911 283.519,48.512C283.099,48.133 282.721,47.999 281.751,47.848L280.175,47.62C279.112,47.449 278.313,47.127 277.701,46.593C277.017,45.987 276.654,45.147 276.654,44.047C276.654,41.745 278.308,40.242 280.989,40.242C282.721,40.242 283.861,40.698 285.023,41.725L284.089,42.658C283.27,41.88 282.342,41.476 280.932,41.476C279.107,41.476 278.059,42.487 278.059,44.006C278.059,44.67 278.251,45.225 278.671,45.582C279.091,45.945 279.734,46.173 280.439,46.287L282.015,46.536C283.27,46.728 283.861,46.956 284.468,47.506C285.189,48.133 285.609,49.046 285.609,50.166C285.609,52.541 283.763,54.008 280.932,54.008" style="fill:white;fill-rule:nonzero;"/>
  <path d="M179.558,89.542C181.621,89.542 183.332,87.825 183.332,85.762C183.332,84.165 182.705,83.143 181.435,82.682C178.749,81.686 179.397,81.92 176.778,81.012C174.02,80.063 171.474,78.186 169.758,75.848C168.736,74.458 168.228,72.742 168.228,70.683C168.228,67.578 169.343,64.912 171.562,62.688C173.787,60.464 176.452,59.349 179.578,59.349C182.705,59.349 185.344,60.464 187.569,62.688C189.793,64.912 190.903,67.578 190.903,70.683L183.374,70.683C183.374,68.646 181.658,66.929 179.62,66.929C177.582,66.929 175.845,68.646 175.845,70.709C175.845,72.052 176.379,73.074 177.468,73.769C179.693,75.205 179.438,74.925 182.104,75.718C184.976,76.553 187.574,78.337 189.358,80.628C190.4,81.971 190.934,83.708 190.934,85.819C190.934,88.945 189.824,91.61 187.6,93.835C185.375,96.059 182.71,97.174 179.61,97.174C176.509,97.174 173.818,96.059 171.593,93.835C169.369,91.61 168.259,88.945 168.259,85.819L175.809,85.819C175.809,87.903 177.499,89.593 179.589,89.593L179.563,89.547L179.558,89.542Z" style="fill:white;fill-rule:nonzero;"/>
  <path d="M216.377,60.209L216.377,67.552L201.698,67.552L201.698,74.914L212.711,74.914L212.711,82.257L201.698,82.257L201.698,89.593L216.377,89.593L216.377,96.956L194.335,96.956L194.335,60.209L216.377,60.209Z" style="fill:white;fill-rule:nonzero;"/>
  <rect x="219.799" y="60.209" width="7.363" height="36.747" style="fill:white;"/>
  <path d="M252.854,80.525L252.854,60.209L260.222,60.209L260.222,97.641L238.175,76.626L238.175,96.956L230.813,96.956L230.813,59.525L252.854,80.525Z" style="fill:white;fill-rule:nonzero;"/>
  <path d="M263.868,60.209L263.868,96.956L285.915,96.956L285.915,89.599L271.236,89.599L271.236,82.257L282.244,82.257L282.244,74.914L271.236,74.914L271.236,67.552L285.915,67.552L285.915,60.209L263.868,60.209Z" style="fill:white;fill-rule:nonzero;"/>
  <path d="M197.607,114.586C195.435,116.779 194.34,119.408 194.34,122.467C194.34,125.526 195.435,128.176 197.607,130.348C199.774,132.516 202.403,133.615 205.488,133.615C208.574,133.615 211.177,132.516 213.37,130.348C215.563,128.176 216.657,125.552 216.657,122.467C216.657,119.382 215.563,116.779 213.37,114.586C211.177,112.392 208.553,111.298 205.488,111.298C202.424,111.298 199.78,112.398 197.607,114.586M218.648,109.354C222.304,113.009 224.129,117.396 224.129,122.514C224.129,127.631 222.299,132.018 218.648,135.648C214.993,139.277 210.606,141.108 205.488,141.108C200.371,141.108 195.984,139.277 192.355,135.648C188.725,132.018 186.895,127.631 186.895,122.514C186.895,117.396 188.72,113.009 192.355,109.354C195.984,105.698 200.376,103.873 205.488,103.873C210.601,103.873 214.993,105.698 218.648,109.354" style="fill:white;fill-rule:nonzero;"/>
  <rect x="226.83" y="104.055" width="7.378" height="36.83" style="fill:white;"/>
  <path d="M248.991,133.449C251.06,133.449 252.777,131.733 252.777,129.664C252.777,128.062 252.149,127.04 250.874,126.574C248.183,125.573 248.831,125.806 246.207,124.899C243.443,123.945 240.892,122.068 239.171,119.719C238.149,118.324 237.636,116.608 237.636,114.539C237.636,111.428 238.751,108.758 240.981,106.528C243.21,104.298 245.88,103.184 249.017,103.184C252.154,103.184 254.799,104.298 257.028,106.528C259.258,108.758 260.373,111.428 260.373,114.539L252.828,114.539C252.828,112.496 251.112,110.78 249.064,110.78C247.016,110.78 245.279,112.496 245.279,114.565C245.279,115.913 245.813,116.929 246.907,117.629C249.137,119.066 248.877,118.791 251.548,119.579C254.425,120.414 257.028,122.203 258.817,124.5C259.865,125.848 260.394,127.59 260.394,129.7C260.394,132.832 259.279,135.508 257.049,137.737C254.82,139.967 252.149,141.082 249.038,141.082C245.927,141.082 243.231,139.967 241.006,137.737C238.777,135.508 237.662,132.837 237.662,129.7L245.232,129.7C245.232,131.79 246.928,133.485 249.017,133.485L248.991,133.439L248.991,133.449Z" style="fill:white;fill-rule:nonzero;"/>
  <path d="M263.8,104.055L263.8,140.879L285.889,140.879L285.889,133.501L271.179,133.501L271.179,126.149L282.212,126.149L282.212,118.791L271.179,118.791L271.179,111.412L285.889,111.412L285.889,104.055L263.8,104.055Z" style="fill:white;fill-rule:nonzero;"/>
  <path d="M168.373,146.847L285.37,146.847" style="fill:none;fill-rule:nonzero;stroke:white;stroke-width:1.04px;"/>
  <path d="M171.122,160.085C170.375,160.085 169.742,159.81 169.302,159.369C168.607,158.675 168.555,158.094 168.555,156.274C168.555,154.454 168.607,153.873 169.302,153.178C169.742,152.738 170.375,152.463 171.122,152.463C172.47,152.463 173.419,153.303 173.667,154.651L173.087,154.651C172.864,153.609 172.133,152.966 171.116,152.966C170.567,152.966 170.085,153.158 169.696,153.547C169.156,154.086 169.115,154.693 169.115,156.274C169.115,157.855 169.156,158.467 169.696,159.001C170.085,159.39 170.567,159.582 171.116,159.582C172.127,159.582 172.884,158.939 173.107,157.897L173.667,157.897C173.413,159.245 172.449,160.085 171.122,160.085" style="fill:white;fill-rule:nonzero;"/>
  <path d="M179.221,153.541C178.832,153.153 178.344,152.961 177.8,152.961C177.256,152.961 176.768,153.153 176.379,153.541C175.84,154.081 175.799,154.687 175.799,156.269C175.799,157.85 175.84,158.462 176.379,158.996C176.768,159.385 177.25,159.577 177.8,159.577C178.35,159.577 178.832,159.385 179.221,158.996C179.755,158.462 179.801,157.85 179.801,156.269C179.801,154.687 179.76,154.081 179.221,153.541M179.62,159.364C179.179,159.805 178.547,160.08 177.8,160.08C177.053,160.08 176.421,159.805 175.98,159.364C175.285,158.67 175.233,158.089 175.233,156.269C175.233,154.449 175.285,153.868 175.98,153.173C176.421,152.733 177.053,152.458 177.8,152.458C178.547,152.458 179.179,152.733 179.62,153.173C180.315,153.868 180.367,154.449 180.367,156.269C180.367,158.089 180.315,158.67 179.62,159.364" style="fill:white;fill-rule:nonzero;"/>
  <path d="M188.118,160.018L188.118,153.837L185.842,158.965L185.272,158.965L182.959,153.837L182.959,160.018L182.389,160.018L182.389,152.52L182.959,152.52L185.567,158.301L188.118,152.52L188.689,152.52L188.689,160.018L188.118,160.018Z" style="fill:white;fill-rule:nonzero;"/>
  <path d="M196.731,160.018L196.731,153.837L194.46,158.965L193.889,158.965L191.572,153.837L191.572,160.018L191.006,160.018L191.006,152.52L191.572,152.52L194.185,158.301L196.731,152.52L197.301,152.52L197.301,160.018L196.731,160.018Z" style="fill:white;fill-rule:nonzero;"/>
  <path d="M202.082,160.085C200.578,160.085 199.515,159.053 199.515,157.591L199.515,152.525L200.086,152.525L200.086,157.513C200.086,158.758 200.874,159.577 202.087,159.577C203.3,159.577 204.088,158.758 204.088,157.513L204.088,152.525L204.659,152.525L204.659,157.591C204.659,159.053 203.596,160.085 202.087,160.085" style="fill:white;fill-rule:nonzero;"/>
  <path d="M211.762,160.018L207.433,153.5L207.433,160.018L206.868,160.018L206.868,152.52L207.433,152.52L211.762,159.017L211.762,152.52L212.333,152.52L212.333,160.018L211.762,160.018Z" style="fill:white;fill-rule:nonzero;"/>
  <path d="M215.091,157.69L218.228,157.69L216.657,153.277L215.091,157.69ZM219.063,160.018L218.41,158.198L214.915,158.198L214.262,160.018L213.65,160.018L216.408,152.52L216.911,152.52L219.67,160.018L219.058,160.018L219.063,160.018Z" style="fill:white;fill-rule:nonzero;"/>
  <path d="M223.455,160.085C221.946,160.085 220.883,159.053 220.883,157.591L220.883,152.525L221.453,152.525L221.453,157.513C221.453,158.758 222.242,159.577 223.455,159.577C224.668,159.577 225.456,158.758 225.456,157.513L225.456,152.525L226.027,152.525L226.027,157.591C226.027,159.053 224.964,160.085 223.46,160.085" style="fill:white;fill-rule:nonzero;"/>
  <path d="M230.195,153.028L230.195,160.018L229.625,160.018L229.625,153.028L227.39,153.028L227.39,152.52L232.435,152.52L232.435,153.028L230.195,153.028Z" style="fill:white;fill-rule:nonzero;"/>
  <path d="M236.174,151.804L235.562,151.804L236.584,150.259L237.289,150.259L236.174,151.804ZM233.908,160.023L233.908,152.52L238.455,152.52L238.455,153.023L234.478,153.023L234.478,155.984L237.869,155.984L237.869,156.492L234.478,156.492L234.478,159.515L238.455,159.515L238.455,160.023L233.908,160.023Z" style="fill:white;fill-rule:nonzero;"/>
  <path d="M245.362,160.085C243.853,160.085 242.79,159.053 242.79,157.591L242.79,152.525L243.36,152.525L243.36,157.513C243.36,158.758 244.149,159.577 245.362,159.577C246.575,159.577 247.363,158.758 247.363,157.513L247.363,152.525L247.934,152.525L247.934,157.591C247.934,159.053 246.871,160.085 245.362,160.085" style="fill:white;fill-rule:nonzero;"/>
  <path d="M252.922,153.028L250.713,153.028L250.713,156.061L252.922,156.061C253.891,156.061 254.576,155.59 254.576,154.542C254.576,153.495 253.891,153.028 252.922,153.028M254.565,160.023L252.777,156.57L250.713,156.57L250.713,160.023L250.143,160.023L250.143,152.525L252.994,152.525C254.213,152.525 255.141,153.23 255.141,154.537C255.141,155.662 254.467,156.378 253.414,156.559L255.229,160.023L254.565,160.023Z" style="fill:white;fill-rule:nonzero;"/>
  <path d="M259.839,156.44L257.63,156.44L257.63,159.515L259.839,159.515C260.86,159.515 261.534,158.944 261.534,157.975C261.534,157.005 260.86,156.44 259.839,156.44M259.756,153.028L257.63,153.028L257.63,155.932L259.756,155.932C260.663,155.932 261.42,155.512 261.42,154.48C261.42,153.448 260.663,153.028 259.756,153.028M259.901,160.023L257.054,160.023L257.054,152.525L259.813,152.525C261.057,152.525 261.98,153.251 261.98,154.48C261.98,155.268 261.539,155.921 260.814,156.165C261.622,156.45 262.099,157.104 262.099,157.975C262.099,159.312 261.218,160.018 259.901,160.018" style="fill:white;fill-rule:nonzero;"/>
  <path d="M264.459,157.69L267.601,157.69L266.03,153.277L264.459,157.69ZM268.436,160.018L267.782,158.198L264.288,158.198L263.634,160.018L263.022,160.018L265.781,152.52L266.284,152.52L269.042,160.018L268.43,160.018L268.436,160.018Z" style="fill:white;fill-rule:nonzero;"/>
  <rect x="270.365" y="152.52" width="0.57" height="7.498" style="fill:white;"/>
  <path d="M278.147,160.018L273.818,153.5L273.818,160.018L273.247,160.018L273.247,152.52L273.818,152.52L278.147,159.017L278.147,152.52L278.713,152.52L278.713,160.018L278.147,160.018Z" style="fill:white;fill-rule:nonzero;"/>
  <path d="M281.03,152.52L281.03,160.018L285.583,160.018L285.583,159.515L281.601,159.515L281.601,156.492L284.992,156.492L284.992,155.984L281.601,155.984L281.601,153.028L285.583,153.028L285.583,152.52L281.03,152.52Z" style="fill:white;fill-rule:nonzero;"/>
  <path d="M14.085,157.441L46.523,138.707L14.085,119.983L14.085,157.441Z" style="fill:white;fill-opacity:0.75;fill-rule:nonzero;"/>
  <path d="M14.085,119.983L46.523,138.717L46.523,101.26L14.085,119.983Z" style="fill:white;fill-rule:nonzero;"/>
  <path d="M14.085,119.983L46.523,101.26L14.085,82.526L14.085,119.983Z" style="fill:white;fill-opacity:0.75;fill-rule:nonzero;"/>
  <path d="M152.631,79.991L120.193,61.262L152.631,42.533L152.631,79.991Z" style="fill:white;fill-opacity:0.75;fill-rule:nonzero;"/>
  <path d="M120.193,61.262L152.631,79.991L120.193,98.719L120.193,61.262Z" style="fill:white;fill-rule:nonzero;"/>
  <path d="M152.631,117.448L120.193,98.719L152.631,79.991L152.631,117.448Z" style="fill:white;fill-opacity:0.75;fill-rule:nonzero;"/>
  <path d="M14.085,80.011L48.727,60.023L14.085,40.024L14.085,80.011Z" style="fill:white;fill-opacity:0.75;fill-rule:nonzero;"/>
  <path d="M14.085,79.991L48.727,99.984L48.727,59.992L14.085,79.991Z" style="fill:white;fill-rule:nonzero;"/>
  <path d="M117.99,99.99L83.358,119.983L117.99,139.977L117.99,99.99Z" style="fill:white;fill-opacity:0.75;fill-rule:nonzero;"/>
  <path d="M83.358,80.017L48.722,100.016L83.358,120.009L83.358,80.017Z" style="fill:white;fill-rule:nonzero;"/>
  <path d="M48.722,100.016L83.358,80.017L48.722,60.023L48.722,100.016Z" style="fill:white;fill-opacity:0.75;fill-rule:nonzero;"/>
  <path d="M117.99,140.008L152.626,120.009L117.99,100.01L117.99,140.008Z" style="fill:white;fill-rule:nonzero;"/>
  <path d="M83.358,120.009L117.99,100.016L83.358,80.011L83.358,120.009Z" style="fill:white;fill-opacity:0.75;fill-rule:nonzero;"/>
  <path d="M152.626,120.009L117.99,140.013L152.626,160.007L152.626,120.009Z" style="fill:white;fill-opacity:0.75;fill-rule:nonzero;"/>
  <path d="M117.99,180.006L152.626,160.007L117.99,140.008L117.99,180.006Z" style="fill:white;fill-rule:nonzero;"/>
  <path d="M117.99,140.008L83.358,160.007L117.99,180.001L117.99,140.008Z" style="fill:white;fill-opacity:0.75;fill-rule:nonzero;"/>
  <path d="M83.358,200L117.99,180.001L83.358,160.007L83.358,200Z" style="fill:white;fill-rule:nonzero;"/>
  <path d="M48.727,180.006L83.358,200L83.358,160.007L48.727,180.006Z" style="fill:white;fill-opacity:0.75;fill-rule:nonzero;"/>
  <path d="M48.727,180.001L83.358,160.007L48.727,140.008L48.727,180.001Z" style="fill:white;fill-opacity:0.75;fill-rule:nonzero;"/>
  <path d="M14.085,160.007L48.727,180.001L48.727,140.013L14.085,160.007Z" style="fill:white;fill-rule:nonzero;"/>
  <path d="M14.085,39.993L48.722,59.992L48.722,19.999L14.085,39.993Z" style="fill:white;fill-rule:nonzero;"/>
  <path d="M48.722,59.992L83.358,39.993L48.722,19.999L48.722,59.992Z" style="fill:white;fill-opacity:0.75;fill-rule:nonzero;"/>
  <path d="M83.358,0L48.722,19.999L83.358,39.993L83.358,0Z" style="fill:white;fill-rule:nonzero;"/>
  <path d="M83.358,0L83.358,39.998L117.99,19.999L83.358,0Z" style="fill:white;fill-opacity:0.75;fill-rule:nonzero;"/>
  <path d="M117.99,19.999L83.358,39.993L117.99,59.992L117.99,19.999Z" style="fill:white;fill-rule:nonzero;"/>
  <path d="M117.99,59.992L152.626,39.993L117.99,19.999L117.99,59.992Z" style="fill:white;fill-opacity:0.75;fill-rule:nonzero;"/>
</svg>
