<svg xmlns="http://www.w3.org/2000/svg" viewBox="0 0 300 95" fill="white">
  <path d="M91.474,53.62C90.036,53.725 88.819,53.809 87.601,53.898C86.94,53.945 86.279,54.008 85.612,54.05C84.137,54.139 82.663,54.218 81.188,54.307C80.668,54.339 80.149,54.37 79.64,54.444C78.81,54.564 78.406,55.147 78.249,55.903C78.107,56.611 78.034,57.335 77.96,58.055C77.782,59.849 77.624,61.644 77.456,63.439C77.372,64.326 77.32,65.218 77.194,66.1C76.989,67.507 76.737,68.908 76.512,70.309C76.485,70.467 76.47,70.624 76.433,70.892C77.294,70.834 78.076,70.755 78.858,70.729C80.631,70.671 82.416,70.719 84.185,70.572C85.691,70.446 87.176,70.398 88.64,70.745C88.992,70.829 89.422,71.138 89.553,71.453C89.816,72.088 89.973,72.792 90.026,73.474C90.084,74.24 89.307,74.996 88.247,75.195C86.809,75.463 85.35,75.631 83.901,75.846C83.004,75.977 82.106,76.114 81.204,76.24C80.264,76.366 79.319,76.502 78.375,76.597C76.58,76.78 74.785,76.938 72.99,77.095C72.392,77.148 71.788,77.195 71.185,77.226C69.542,77.316 67.899,77.421 66.256,77.478C63.312,77.578 60.368,77.688 57.424,77.72C56.196,77.735 55.062,77.321 54.175,76.408C53.577,75.788 53.54,74.959 53.603,74.198C53.655,73.568 54.28,73.259 54.842,73.133C55.823,72.907 56.82,72.708 57.823,72.624C59.917,72.45 62.016,72.377 64.11,72.22C64.845,72.162 65.574,71.999 66.298,71.852C66.96,71.716 67.269,71.233 67.269,70.593C67.285,68.031 67.653,65.523 68.13,63.014C68.33,61.959 68.314,60.868 68.414,59.792C68.571,58.123 68.744,56.454 68.907,54.785C68.917,54.701 68.902,54.617 68.891,54.444C68.162,54.444 67.437,54.428 66.713,54.444C65.396,54.475 64.084,54.528 62.766,54.564C61.134,54.612 59.507,54.643 57.875,54.696C56.789,54.727 55.707,54.774 54.621,54.822C52.705,54.906 50.79,54.963 48.874,55.084C47.825,55.152 46.78,55.315 45.736,55.451C44.959,55.556 44.781,55.761 44.686,56.569C44.597,57.299 44.182,57.813 43.595,58.212C42.419,59.01 41.249,59.823 40.057,60.605C38.95,61.329 37.795,61.838 36.441,62.096C34.867,62.4 33.402,63.229 31.844,63.675C30.085,64.174 28.28,64.505 26.49,64.898C24.003,65.444 21.515,66.006 19.017,66.52C17.385,66.856 15.747,67.186 14.094,67.396C13.097,67.522 12.068,67.48 11.061,67.402C9.874,67.312 9.182,66.436 8.552,65.549C8.473,65.439 8.594,65.056 8.736,64.951C9.313,64.505 9.533,63.88 9.57,63.219C9.607,62.579 9.969,62.117 10.447,61.954C12.415,61.298 14.404,60.694 16.409,60.17C17.857,59.792 19.353,59.566 20.822,59.267C23.079,58.81 25.362,58.432 27.587,57.855C29.335,57.404 31.02,56.716 32.725,56.118C32.946,56.039 33.14,55.876 33.513,55.651C32.573,55.572 31.828,55.467 31.077,55.462C26.511,55.404 21.94,55.378 17.369,55.325C15.737,55.304 14.11,55.262 12.478,55.199C10.961,55.142 9.434,55.115 7.927,54.932C6.211,54.727 4.463,54.533 2.826,54.019C1.241,53.525 0.249,52.255 0.013,50.539C-0.134,49.463 0.994,47.773 2.065,47.474C2.364,47.39 2.768,47.401 3.031,47.542C4.122,48.141 5.319,48.24 6.505,48.298C9.922,48.466 13.344,48.566 16.765,48.692C17.978,48.734 19.185,48.818 20.397,48.807C22.869,48.791 25.336,48.739 27.808,48.686C29.44,48.655 31.067,48.587 32.699,48.566C34.242,48.545 35.785,48.566 37.339,48.566C37.386,48.287 37.417,48.172 37.417,48.051C37.417,45.931 37.454,43.811 37.412,41.69C37.375,39.754 37.276,37.817 37.16,35.881C37.066,34.201 36.913,32.527 36.788,30.848C36.656,29.084 36.536,27.326 36.41,25.563C36.289,23.883 36.168,22.209 36.021,20.535C36.006,20.377 35.832,20.131 35.696,20.099C33.57,19.606 31.461,18.96 29.309,18.729C26.973,18.477 24.711,18.037 22.476,17.328C21.221,16.929 20.807,15.78 20.927,14.767C20.943,14.657 21.001,14.499 21.09,14.452C22.449,13.712 23.62,12.61 25.173,12.248C26.805,11.865 28.464,11.739 30.122,12.038C31.618,12.305 33.093,12.689 34.588,12.951C35.806,13.166 37.045,13.308 38.278,13.418C40.078,13.576 41.884,13.712 43.689,13.785C44.319,13.812 44.964,13.534 45.589,13.57C47.678,13.701 49.782,13.791 51.834,14.158C52.611,14.3 53.335,15.077 53.934,15.712C54.516,16.32 55.156,16.94 55.309,17.874C55.435,18.656 55.036,19.433 54.254,19.538C53.005,19.705 51.745,19.816 50.485,19.931C48.544,20.104 46.602,20.267 44.66,20.424C44.329,20.451 43.993,20.424 43.558,20.424L43.558,21.065C43.6,22.718 43.605,24.366 43.699,26.014C43.757,27.001 43.967,27.977 44.093,28.958C44.182,29.635 44.277,30.312 44.308,30.994C44.376,32.495 44.392,34.002 44.445,35.508C44.518,37.655 44.602,39.801 44.697,41.948C44.765,43.443 44.854,44.939 44.949,46.435C44.991,47.117 45.064,47.794 45.122,48.424C46.14,48.424 47.153,48.455 48.16,48.413C49.026,48.377 49.892,48.219 50.758,48.183C52.469,48.114 54.185,48.072 55.902,48.051C60.111,47.999 64.325,47.957 68.539,47.931C69.049,47.931 69.143,47.731 69.185,47.264C69.3,45.926 69.505,44.598 69.657,43.265C69.762,42.357 69.867,41.449 69.915,40.541C70.019,38.625 70.103,36.71 70.166,34.794C70.182,34.28 70.14,33.75 70.025,33.251C69.967,33.02 69.694,32.758 69.458,32.669C67.847,32.049 66.214,31.472 64.588,30.879C63.512,30.485 62.546,29.966 62.121,28.785C61.937,28.276 61.942,27.851 62.273,27.389C62.604,26.922 62.961,26.418 63.081,25.877C63.233,25.211 63.653,25.048 64.183,25.006C64.724,24.959 65.275,24.99 65.821,25.001C65.921,25.001 66.036,25.017 66.115,25.069C67.621,26.129 69.432,26.245 71.143,26.617C72.512,26.917 73.908,27.074 75.299,27.237C75.94,27.315 76.601,27.247 77.252,27.263C80.469,27.342 83.654,27.678 86.698,28.79C87.517,29.089 88.315,29.541 88.992,30.081C89.821,30.737 89.931,32.359 89.349,33.272C88.609,34.437 87.412,34.847 85.843,34.49C84.2,34.117 82.552,33.76 80.904,33.409C80.206,33.262 79.682,33.802 79.598,34.784C79.524,35.676 79.524,36.573 79.461,37.466C79.309,39.533 79.094,41.601 78.978,43.674C78.905,44.981 78.963,46.293 78.963,47.584C83.245,47.075 87.627,47.17 92.094,47.154L92.094,46.456C92.057,42.772 92.944,39.308 94.466,35.965C95.794,33.047 97.106,30.129 99.021,27.536C100.323,25.772 101.651,24.035 103.015,22.324C104.128,20.928 105.314,19.595 106.458,18.231C106.831,17.79 106.784,17.59 106.201,17.533C105.492,17.459 104.763,17.475 104.049,17.517C103.078,17.569 102.107,17.669 101.136,17.779C99.803,17.926 98.465,18.068 97.137,18.273C95.778,18.483 94.387,18.64 93.091,19.065C91.931,19.448 90.908,20.22 89.779,20.729C88.425,21.338 87.008,21.7 85.518,21.18C84.573,20.855 84.08,20.12 83.927,19.202C83.775,18.283 83.975,17.454 84.867,16.887C86.546,15.817 88.399,15.197 90.32,14.798C91.952,14.457 93.6,14.169 95.248,13.927C96.539,13.738 97.846,13.654 99.142,13.528C100.874,13.36 102.606,13.192 104.338,13.035C105.041,12.972 105.75,12.94 106.458,12.898C108.059,12.809 109.665,12.767 111.26,12.636C113.281,12.468 115.301,12.263 117.312,11.996C118.45,11.849 119.558,11.397 120.691,11.345C123.116,11.23 125.646,10.773 127.803,12.405C128.517,12.946 129.089,13.67 129.697,14.337C129.839,14.489 129.965,14.751 129.944,14.951C129.855,15.811 130.395,16.089 131.041,16.483C133.214,17.785 135.334,19.181 137.454,20.577C139.401,21.857 141.343,23.148 143.233,24.513C144.387,25.347 145.447,26.324 146.534,27.252C147.589,28.16 148.696,29.021 149.651,30.029C150.528,30.953 151.346,31.971 151.992,33.068C153.535,35.681 154.474,38.541 155.02,41.528C155.13,42.137 155.141,42.772 155.157,43.391C155.178,44.162 155.162,44.934 155.162,45.737L163.307,45.737C163.197,44.619 163.092,43.517 162.982,42.42C162.914,41.743 162.809,41.066 162.767,40.384C162.667,38.783 162.588,37.182 162.51,35.581C162.378,32.999 162.252,30.422 162.132,27.84C162.105,27.289 161.785,26.938 161.323,26.759C159.922,26.219 158.521,25.673 157.093,25.216C154.978,24.534 152.826,23.983 150.727,23.264C149.641,22.891 149.079,21.7 149.294,20.713C149.473,19.894 150.538,19.212 151.567,19.06C153.902,18.714 156.075,19.385 158.243,20.057C160.541,20.771 162.851,21.469 165.071,22.382C167.207,23.259 169.238,24.387 171.306,25.437C172.686,26.14 174.019,26.938 175.415,27.609C176.764,28.26 177.918,29.152 178.958,30.202C179.923,31.178 180.91,32.16 181.729,33.251C182.595,34.406 182.967,35.797 183.14,37.235C183.245,38.116 183.408,38.988 183.497,39.869C183.566,40.541 183.314,41.118 182.82,41.591C181.702,42.661 180.585,43.732 179.477,44.813C179.293,44.992 179.157,45.217 178.874,45.585C180.375,45.48 181.676,45.396 182.972,45.301C183.592,45.254 184.211,45.181 184.836,45.149C186.436,45.055 188.037,44.976 189.638,44.892C192.01,44.766 194.377,44.65 196.749,44.493C196.949,44.483 197.227,44.252 197.3,44.057C198.717,40.305 200.092,36.531 201.525,32.784C202.024,31.472 201.793,30.323 201.1,29.168C200.916,28.864 200.843,28.465 200.822,28.103C200.733,26.623 201.368,25.893 203.121,25.5C205.991,24.854 208.642,26.219 210.043,28.811C210.442,29.546 210.62,30.391 210.93,31.173C211.434,32.433 212.011,33.671 212.478,34.946C213.066,36.547 213.575,38.179 214.1,39.801C214.158,39.985 214.11,40.205 214.11,40.473C215.05,41.097 215.008,42.315 215.485,43.27C217.69,43.181 219.889,43.092 222.088,42.997C224.129,42.913 226.171,42.829 228.212,42.745C230.38,42.661 232.548,42.583 234.715,42.488C235.046,42.472 235.382,42.436 235.696,42.352C235.838,42.31 235.985,42.147 236.053,42C236.116,41.858 236.085,41.669 236.085,41.501C236.085,39.691 236.132,37.88 236.074,36.07C235.985,33.173 235.864,30.275 235.691,27.384C235.597,25.835 235.408,24.292 235.177,22.76C235.109,22.309 234.804,21.863 234.531,21.474C234.222,21.033 233.791,20.682 233.466,20.251C232.642,19.16 233.114,17.743 234.028,17.06C234.563,16.661 234.93,16.21 235.098,15.533C235.266,14.861 235.875,14.536 236.478,14.289C236.835,14.142 237.218,13.985 237.596,13.964C238.578,13.917 239.591,13.791 240.541,13.964C241.921,14.226 242.635,15.391 243.023,16.604C243.291,17.438 243.821,17.785 244.498,18.037C246.424,18.75 248.114,19.816 249.678,21.138C251.929,23.049 253.635,25.358 255.042,27.924C256.123,29.898 256.873,31.992 257.162,34.206C257.335,35.534 257.319,36.915 257.162,38.242C256.999,39.586 255.824,40.294 254.837,41.04C254.281,41.46 253.619,41.727 253.016,42.084C252.795,42.215 252.601,42.383 252.312,42.598C252.591,42.714 252.753,42.835 252.916,42.835C254.359,42.835 255.803,42.814 257.251,42.793C257.414,42.793 257.582,42.74 257.744,42.735C263.281,42.688 268.813,42.64 274.35,42.609C277.058,42.593 279.766,42.588 282.474,42.625C282.842,42.625 283.309,42.819 283.555,43.081C284.353,43.937 284.757,44.955 284.458,46.157C284.29,46.834 284.133,47.511 283.933,48.177C283.629,49.195 282.758,49.327 281.897,49.358C279.787,49.432 277.672,49.468 275.557,49.489C270.949,49.542 266.336,49.573 261.723,49.621C258.768,49.652 255.818,49.731 252.864,49.731C251.788,49.731 250.712,49.579 249.641,49.463C249.048,49.4 248.828,49.594 249.022,50.14C249.946,52.811 251.326,55.241 252.806,57.635C253.824,59.283 254.742,60.994 255.719,62.673C256.863,64.636 258.028,66.583 259.167,68.541C260.285,70.461 261.387,72.387 262.499,74.308C263.811,76.576 265.139,78.838 266.436,81.11C266.908,81.934 267.296,82.795 267.301,83.792C267.301,84.637 266.887,85.209 266.173,85.487C265.554,85.729 264.856,85.855 264.189,85.876C263.087,85.912 261.98,85.839 260.878,85.771C259.964,85.713 259.329,85.099 258.915,84.39C258.049,82.91 257.319,81.352 256.49,79.851C255.021,77.195 253.52,74.56 252.029,71.92C250.79,69.727 249.552,67.538 248.308,65.35C246.86,62.804 245.401,60.264 243.858,57.561C243.784,57.839 243.747,57.923 243.747,58.007C243.7,60.311 243.663,62.61 243.616,64.914C243.579,66.609 243.579,68.304 243.48,69.989C243.369,71.789 243.154,73.579 242.986,75.374C242.892,76.35 242.341,76.932 241.428,77.221C239.675,77.777 237.896,77.951 236.106,77.457C234.783,77.09 234.384,76.213 234.615,74.875C234.888,73.269 235.13,71.642 235.198,70.015C235.35,66.357 235.397,62.699 235.471,59.041C235.529,55.945 235.555,52.843 235.592,49.741C235.592,49.684 235.565,49.626 235.56,49.6L230.674,49.6C230.506,49.6 230.338,49.61 230.17,49.61C229.246,49.61 228.323,49.6 227.399,49.61C225.053,49.647 222.712,49.678 220.366,49.741C219.453,49.768 218.54,49.857 217.506,49.93C217.595,50.198 217.648,50.471 217.774,50.696C218.309,51.667 218.787,52.686 219.448,53.567C219.904,54.171 220.246,54.685 220.408,55.488C220.681,56.837 221.301,58.128 221.867,59.403C222.649,61.172 222.99,63.051 223.473,64.903C224.009,66.971 224.701,68.997 225.347,71.033C225.725,72.23 226.192,73.395 226.538,74.597C226.785,75.468 226.507,76.334 226.103,77.106C225.746,77.788 224.959,77.882 224.308,77.914C222.817,77.987 221.327,78.008 219.847,77.604C218.855,77.331 218.33,76.733 218.078,75.815C217.275,72.881 216.441,69.952 215.701,67.003C214.882,63.738 213.806,60.574 212.352,57.53C211.339,55.409 210.437,53.237 209.508,51.08C209.334,50.67 209.067,50.565 208.673,50.623C207.225,50.833 205.771,51.038 204.322,51.253C203.74,51.337 203.309,51.62 203.184,52.229C202.921,53.52 202.69,54.816 202.423,56.102C202.024,58.034 201.683,59.986 201.179,61.891C200.245,65.423 198.911,68.819 197.353,72.12C195.437,76.166 193.842,80.339 192.456,84.595C192.209,85.351 191.821,86.064 191.459,86.778C190.971,87.749 189.989,87.854 189.102,87.87C187.864,87.891 186.583,87.865 185.387,87.576C183.88,87.214 183.571,86.637 184.017,85.046C184.594,82.968 185.203,80.89 185.922,78.859C186.557,77.074 187.323,75.337 188.1,73.61C189.785,69.847 191.469,66.084 192.661,62.132C193.254,60.17 193.758,58.159 194.104,56.139C194.382,54.512 194.361,52.832 194.477,51.185C193.595,51.305 192.844,51.41 192.099,51.505C191.38,51.594 190.661,51.699 189.942,51.741C188.672,51.809 187.397,51.83 186.121,51.877C183.786,51.961 181.45,52.035 179.115,52.129C177.409,52.197 175.704,52.281 173.998,52.381C173.158,52.434 172.319,52.539 171.311,52.633C171.579,53.132 171.715,53.583 172.004,53.887C173.017,54.963 174.113,55.966 175.121,57.042C177.073,59.125 179,61.235 180.926,63.345C181.262,63.712 181.508,64.158 181.86,64.499C182.101,64.73 182.437,64.909 182.763,64.993C183.392,65.155 183.712,65.549 183.786,66.195C183.975,67.863 183.004,68.913 181.807,69.753C180.091,70.96 178.333,72.13 176.512,73.164C174.932,74.062 173.137,74.366 171.321,74.413C169.7,74.455 168.062,74.476 166.488,74.02C165.895,73.847 165.302,73.532 164.824,73.143C164.063,72.524 163.344,71.842 162.709,71.096C162.063,70.33 162.242,69.317 162.237,68.415C162.231,67.197 162.389,65.974 162.541,64.762C162.688,63.576 162.929,62.4 163.097,61.219C163.265,60.075 163.391,58.926 163.538,57.776C163.617,57.141 163.711,56.506 163.753,55.871C163.769,55.672 163.701,55.388 163.559,55.273C162.342,54.26 161.176,53.168 159.571,52.728C158.684,52.486 157.812,52.428 156.946,52.67C156.689,52.743 156.385,53.069 156.322,53.331C156.133,54.108 156.012,54.906 155.949,55.703C155.86,56.784 155.849,57.871 155.813,58.952C155.682,62.405 155.178,65.769 153.671,68.939C152.496,71.417 151.005,73.637 149.069,75.589C145.495,79.184 142.01,82.868 138.42,86.442C136.573,88.284 134.568,89.974 132.164,91.087C130.054,92.068 127.965,93.123 125.625,93.475C124.685,93.617 123.741,93.764 122.791,93.806C120.119,93.921 117.448,93.989 114.777,94.068C111.664,94.157 108.804,93.339 106.406,91.36C104.826,90.058 103.414,88.542 102.023,87.03C99.084,83.844 97.142,80.013 95.321,76.14C93.826,72.965 92.639,69.664 92.125,66.174C91.857,64.352 91.595,62.521 91.516,60.689C91.411,58.375 91.49,56.05 91.49,53.578L91.474,53.62ZM148.087,52.922C146.455,52.922 144.97,52.906 143.485,52.922C142.173,52.943 140.855,52.995 139.543,53.048C138.735,53.079 138.158,53.551 138.184,54.271C138.242,55.703 137.984,57.073 137.544,58.422C137.066,59.886 136.725,61.403 135.806,62.694C135.675,62.872 135.539,63.103 135.539,63.308C135.528,64.221 135.114,64.972 134.657,65.717C133.723,67.239 132.568,68.462 130.773,68.96C129.047,69.438 127.309,69.879 125.73,70.776C125.2,71.075 124.575,71.212 124.003,71.432C123.704,71.548 123.337,71.616 123.137,71.831C122.581,72.429 121.862,72.513 121.148,72.555C118.959,72.676 116.776,72.466 114.677,71.863C112.704,71.296 110.772,70.566 108.878,69.774C107.765,69.307 106.731,68.624 105.713,67.963C104.432,67.129 103.855,64.368 104.128,63.019C104.317,62.075 104.684,61.293 105.729,61.062C105.991,61.004 106.253,60.957 106.521,60.925C107.67,60.784 108.878,60.474 109.88,61.277C110.531,61.797 111.019,62.516 111.586,63.14C112.247,63.875 112.819,64.725 113.596,65.313C114.819,66.247 116.293,66.704 117.784,67.076C118.886,67.349 119.925,67.218 120.954,66.746C122.429,66.069 123.919,65.418 125.42,64.799C126.732,64.258 127.819,63.476 128.422,62.159C128.774,61.392 129.104,60.61 129.351,59.807C129.865,58.128 130.38,56.443 130.275,54.648C130.238,54.003 130.007,53.688 129.482,53.677C127.519,53.63 125.551,53.557 123.588,53.557C121.521,53.557 119.448,53.651 117.38,53.672C111.89,53.725 106.395,53.756 100.905,53.809C100.564,53.809 100.207,53.893 99.882,54.013C99.688,54.082 99.446,54.271 99.404,54.449C99.3,54.864 99.242,55.31 99.263,55.74C99.315,56.795 99.404,57.85 99.504,58.905C99.704,61.051 99.824,63.208 100.16,65.329C100.491,67.417 101.026,69.469 101.504,71.532C102.186,74.487 103.96,76.922 105.487,79.446C106.537,81.184 107.985,82.69 109.339,84.228C110.179,85.183 111.129,86.049 112.1,86.873C113.433,88.001 114.981,88.767 116.745,88.836C118.372,88.899 120.004,88.783 121.631,88.725C122.082,88.71 122.544,88.647 122.974,88.526C123.662,88.337 124.339,88.106 125,87.854C126.281,87.361 127.588,86.915 128.821,86.311C130.962,85.261 132.568,83.498 134.248,81.876C137.019,79.2 139.685,76.408 142.377,73.647C142.986,73.023 143.553,72.356 144.099,71.679C144.613,71.044 145.112,70.383 145.563,69.7C146.004,69.039 146.497,68.373 146.765,67.638C147.893,64.562 148.25,61.329 148.376,58.091C148.444,56.401 148.192,54.696 148.082,52.922L148.087,52.922ZM147.615,46.157C147.725,44.65 147.615,43.239 147.279,41.832C146.471,38.442 144.933,35.482 142.424,32.999C139.895,30.491 137.134,28.255 134.379,26.019C134.09,25.783 133.697,25.463 133.392,25.505C131.66,25.73 129.928,26.019 128.212,26.355C126.213,26.749 124.365,27.468 122.953,29.037C122.119,29.966 121.227,30.848 120.45,31.818C119.689,32.763 118.97,33.755 118.351,34.799C117.6,36.07 117.926,36.941 119.243,37.576C119.484,37.691 119.736,37.78 119.988,37.87C122.722,38.83 125.457,39.791 128.191,40.741C129.089,41.05 130.096,41.013 130.857,41.769C132.101,43.003 133.392,44.189 134.699,45.354C134.988,45.611 135.397,45.831 135.775,45.884C136.798,46.025 137.837,46.13 138.871,46.141C141.763,46.172 144.66,46.151 147.625,46.151L147.615,46.157ZM124.544,46.335L124.565,46.172C124.37,46.067 124.181,45.936 123.972,45.863C121.279,44.892 118.597,43.905 115.895,42.966C113.517,42.142 111.517,40.872 110.221,38.631C109.576,37.513 109.297,36.384 109.922,35.214C110.772,33.613 111.607,31.992 112.63,30.506C113.869,28.706 115.317,27.048 116.64,25.3C117.259,24.481 117.847,23.61 118.881,23.337C120.786,22.833 122.717,22.414 124.638,21.978C125.352,21.815 126.123,21.826 126.779,21.217C126.496,21.049 126.302,20.881 126.081,20.802C123.977,20.036 121.862,19.301 119.757,18.525C118.634,18.11 117.563,18.178 116.682,18.981C116.194,19.427 115.695,19.858 115.212,20.309C113.853,21.569 112.562,22.912 111.26,24.229C110.867,24.628 110.499,25.053 110.137,25.484C109.025,26.796 107.891,28.092 106.82,29.441C106.07,30.391 105.325,31.372 104.726,32.422C102.947,35.571 101.457,38.851 100.549,42.373C100.171,43.847 100.019,45.343 100.165,46.918L100.942,46.918C107.461,46.876 113.984,46.839 120.502,46.786C121.4,46.781 122.292,46.734 123.184,46.65C123.641,46.608 124.087,46.445 124.538,46.34L124.544,46.335ZM244.372,39.009C245.925,38.421 247.39,37.822 248.528,36.647C248.985,36.18 249.295,35.65 249.158,34.973C249.059,34.469 248.948,33.96 248.759,33.487C247.767,30.942 246.602,28.481 245.012,26.245C244.682,25.778 244.272,25.363 243.905,24.922C243.816,24.964 243.732,25.006 243.642,25.053C243.753,26.77 243.884,28.491 243.962,30.207C244.067,32.522 244.13,34.836 244.225,37.151C244.251,37.749 244.319,38.342 244.372,39.003L244.372,39.009ZM170.833,43.092C172.014,42.032 173.137,41.05 174.218,40.021C174.612,39.644 175.1,39.177 175.184,38.688C175.368,37.607 175.347,36.463 174.544,35.56C173.652,34.563 172.723,33.603 171.767,32.669C171.421,32.328 170.985,32.065 170.555,31.834C170.182,31.635 169.899,31.75 169.904,32.238C169.904,32.658 169.883,33.078 169.915,33.498C170.072,35.608 170.251,37.712 170.403,39.822C170.466,40.672 170.476,41.528 170.545,42.378C170.56,42.588 170.702,42.782 170.833,43.097L170.833,43.092ZM170.524,62.458C170.45,62.468 170.371,62.479 170.298,62.489C170.251,62.689 170.177,62.888 170.156,63.088C170.109,63.623 170.099,64.163 170.057,64.704C169.967,65.885 169.826,67.061 169.789,68.236C169.763,69.029 170.272,69.469 171.033,69.317C172.534,69.013 173.741,68.189 174.801,67.003C173.347,65.46 171.935,63.959 170.524,62.458ZM206.621,42.242C206.453,42.614 206.275,42.898 206.212,43.202C206.18,43.359 206.343,43.559 206.416,43.743C206.574,43.664 206.784,43.632 206.884,43.506C207.219,43.086 207.167,42.682 206.626,42.242L206.621,42.242Z"/>
  <path d="M284.642,5.01C285.387,5.304 286.106,5.708 286.877,5.876C289.544,6.459 291.926,7.655 294.178,9.125C295.18,9.781 296.204,10.516 296.949,11.429C297.762,12.421 298.303,13.644 298.891,14.804C299.263,15.544 299.647,16.331 299.772,17.139C300.444,21.469 299.993,25.563 297.054,29.089C296.015,30.338 295.065,31.666 294.068,32.957C292.845,34.537 291.129,35.099 289.239,35.261C286.206,35.524 283.183,35.482 280.196,34.799C276.827,34.028 274.014,32.328 271.726,29.73C270.366,28.192 269.285,26.481 268.535,24.581C268.278,23.93 268.11,23.211 268.089,22.519C268.026,20.409 267.937,18.273 268.461,16.21C268.839,14.741 269.432,13.324 269.926,11.88C270.057,11.502 270.209,11.135 270.314,10.752C270.492,10.106 270.283,9.87 269.626,9.975C268.199,10.196 267.128,10.999 266.247,12.09C265.921,12.494 265.69,12.982 265.36,13.381C265.202,13.57 264.908,13.743 264.677,13.743C263.927,13.743 263.176,13.638 262.426,13.618C261.812,13.602 261.471,13.271 261.229,12.767C260.542,11.35 261.061,9.655 262.473,8.632C263.811,7.661 265.365,7.22 266.934,6.853C268.823,6.412 270.713,5.908 272.634,5.703C274.061,5.551 275.179,4.947 276.255,4.15C278.412,2.549 280.753,1.4 283.456,1.137C285.896,0.901 288.342,0.681 290.714,1.547C291.36,1.783 291.926,2.15 292.11,2.874C292.304,3.625 292.042,4.092 291.276,4.176C290.551,4.26 289.811,4.207 289.082,4.218C287.922,4.234 286.757,4.228 285.597,4.291C285.277,4.307 284.967,4.543 284.657,4.674C284.657,4.779 284.647,4.884 284.642,4.989L284.642,5.01ZM281.136,8.684L281.136,8.716C280.863,8.716 280.59,8.731 280.317,8.716C278.685,8.595 277.499,9.277 276.733,10.705C276.176,11.739 275.588,12.752 275.106,13.817C274.192,15.838 273.662,17.989 273.641,20.183C273.61,24.518 275.809,27.725 279.22,30.15C280.894,31.341 282.92,31.588 284.904,31.955C286.573,32.265 287.864,31.719 288.961,30.559C289.79,29.677 290.614,28.78 291.339,27.814C293.364,25.127 294.802,22.225 294.251,18.714C293.747,15.517 292.535,12.757 289.559,11.046C287.901,10.091 286.158,9.351 284.316,8.92C283.293,8.684 282.196,8.758 281.131,8.695L281.136,8.684Z"/>
  <path d="M285.366,24.912C283.251,24.912 281.33,24.256 279.614,23.122C278.433,22.345 277.221,21.469 277.021,19.858C276.754,17.68 277.289,15.822 279.037,14.352C279.992,13.549 280.936,12.788 282.17,12.468C283.776,12.048 285.004,12.489 285.775,13.833C286.195,14.562 286.106,14.977 285.455,15.512C284.747,16.095 284.054,16.703 283.356,17.302C282.758,17.816 282.668,18.456 282.905,19.181C283.272,20.288 284.064,20.886 285.235,20.86C286.594,20.829 287.959,20.787 289.313,20.697C290.221,20.64 290.819,21.332 291.113,21.931C291.344,22.398 291.071,23.18 290.431,23.531C289.675,23.951 288.856,24.313 288.022,24.539C287.161,24.765 286.248,24.796 285.361,24.912L285.366,24.912Z"/>
</svg>
