<svg width="300" height="60" viewBox="0 0 300 60" fill="none" xmlns="http://www.w3.org/2000/svg">
<path d="M14.561 37.7958V43.5898C14.561 44.5308 15.11 45.3928 15.815 45.3928H17.932C19.343 45.3928 20.355 45.0798 20.826 44.3738C21.375 43.8248 21.61 42.4918 21.61 40.6958C21.61 37.0188 20.512 35.9208 17.932 35.9208H15.815C15.11 35.9208 14.561 36.7048 14.561 37.8028M14.561 16.0428V21.6808C14.561 22.6998 15.11 23.4838 15.815 23.4838H17.775C20.199 23.4838 21.139 22.0728 21.139 18.7088C21.139 15.3448 20.042 14.2468 17.697 14.2468H15.815C15.11 14.2468 14.561 15.0308 14.561 16.0498M2.658 1.08984H18.944C29.2 1.08984 34.289 5.78684 34.289 15.4158C34.289 19.3288 34.054 23.3988 32.172 26.6058C31.31 27.9388 31.545 30.2048 32.643 31.3028C35.223 33.8828 35.38 38.3438 35.38 42.4138C35.38 53.3688 29.977 58.7708 19.258 58.7708H2.658C1.169 58.7708 0 57.1248 0 55.0928V4.76784C0 2.72984 1.176 1.08984 2.658 1.08984Z" fill="black"/>
<path d="M193.184 17.291C188.958 16.663 185.75 16.428 183.555 16.428C180.889 16.428 179.329 16.507 178.858 16.663C178.388 16.899 178.231 17.369 178.231 17.996C178.231 18.545 178.466 19.094 179.015 19.407C179.485 19.799 181.053 20.348 183.712 21.132C188.409 22.543 195.842 24.575 197.489 31.937C197.881 33.975 198.116 36.712 198.116 40.155C198.116 55.343 191.773 59.954 181.524 59.954C176.513 59.954 171.196 59.327 166.343 57.688C164.932 57.217 163.998 55.421 163.998 53.461L164.312 46.028C164.468 43.918 165.801 42.193 167.362 42.193C172.686 43.134 176.834 43.526 180.277 43.526C182.465 43.526 183.484 42.82 183.484 41.566C183.484 40.939 183.249 40.547 182.778 40.233C182.229 39.998 180.897 39.684 178.709 39.214C172.836 37.96 168.844 35.928 166.813 33.263C164.625 30.604 163.606 26.299 163.606 20.191C163.606 4.383 169.322 0 180.198 0C184.111 0 188.808 0.47 194.132 1.646H194.21C195.621 1.96 196.712 3.756 196.712 5.794L196.555 13.306C196.477 15.886 194.987 17.298 193.191 17.298" fill="black"/>
<path d="M224.066 38.6578H220.937C219.526 38.6578 218.429 40.1478 218.429 42.0998V55.3288C218.429 57.2098 217.253 58.7708 215.927 58.7708H206.377C204.965 58.7708 203.868 57.2028 203.868 55.3288V4.53284C203.868 2.65084 204.965 1.08984 206.377 1.08984H215.927C217.26 1.08984 218.429 2.65784 218.429 4.53284V18.9368C218.429 20.8178 219.526 22.3788 220.937 22.3788H224.066C225.478 22.3788 226.568 20.8108 226.568 18.9368V4.53284C226.568 2.65084 227.744 1.08984 229.07 1.08984H238.62C240.031 1.08984 241.122 2.65784 241.122 4.53284V55.3288C241.122 57.2098 240.024 58.7708 238.62 58.7708H229.07C227.737 58.7708 226.568 57.2028 226.568 55.3288V42.0998C226.568 40.1398 225.47 38.6578 224.066 38.6578Z" fill="black"/>
<path d="M113.473 5.55891C109.902 8.62391 106.046 11.6309 104.172 15.9429C102.661 19.4069 102.354 23.2699 102.247 27.0479C102.141 30.7749 102.226 34.5459 103.096 38.1799C105.348 47.5529 113.117 55.2859 122.41 57.8229C131.704 60.3599 142.16 57.7589 149.408 51.4159C155.702 45.9139 159.615 37.5529 159.044 29.2069C158.816 25.8649 157.904 22.5859 156.521 19.5359C150.606 6.4639 142.238 0.704904 126.765 1.1119C126.765 1.1119 119.004 0.811905 113.473 5.55891Z" fill="black"/>
<path d="M77.623 32.856C77.145 35.144 75.114 36.591 75.114 36.591C71.258 39.727 68.001 39.905 63.931 37.746C62.983 37.24 62.107 36.584 61.394 35.779C59.954 34.146 59.27 31.944 59.334 29.763C59.349 29.25 59.391 28.744 59.491 28.238C60.09 25.202 62.242 22.493 65.1 21.31C67.965 20.134 71.458 20.576 73.867 22.515C74.8 23.27 75.563 24.211 76.269 25.18C76.981 26.164 77.658 27.205 77.958 28.38C78.072 28.837 78.107 29.293 78.1 29.756C78.086 30.782 77.844 31.83 77.63 32.849M97.928 29.756C97.665 22.893 95.028 16.093 90.495 10.904C84.9 4.53299 76.425 0.569989 67.965 1.13999C64.58 1.36799 61.252 2.29499 58.158 3.69899C46.113 9.15099 40.212 16.67 39.542 29.763C39.471 31.082 39.442 32.436 39.478 33.876C39.478 33.876 39.171 41.751 43.982 47.353C47.09 50.974 50.14 54.88 54.516 56.783C58.03 58.315 61.943 58.629 65.777 58.735C69.562 58.842 73.382 58.757 77.06 57.873C86.56 55.592 94.4 47.71 96.98 38.287C97.736 35.508 98.035 32.628 97.921 29.763" fill="black"/>
<path d="M279.188 37.7958V43.5898C279.188 44.5308 279.737 45.3928 280.443 45.3928H282.56C283.971 45.3928 284.983 45.0798 285.453 44.3738C286.002 43.8248 286.237 42.4918 286.237 40.6958C286.237 37.0188 285.14 35.9208 282.56 35.9208H280.443C279.737 35.9208 279.188 36.7048 279.188 37.8028M279.188 16.0428V21.6808C279.188 22.6998 279.737 23.4838 280.443 23.4838H282.403C284.826 23.4838 285.767 22.0728 285.767 18.7088C285.767 15.3448 284.669 14.2468 282.324 14.2468H280.443C279.737 14.2468 279.188 15.0308 279.188 16.0498M267.293 1.08984H283.572C293.828 1.08984 298.91 5.78684 298.91 15.4158C298.91 19.3288 298.674 23.3988 296.793 26.6058C295.93 27.9388 296.166 30.2048 297.263 31.3028C299.843 33.8828 300 38.3438 300 42.4138C300 53.3688 294.598 58.7708 283.878 58.7708H267.286C265.796 58.7708 264.627 57.1248 264.627 55.0928V4.76784C264.627 2.72984 265.803 1.08984 267.286 1.08984" fill="black"/>
</svg>
