<svg width="300" height="101" viewBox="0 0 300 101" fill="none" xmlns="http://www.w3.org/2000/svg">
<path d="M0 47.713C0.134 47.64 0.211 47.529 0.234 47.375C0.261 47.172 0.284 46.968 0.322 46.769C0.51 45.794 0.898 44.9 1.435 44.067C1.88 43.377 2.414 42.759 3.005 42.191C3.953 41.278 5.019 40.525 6.151 39.858C7.656 38.975 9.241 38.273 10.879 37.678C12.667 37.026 14.498 36.515 16.351 36.089C17.568 35.809 18.792 35.587 20.02 35.372C20.361 35.31 20.707 35.264 21.052 35.214C21.16 35.199 21.244 35.141 21.302 35.053C21.413 34.881 21.52 34.708 21.632 34.535C24.387 30.176 28.01 26.737 32.53 24.247C35.09 22.835 37.81 21.849 40.673 21.265C41.594 21.077 42.523 20.939 43.463 20.847C44.871 20.705 46.28 20.67 47.692 20.72C54.411 20.954 60.635 23.587 65.352 27.62C70.225 31.784 73.449 36.983 75.037 43.192C75.114 43.488 75.13 43.803 75.298 44.067C75.536 44.225 75.774 44.382 76.016 44.536C77.321 45.345 78.579 46.22 79.754 47.214C80.567 47.901 81.335 48.638 82.029 49.444C82.62 50.127 83.15 50.852 83.591 51.639C84.075 52.498 84.443 53.404 84.62 54.382C84.88 55.829 84.746 57.23 84.155 58.581C83.841 59.298 83.43 59.951 82.943 60.561C82.39 61.251 81.761 61.862 81.074 62.414C79.988 63.293 78.806 64.018 77.562 64.651C75.901 65.499 74.166 66.167 72.39 66.727C72.098 66.82 71.799 66.892 71.511 66.992C71.012 67.161 71.108 67.046 70.793 67.503C70.655 67.706 70.517 67.909 70.371 68.105C67.052 72.714 62.784 76.137 57.531 78.313C55.693 79.073 53.797 79.633 51.836 79.99C50.911 80.159 49.979 80.278 49.043 80.37C47.611 80.512 46.18 80.496 44.752 80.435C44.1 80.408 43.448 80.331 42.799 80.247C41.356 80.066 39.936 79.775 38.539 79.376C34.03 78.09 30.07 75.838 26.632 72.664C24.253 70.465 22.296 67.94 20.738 65.104C20.4 64.49 20.561 64.594 19.859 64.352C17.387 63.489 14.962 62.51 12.614 61.347C10.522 60.311 8.504 59.149 6.623 57.763C5.568 56.988 4.567 56.144 3.653 55.204C2.924 54.455 2.26 53.653 1.696 52.771C1.167 51.938 0.741 51.059 0.48 50.104C0.384 49.747 0.295 49.39 0.261 49.025C0.253 48.945 0.242 48.86 0.223 48.784C0.196 48.676 0.119 48.611 0.012 48.588V47.728L0 47.713ZM50.98 65.058V65.035H52.884C54.173 65.043 55.459 64.932 56.748 64.874C56.79 64.874 56.829 64.87 56.871 64.866C57.907 64.755 58.947 64.69 59.983 64.555C60.854 64.44 61.725 64.325 62.593 64.187C64.047 63.957 65.486 63.661 66.914 63.301C68.502 62.902 70.06 62.418 71.576 61.796C72.274 61.509 72.144 61.651 72.451 60.956C73.798 57.886 74.519 54.682 74.577 51.324C74.608 49.582 74.481 47.851 74.155 46.14C73.629 43.388 72.674 40.79 71.281 38.357C67.953 32.536 62.458 28.223 55.988 26.346C54.515 25.92 53.014 25.621 51.483 25.456C50.443 25.344 49.403 25.283 48.359 25.298C47.462 25.314 46.564 25.356 45.666 25.46C44.507 25.594 43.359 25.786 42.227 26.074C36.214 27.597 31.325 30.832 27.603 35.782C24.464 39.954 22.833 44.681 22.606 49.893C22.533 51.531 22.66 53.158 22.913 54.778C23.224 56.746 23.765 58.646 24.529 60.48C24.59 60.63 24.659 60.779 24.725 60.929C24.778 61.048 24.87 61.125 24.989 61.167C25.143 61.221 25.3 61.267 25.458 61.317C28.432 62.226 31.452 62.951 34.506 63.516C36.195 63.826 37.891 64.103 39.595 64.298C40.002 64.344 40.404 64.402 40.811 64.448C41.379 64.513 41.947 64.582 42.519 64.632C43.21 64.694 43.904 64.732 44.599 64.797C45.7 64.901 46.801 64.947 47.907 64.989C48.927 65.027 49.952 65.024 50.977 65.043L50.98 65.058ZM48.563 76.321C49.442 76.313 50.32 76.298 51.195 76.21C52.151 76.11 53.103 75.976 54.043 75.776C57.42 75.059 60.543 73.738 63.398 71.789C64.857 70.795 66.196 69.663 67.424 68.397C67.52 68.297 67.643 68.209 67.685 68.063C67.689 68.044 67.693 68.017 67.685 68.002C67.677 67.986 67.65 67.975 67.635 67.975C67.366 67.975 67.113 68.051 66.856 68.101C65.693 68.332 64.527 68.531 63.352 68.685C62.907 68.742 62.462 68.815 62.017 68.873C61.53 68.934 61.042 68.988 60.555 69.034C59.903 69.095 59.25 69.134 58.602 69.199C57.585 69.299 56.564 69.352 55.543 69.391C52.926 69.487 50.309 69.471 47.692 69.391C47.446 69.383 47.201 69.368 46.955 69.352C45.976 69.291 44.998 69.229 44.019 69.16C43.348 69.114 42.672 69.057 42.001 68.999C41.575 68.961 41.145 68.915 40.719 68.865C40.19 68.804 39.664 68.738 39.138 68.673C38.67 68.616 38.202 68.569 37.737 68.5C36.767 68.358 35.8 68.213 34.829 68.055C34.023 67.925 33.217 67.79 32.415 67.637C31.314 67.422 30.216 67.18 29.115 66.954C28.954 66.919 28.796 66.885 28.635 66.862C28.604 66.858 28.547 66.881 28.535 66.904C28.52 66.935 28.535 66.988 28.551 67.019C28.635 67.134 28.716 67.253 28.815 67.357C29.303 67.879 29.775 68.42 30.289 68.915C33.708 72.234 37.737 74.464 42.373 75.592C43.248 75.803 44.131 75.968 45.021 76.091C45.996 76.221 46.97 76.317 47.953 76.321H48.567H48.563ZM20.385 36.358C20.327 36.366 20.266 36.369 20.208 36.381C19.79 36.477 19.371 36.565 18.953 36.673C17.288 37.095 15.653 37.609 14.068 38.269C12.763 38.814 11.508 39.447 10.338 40.241C9.594 40.748 8.895 41.312 8.27 41.968C7.717 42.548 7.241 43.185 6.881 43.902C6.163 45.334 6.025 46.823 6.451 48.365C6.646 49.079 6.953 49.743 7.333 50.376C7.874 51.274 8.538 52.076 9.275 52.817C9.997 53.542 10.779 54.198 11.601 54.808C13.067 55.894 14.628 56.823 16.248 57.656C16.72 57.898 17.199 58.128 17.679 58.358C17.748 58.393 17.833 58.408 17.913 58.416C17.94 58.416 18.001 58.37 17.998 58.35C17.963 58.151 17.929 57.951 17.879 57.752C17.579 56.543 17.368 55.315 17.219 54.079C17.103 53.128 17.054 52.168 17.038 51.205C17.004 49.117 17.153 47.045 17.537 44.988C17.99 42.567 18.719 40.238 19.744 38C19.947 37.555 20.17 37.118 20.381 36.676C20.415 36.604 20.438 36.527 20.45 36.446C20.454 36.423 20.408 36.389 20.377 36.354L20.385 36.358ZM79.708 53.27C79.723 52.759 79.631 52.199 79.477 51.642C79.228 50.725 78.802 49.893 78.272 49.11C77.616 48.139 76.826 47.287 75.958 46.5C75.912 46.462 75.859 46.427 75.805 46.408C75.786 46.401 75.717 46.45 75.72 46.47C75.732 46.773 75.74 47.08 75.774 47.383C75.889 48.377 75.924 49.378 75.951 50.38C75.966 51.036 75.912 51.685 75.889 52.341C75.851 53.323 75.74 54.298 75.59 55.265C75.36 56.762 75.022 58.231 74.562 59.674C74.5 59.866 74.454 60.066 74.412 60.265C74.408 60.284 74.462 60.338 74.489 60.338C74.546 60.338 74.611 60.327 74.661 60.296C75.763 59.655 76.78 58.907 77.662 57.982C78.188 57.433 78.641 56.831 78.994 56.155C79.454 55.273 79.723 54.34 79.715 53.27H79.708Z" fill="black"/>
<path d="M129.042 84.1461C128.992 84.1111 128.95 84.0571 128.896 84.0421C128.719 83.9841 128.543 83.9381 128.366 83.8921C128.086 83.8191 127.825 83.7081 127.584 83.5511C127.05 83.2021 126.766 82.7031 126.728 82.0701C126.709 81.7431 126.743 81.4211 126.828 81.0991C126.908 80.7921 127.058 80.5351 127.284 80.3201C127.557 80.0631 127.864 79.8591 128.221 79.7521C128.531 79.6561 128.85 79.5751 129.168 79.5021C129.725 79.3761 130.285 79.2611 130.845 79.1341C131.026 79.0921 131.202 79.0381 131.375 78.9771C131.954 78.7771 132.415 78.4201 132.772 77.9251C133.125 77.4341 133.336 76.8851 133.459 76.2981C133.509 76.0521 133.47 75.8181 133.374 75.5801C132.895 74.3641 132.43 73.1441 131.958 71.9231C130.565 68.3241 129.168 64.7241 127.775 61.1211C127.687 60.8911 127.61 60.6601 127.53 60.4261C127.457 60.2111 127.438 59.9891 127.457 59.7631C127.472 59.5631 127.576 59.4131 127.745 59.3171C127.921 59.2141 128.117 59.1561 128.324 59.1331C129.241 59.0301 130.162 59.0101 131.079 59.1101C131.179 59.1221 131.283 59.1291 131.383 59.1521C131.655 59.2181 131.87 59.3601 131.989 59.6241C132.054 59.7741 132.116 59.9241 132.173 60.0771C132.887 62.1001 133.597 64.1261 134.307 66.1481C134.794 67.5371 135.285 68.9221 135.777 70.3081C135.819 70.4231 135.872 70.5341 135.922 70.6461C135.93 70.6611 135.957 70.6841 135.968 70.6801C136.003 70.6721 136.049 70.6571 136.06 70.6301C136.11 70.5191 136.16 70.4081 136.195 70.2891C136.928 67.9711 137.661 65.6531 138.394 63.3351C138.762 62.1651 139.142 61.0021 139.491 59.8281C139.618 59.3981 139.875 59.1791 140.309 59.1221C141.206 59.0031 142.104 59.0181 143.002 59.1371C143.164 59.1601 143.321 59.2101 143.471 59.2751C143.735 59.3941 143.893 59.5981 143.885 59.8971C143.881 60.0581 143.862 60.2231 143.824 60.3801C143.758 60.6371 143.674 60.8911 143.586 61.1401C141.87 66.1441 140.155 71.1481 138.436 76.1521C138.255 76.6741 138.079 77.1961 137.864 77.7031C137.242 79.1681 136.379 80.4731 135.22 81.5751C134.23 82.5191 133.102 83.2361 131.801 83.6811C131.394 83.8191 130.972 83.9001 130.554 84.0041C130.454 84.0271 130.354 84.0501 130.285 84.1341H129.057L129.042 84.1461Z" fill="black"/>
<path d="M158.318 31.5611C158.398 31.6951 158.525 31.7221 158.64 31.7611C158.912 31.8491 159.185 31.9301 159.457 32.0251C159.826 32.1561 160.171 32.3291 160.505 32.5321C161.23 32.9691 161.741 33.5911 162.044 34.3821C162.213 34.8231 162.335 35.2801 162.401 35.7441C162.474 36.2701 162.547 36.7951 162.543 37.3291C162.539 38.5761 162.55 39.8231 162.535 41.0701C162.524 42.0101 162.428 42.9471 162.178 43.8601C162.105 44.1361 162.013 44.4091 161.894 44.6661C161.407 45.7371 160.582 46.4201 159.442 46.7151C158.947 46.8461 158.44 46.9151 157.93 46.9681C156.483 47.1261 155.029 47.1181 153.578 47.1261C151.019 47.1411 148.463 47.1301 145.904 47.1261C145.719 47.1261 145.535 47.1181 145.351 47.1101C145.224 47.1031 145.136 47.0071 145.132 46.8651C145.128 46.6811 145.125 46.4961 145.125 46.3121V19.1431C145.125 18.9591 145.125 18.7751 145.136 18.5911C145.14 18.4561 145.228 18.3721 145.374 18.3641C145.539 18.3561 145.7 18.3531 145.865 18.3531C148.156 18.3531 150.447 18.3491 152.742 18.3531C153.479 18.3531 154.215 18.3681 154.952 18.4181C155.931 18.4831 156.902 18.6061 157.857 18.8671C159.703 19.3731 160.989 20.8661 161.449 22.2781C161.614 22.7851 161.737 23.2991 161.821 23.8251C161.959 24.6541 161.99 25.4941 162.009 26.3311C162.025 27.1061 161.982 27.8851 161.81 28.6491C161.752 28.9061 161.668 29.1591 161.576 29.4081C161.399 29.8801 161.088 30.2561 160.678 30.5481C160.424 30.7281 160.16 30.8741 159.88 31.0011C159.523 31.1581 159.162 31.2931 158.786 31.3961C158.628 31.4381 158.479 31.5001 158.322 31.5531L158.318 31.5611ZM152.581 38.1421V41.5081C152.581 41.6921 152.592 41.8721 152.6 42.0571C152.6 42.1331 152.684 42.2101 152.757 42.2141C153.126 42.2411 153.486 42.1791 153.847 42.1101C154.519 41.9841 154.883 41.5961 154.979 40.9281C155.033 40.5641 155.087 40.2031 155.087 39.8351V36.4691C155.087 36.3081 155.087 36.1431 155.067 35.9821C155.021 35.6601 154.971 35.3371 154.902 35.0191C154.826 34.6661 154.584 34.4621 154.25 34.3551C154.192 34.3361 154.131 34.3281 154.073 34.3091C153.74 34.1971 153.39 34.1941 153.045 34.1711C152.623 34.1401 152.588 34.1711 152.588 34.5931V38.1391L152.581 38.1421ZM152.581 26.4501V29.0251C152.581 29.1861 152.592 29.3511 152.6 29.5121C152.604 29.5891 152.684 29.6731 152.757 29.6731C153.083 29.6731 153.41 29.6811 153.736 29.6621C153.897 29.6541 154.058 29.6081 154.212 29.5541C154.538 29.4391 154.78 29.2321 154.86 28.8791C154.902 28.6981 154.941 28.5221 154.968 28.3381C155.098 27.3821 155.102 26.4231 155.067 25.4601C155.056 25.1331 154.998 24.8111 154.948 24.4891C154.91 24.2431 154.803 24.0211 154.661 23.8171C154.503 23.5911 154.296 23.4371 154.024 23.3681C153.601 23.2651 153.175 23.2531 152.746 23.2801C152.677 23.2841 152.6 23.3681 152.596 23.4451C152.588 23.6061 152.577 23.7711 152.577 23.9361V26.4501H152.581Z" fill="black"/>
<path d="M132.495 30.137V39.827C132.495 40.46 132.53 41.093 132.588 41.723C132.603 41.903 132.645 42.087 132.691 42.264C132.814 42.74 133.171 42.893 133.551 42.916C133.758 42.928 133.954 42.862 134.138 42.77C134.268 42.701 134.372 42.598 134.43 42.467C134.495 42.317 134.556 42.164 134.579 42.003C134.633 41.619 134.675 41.231 134.694 40.844C134.717 40.376 134.714 39.904 134.714 39.436V19.324C134.714 18.257 134.575 18.372 135.654 18.368C137.534 18.364 139.418 18.368 141.299 18.368C141.483 18.368 141.667 18.368 141.851 18.376C142.078 18.383 142.154 18.456 142.158 18.663C142.162 18.805 142.162 18.951 142.162 19.093V38.039C142.162 38.549 142.162 39.059 142.143 39.57C142.112 40.284 142.078 40.997 142.016 41.711C141.951 42.494 141.713 43.227 141.337 43.922C140.401 45.648 138.981 46.769 137.104 47.322C136.318 47.552 135.512 47.69 134.691 47.717C134.034 47.74 133.382 47.747 132.726 47.698C131.218 47.586 129.782 47.21 128.462 46.466C128.178 46.305 127.898 46.128 127.637 45.936C126.363 44.992 125.6 43.718 125.285 42.179C125.193 41.723 125.154 41.247 125.143 40.779C125.097 39.163 125.043 37.551 125.039 35.936C125.028 30.375 125.035 24.819 125.035 19.258C125.035 19.036 125.043 18.809 125.055 18.587C125.059 18.487 125.151 18.395 125.25 18.383C125.331 18.376 125.412 18.364 125.496 18.364H132.062C132.162 18.364 132.265 18.383 132.365 18.406C132.4 18.414 132.434 18.456 132.449 18.487C132.472 18.545 132.484 18.606 132.484 18.667C132.492 18.871 132.492 19.074 132.492 19.281V30.134L132.495 30.137Z" fill="black"/>
<path d="M247.059 32.7552V19.2662C247.059 18.2842 246.943 18.3682 247.934 18.3642H252.535C252.738 18.3642 252.945 18.3722 253.149 18.3832C253.233 18.3872 253.302 18.4452 253.337 18.5252C253.402 18.6942 253.463 18.8712 253.521 19.0432C254.749 22.8312 255.977 26.6182 257.205 30.4062C257.255 30.5602 257.308 30.7172 257.37 30.8672C257.377 30.8862 257.431 30.8932 257.466 30.8972C257.481 30.8972 257.504 30.8782 257.508 30.8632C257.523 30.8052 257.539 30.7442 257.539 30.6822C257.542 30.4792 257.542 30.2722 257.542 30.0682V19.2772C257.542 19.0512 257.55 18.8282 257.562 18.6022C257.566 18.4792 257.673 18.3802 257.803 18.3722C257.945 18.3642 258.091 18.3562 258.233 18.3562H263.08C263.241 18.3562 263.406 18.3722 263.567 18.3832C263.64 18.3872 263.725 18.4722 263.732 18.5412C263.744 18.6212 263.755 18.7022 263.759 18.7822C263.763 18.9472 263.759 19.1092 263.759 19.2742V46.1892C263.759 46.3742 263.759 46.5582 263.755 46.7422C263.748 47.0412 263.682 47.1102 263.402 47.1222C263.279 47.1262 263.157 47.1262 263.034 47.1262H257.88C257.715 47.1262 257.554 47.1182 257.389 47.1072C257.301 47.0992 257.232 47.0532 257.201 46.9722C257.136 46.8002 257.074 46.6272 257.024 46.4502C256.518 44.7472 256.015 43.0432 255.505 41.3432C254.856 39.1712 254.208 36.9992 253.559 34.8272C253.517 34.6922 253.456 34.5622 253.402 34.4322C253.398 34.4202 253.367 34.4162 253.348 34.4202C253.333 34.4202 253.31 34.4392 253.31 34.4512C253.298 34.6122 253.279 34.7772 253.279 34.9382V46.2822C253.279 46.4852 253.279 46.6882 253.268 46.8962C253.264 47.0342 253.179 47.1102 253.03 47.1182C252.888 47.1262 252.742 47.1302 252.6 47.1302H247.508C247.089 47.1182 247.062 47.0872 247.055 46.6652V32.7472L247.059 32.7552Z" fill="black"/>
<path d="M174.343 18.364H183.86C184.063 18.364 184.266 18.38 184.47 18.391C184.547 18.395 184.62 18.472 184.635 18.548C184.719 19.074 184.808 19.596 184.888 20.122C184.996 20.828 185.099 21.534 185.207 22.24C185.306 22.908 185.406 23.572 185.502 24.239C185.602 24.926 185.706 25.613 185.805 26.3C185.909 26.987 186.013 27.674 186.116 28.361C186.266 29.351 186.412 30.341 186.561 31.331C186.657 31.976 186.753 32.624 186.849 33.269C186.999 34.278 187.152 35.287 187.302 36.297C187.444 37.244 187.578 38.196 187.72 39.144C187.816 39.789 187.912 40.437 188.008 41.082C188.158 42.091 188.311 43.1 188.461 44.11C188.564 44.796 188.672 45.483 188.772 46.17C188.806 46.412 188.833 46.658 188.86 46.899C188.875 47.038 188.795 47.118 188.641 47.122C188.499 47.13 188.353 47.13 188.211 47.13H182.014C181.849 47.13 181.688 47.126 181.523 47.118C181.354 47.11 181.269 47.022 181.258 46.846C181.22 46.358 181.177 45.867 181.147 45.38C181.089 44.543 181.039 43.707 180.978 42.874C180.959 42.628 180.928 42.387 180.897 42.145C180.882 42.034 180.801 41.968 180.686 41.961C180.606 41.957 180.521 41.949 180.441 41.949H178.66C178.556 41.949 178.457 41.961 178.353 41.968C178.257 41.976 178.169 42.072 178.153 42.172C178.153 42.191 178.146 42.214 178.146 42.233C178.1 42.763 178.054 43.292 178.008 43.822C177.946 44.536 177.881 45.245 177.82 45.959C177.8 46.182 177.785 46.408 177.766 46.631C177.758 46.731 177.747 46.834 177.731 46.934C177.72 47.007 177.643 47.091 177.574 47.103C177.474 47.118 177.371 47.133 177.271 47.133C176.964 47.137 176.657 47.133 176.35 47.133H170.828C170.624 47.133 170.421 47.118 170.218 47.107C170.141 47.103 170.06 47.018 170.06 46.949C170.064 46.788 170.06 46.623 170.083 46.462C170.183 45.714 170.29 44.965 170.39 44.217C170.49 43.469 170.582 42.717 170.682 41.968C170.782 41.201 170.889 40.429 170.989 39.662C171.089 38.914 171.188 38.165 171.288 37.413C171.396 36.604 171.503 35.794 171.611 34.984C171.71 34.236 171.806 33.488 171.906 32.735C172.01 31.945 172.117 31.158 172.221 30.368C172.321 29.6 172.42 28.829 172.524 28.061C172.624 27.313 172.72 26.565 172.819 25.813C172.923 25.022 173.03 24.235 173.134 23.445C173.238 22.654 173.345 21.868 173.449 21.077C173.545 20.348 173.641 19.619 173.737 18.89C173.748 18.809 173.752 18.729 173.763 18.648C173.794 18.441 173.882 18.38 174.097 18.368C174.178 18.364 174.262 18.364 174.343 18.364ZM179.385 36.907C179.692 36.907 179.999 36.907 180.306 36.903C180.387 36.903 180.467 36.88 180.54 36.853C180.571 36.841 180.606 36.803 180.617 36.769C180.636 36.711 180.652 36.65 180.644 36.592C180.613 36.247 180.571 35.901 180.536 35.556C180.437 34.581 180.341 33.606 180.245 32.632C180.191 32.083 180.141 31.534 180.087 30.986C180.026 30.337 179.957 29.685 179.899 29.036C179.838 28.345 179.792 27.651 179.734 26.96C179.696 26.492 179.658 26.024 179.615 25.556C179.608 25.475 179.581 25.398 179.558 25.321C179.558 25.318 179.516 25.318 179.5 25.321C179.416 25.36 179.401 25.44 179.393 25.521C179.266 26.45 179.14 27.382 179.021 28.311C178.875 29.466 178.737 30.621 178.602 31.776C178.453 33.073 178.307 34.37 178.169 35.671C178.134 35.997 178.127 36.323 178.115 36.65C178.111 36.784 178.203 36.876 178.341 36.888C178.403 36.891 178.464 36.899 178.526 36.899H179.385V36.907Z" fill="black"/>
<path d="M241.867 47.133H238.674C238.102 47.133 238.102 47.13 238.064 46.562C237.987 45.399 237.899 44.236 237.814 43.077C237.803 42.935 237.787 42.793 237.772 42.651C237.695 41.899 237.795 41.953 236.97 41.953H235.435C235.354 41.953 235.27 41.961 235.189 41.968C235.09 41.976 234.998 42.06 234.986 42.164C234.948 42.49 234.909 42.813 234.879 43.139C234.798 44.033 234.721 44.931 234.644 45.825C234.621 46.109 234.61 46.397 234.583 46.681C234.575 46.78 234.552 46.884 234.518 46.976C234.499 47.026 234.445 47.084 234.395 47.095C234.299 47.122 234.195 47.13 234.092 47.13C233.681 47.133 233.274 47.13 232.864 47.13H227.645C227.442 47.13 227.234 47.122 227.031 47.114C226.924 47.11 226.847 47.018 226.858 46.907C226.931 46.297 227.004 45.691 227.085 45.08C227.188 44.29 227.296 43.499 227.399 42.713C227.499 41.964 227.595 41.212 227.695 40.464C227.802 39.654 227.91 38.845 228.017 38.035C228.121 37.264 228.224 36.496 228.328 35.725C228.428 34.976 228.528 34.224 228.624 33.476C228.719 32.728 228.815 31.976 228.915 31.227C229.023 30.398 229.138 29.566 229.249 28.737C229.353 27.965 229.456 27.198 229.56 26.43C229.66 25.682 229.756 24.93 229.855 24.182C229.959 23.391 230.066 22.601 230.17 21.814C230.27 21.066 230.366 20.314 230.465 19.565C230.508 19.243 230.554 18.917 230.6 18.594C230.619 18.464 230.707 18.383 230.853 18.376C231.018 18.368 231.179 18.364 231.344 18.364H240.738C240.923 18.364 241.107 18.38 241.287 18.391C241.36 18.395 241.444 18.475 241.456 18.548C241.502 18.809 241.548 19.07 241.59 19.335C241.794 20.69 241.997 22.04 242.197 23.395C242.377 24.627 242.553 25.863 242.738 27.094C242.922 28.326 243.114 29.558 243.298 30.79C243.482 32.022 243.655 33.257 243.839 34.489C243.981 35.437 244.131 36.389 244.273 37.336C244.415 38.284 244.549 39.236 244.691 40.188C244.837 41.159 244.986 42.126 245.132 43.096C245.228 43.722 245.316 44.351 245.412 44.977C245.481 45.441 245.554 45.905 245.62 46.37C245.646 46.55 245.658 46.734 245.673 46.919C245.681 47.022 245.597 47.11 245.485 47.118C245.301 47.13 245.117 47.137 244.933 47.137H241.863L241.867 47.133ZM236.195 36.903H237.116C237.196 36.903 237.281 36.895 237.354 36.864C237.4 36.845 237.453 36.78 237.461 36.734C237.476 36.615 237.473 36.488 237.461 36.369C237.415 35.901 237.361 35.437 237.308 34.969C237.246 34.401 237.177 33.833 237.12 33.265C237.058 32.655 237.008 32.045 236.955 31.434C236.909 30.947 236.863 30.46 236.816 29.969C236.751 29.259 236.682 28.545 236.621 27.835C236.563 27.144 236.513 26.45 236.46 25.759C236.452 25.659 236.433 25.556 236.414 25.456C236.406 25.417 236.383 25.383 236.36 25.348C236.348 25.333 236.325 25.325 236.306 25.325C236.295 25.325 236.272 25.344 236.268 25.356C236.249 25.414 236.229 25.471 236.222 25.532C236.087 26.565 235.949 27.597 235.819 28.629C235.654 29.926 235.496 31.223 235.339 32.52C235.281 32.985 235.228 33.453 235.178 33.921C235.113 34.508 235.055 35.099 234.998 35.69C234.971 35.974 234.951 36.262 234.928 36.546C234.925 36.607 234.928 36.669 234.928 36.73C234.928 36.792 235.024 36.884 235.093 36.891C235.174 36.899 235.255 36.911 235.335 36.914H236.195V36.903Z" fill="black"/>
<path d="M90.867 32.3941V26.9981C90.867 26.0771 90.921 25.1601 91.013 24.2431C91.216 22.2171 92.168 20.6051 93.803 19.4041C94.72 18.7291 95.76 18.3101 96.865 18.0461C97.847 17.8121 98.845 17.7461 99.85 17.7661C100.526 17.7771 101.197 17.8121 101.865 17.9231C103.17 18.1421 104.398 18.5681 105.495 19.3201C105.595 19.3891 105.695 19.4621 105.795 19.5351C107.057 20.4561 107.844 21.6801 108.139 23.2151C108.266 23.8791 108.358 24.5421 108.419 25.2141C108.519 26.2541 108.527 27.2941 108.527 28.3381V30.1761C108.527 30.3411 108.527 30.5021 108.519 30.6671C108.515 30.8011 108.427 30.8781 108.277 30.8821C108.112 30.8861 107.951 30.8861 107.786 30.8861H101.708C101.546 30.8861 101.381 30.8781 101.22 30.8591C101.174 30.8511 101.105 30.7901 101.101 30.7441C101.082 30.5631 101.074 30.3791 101.074 30.1951V25.7821C101.074 25.3941 101.074 25.0031 101.055 24.6191C101.036 24.2551 100.986 23.8861 100.94 23.5221C100.925 23.4031 100.883 23.2841 100.837 23.1691C100.744 22.9271 100.56 22.7701 100.319 22.6771C99.916 22.5281 99.516 22.5471 99.117 22.6931C98.876 22.7811 98.699 22.9461 98.595 23.1841C98.538 23.3141 98.488 23.4531 98.465 23.5911C98.411 23.9551 98.358 24.3201 98.338 24.6841C98.312 25.1761 98.312 25.6631 98.312 26.1541V39.4591C98.312 39.9081 98.327 40.3571 98.331 40.8061C98.331 41.1741 98.4 41.5381 98.461 41.8991C98.48 42.0181 98.523 42.1371 98.565 42.2481C98.672 42.5361 98.879 42.7201 99.167 42.8201C99.509 42.9391 99.847 42.9431 100.192 42.8281C100.484 42.7321 100.691 42.5481 100.802 42.2681C100.863 42.1181 100.909 41.9571 100.932 41.7961C100.994 41.3701 101.059 40.9481 101.059 40.5141C101.059 40.1451 101.071 39.7771 101.071 39.4091V36.4041C101.071 36.2201 101.078 36.0361 101.086 35.8511C101.086 35.7551 101.186 35.6631 101.286 35.6521C101.347 35.6441 101.408 35.6361 101.47 35.6361C101.593 35.6361 101.715 35.6331 101.838 35.6331H107.79C107.974 35.6331 108.158 35.6481 108.339 35.6601C108.412 35.6631 108.5 35.7481 108.504 35.8171C108.511 35.9171 108.523 36.0201 108.523 36.1241C108.515 37.0221 108.531 37.9241 108.492 38.8221C108.446 39.9231 108.373 41.0241 108.147 42.1101C108.07 42.4711 107.982 42.8281 107.859 43.1731C107.59 43.9371 107.138 44.5931 106.566 45.1611C105.422 46.3011 104.068 47.0641 102.498 47.4331C101.819 47.5941 101.136 47.7051 100.434 47.7051C99.777 47.7051 99.121 47.7211 98.473 47.6781C97.344 47.6051 96.247 47.3791 95.196 46.9451C94.566 46.6881 93.983 46.3581 93.446 45.9401C92.498 45.2031 91.842 44.2631 91.492 43.1121C91.32 42.5441 91.201 41.9641 91.116 41.3771C90.905 39.9381 90.852 38.4921 90.852 37.0371V32.3791H90.863L90.867 32.3941Z" fill="black"/>
<path d="M284.197 30.8631C284.09 30.8701 283.971 30.8861 283.848 30.8861H277.344C277.24 30.8861 277.14 30.8781 277.037 30.8701C276.964 30.8671 276.887 30.7901 276.883 30.7091C276.876 30.6091 276.864 30.5061 276.864 30.4021V29.6041C276.864 28.2531 276.868 26.9061 276.853 25.5561C276.845 24.9841 276.803 24.4121 276.757 23.8441C276.737 23.6211 276.684 23.3991 276.615 23.1881C276.534 22.9421 276.354 22.7771 276.112 22.6851C275.69 22.5241 275.268 22.5391 274.853 22.7081C274.573 22.8231 274.385 23.0461 274.304 23.3341C274.239 23.5681 274.182 23.8091 274.162 24.0551C274.105 24.7461 274.059 25.4401 274.059 26.1351V39.4431C274.059 40.1191 274.105 40.7901 274.162 41.4621C274.182 41.6841 274.228 41.9071 274.289 42.1221C274.397 42.5061 274.646 42.7511 275.041 42.8511C275.325 42.9241 275.602 42.9281 275.889 42.8511C276.285 42.7431 276.526 42.4941 276.634 42.1101C276.707 41.8571 276.753 41.5921 276.776 41.3271C276.837 40.5101 276.876 39.6971 276.872 38.8791V36.2431C276.872 36.1011 276.879 35.9551 276.902 35.8171C276.91 35.7671 276.968 35.7171 277.014 35.6901C277.064 35.6631 277.133 35.6561 277.19 35.6521C277.355 35.6441 277.516 35.6441 277.681 35.6441H283.514C283.718 35.6441 283.921 35.6601 284.128 35.6711C284.186 35.6711 284.289 35.7781 284.297 35.8321C284.305 35.9321 284.32 36.0361 284.32 36.1351C284.347 37.4441 284.289 38.7531 284.205 40.0571C284.151 40.8521 284.044 41.6421 283.871 42.4211C283.637 43.4691 283.146 44.3671 282.394 45.1301C281.243 46.2931 279.873 47.0681 278.28 47.4441C277.601 47.6051 276.918 47.7171 276.216 47.7171C275.559 47.7171 274.903 47.7321 274.251 47.6901C273.146 47.6171 272.063 47.3981 271.031 46.9761C270.191 46.6351 269.423 46.1741 268.763 45.5491C268.084 44.9001 267.604 44.1291 267.313 43.2351C267.167 42.7861 267.056 42.3291 266.979 41.8691C266.837 41.0201 266.737 40.1691 266.695 39.3131C266.633 38.0271 266.61 36.7381 266.614 35.4521C266.618 33.1421 266.614 30.8321 266.614 28.5221C266.614 27.3361 266.668 26.1501 266.726 24.9681C266.749 24.5001 266.795 24.0281 266.887 23.5681C267.224 21.8951 268.088 20.5441 269.439 19.5081C270.244 18.8901 271.15 18.4721 272.121 18.1881C272.908 17.9571 273.713 17.8191 274.535 17.7851C275.271 17.7541 276.008 17.7541 276.741 17.8151C277.827 17.9041 278.883 18.1381 279.888 18.5641C280.625 18.8781 281.3 19.2971 281.918 19.8111C282.873 20.6091 283.522 21.6031 283.817 22.8161C283.948 23.3531 284.048 23.8941 284.113 24.4431C284.263 25.7441 284.32 27.0481 284.316 28.3571V30.4411C284.316 30.5831 284.328 30.7281 284.205 30.8631H284.197Z" fill="black"/>
<path d="M287.052 32.697V18.717C287.06 18.429 287.118 18.376 287.425 18.364C287.59 18.36 287.751 18.36 287.916 18.36H298.595C299.57 18.36 299.501 18.28 299.501 19.243V23.353C299.501 24.082 299.513 24.07 298.799 24.074H295.299C295.096 24.074 294.892 24.09 294.689 24.101C294.62 24.101 294.528 24.197 294.52 24.258C294.512 24.339 294.501 24.42 294.501 24.5V29.159C294.501 29.259 294.516 29.362 294.535 29.462C294.543 29.497 294.582 29.535 294.616 29.546C294.674 29.569 294.735 29.577 294.796 29.577C294.961 29.581 295.123 29.581 295.288 29.581H298.542C298.707 29.581 298.868 29.585 299.029 29.608C299.075 29.616 299.129 29.673 299.152 29.723C299.179 29.777 299.179 29.842 299.179 29.903V34.685C299.179 34.727 299.179 34.765 299.171 34.808C299.163 34.938 299.071 35.023 298.929 35.026C298.764 35.034 298.603 35.034 298.438 35.034H295.307C295.123 35.034 294.938 35.034 294.754 35.042C294.578 35.049 294.509 35.122 294.501 35.314C294.497 35.437 294.493 35.56 294.493 35.683V41.017C294.501 41.347 294.555 41.4 294.889 41.412C295.073 41.416 295.257 41.412 295.441 41.412H299.248C299.432 41.412 299.616 41.423 299.8 41.431C299.862 41.431 299.965 41.531 299.973 41.585C299.985 41.684 300 41.788 300 41.888V46.669C300 46.731 299.996 46.792 299.992 46.853C299.981 47.018 299.893 47.103 299.712 47.11C299.547 47.118 299.386 47.118 299.221 47.118H287.805C286.98 47.118 287.037 47.168 287.037 46.354V32.682L287.052 32.697Z" fill="black"/>
<path d="M204.118 32.743V19.251C204.118 19.028 204.129 18.802 204.141 18.579C204.144 18.475 204.237 18.391 204.34 18.383C204.482 18.372 204.624 18.364 204.77 18.364H210.91C211.071 18.364 211.236 18.38 211.397 18.395C211.466 18.399 211.543 18.487 211.551 18.564C211.558 18.644 211.57 18.725 211.57 18.805V40.456C211.57 40.702 211.578 40.948 211.585 41.193C211.585 41.293 211.685 41.397 211.777 41.4C211.961 41.412 212.146 41.423 212.326 41.423H215.334C215.519 41.423 215.703 41.423 215.887 41.435C216.044 41.446 216.129 41.5 216.144 41.715C216.152 41.819 216.152 41.918 216.152 42.022V46.562C216.152 46.665 216.152 46.765 216.14 46.869C216.129 47.038 216.041 47.122 215.86 47.13C215.695 47.137 215.534 47.137 215.369 47.137H204.87C204.705 47.137 204.544 47.137 204.379 47.126C204.214 47.118 204.121 47.026 204.118 46.85C204.11 46.646 204.11 46.439 204.11 46.236V32.743H204.118Z" fill="black"/>
<path d="M190.238 32.77V19.22C190.238 18.997 190.253 18.771 190.261 18.548C190.261 18.487 190.364 18.391 190.426 18.387C190.548 18.38 190.671 18.368 190.794 18.364H197.114C197.218 18.364 197.318 18.368 197.421 18.376C197.598 18.387 197.675 18.468 197.682 18.648C197.69 18.875 197.69 19.097 197.69 19.324V40.476C197.69 40.702 197.69 40.924 197.701 41.151C197.705 41.316 197.801 41.408 197.974 41.416C198.158 41.423 198.342 41.427 198.526 41.427H201.474C201.658 41.427 201.842 41.435 202.026 41.446C202.153 41.454 202.245 41.554 202.253 41.692C202.26 41.853 202.268 42.018 202.268 42.183V46.412C202.268 46.577 202.26 46.738 202.249 46.903C202.241 47.026 202.137 47.122 202.003 47.13C201.838 47.137 201.677 47.141 201.512 47.141H190.955C190.203 47.141 190.234 47.16 190.234 46.385V32.774L190.238 32.77Z" fill="black"/>
<path d="M111.271 32.7622V18.7822C111.278 18.4222 111.324 18.3762 111.708 18.3682H117.844C118.048 18.3682 118.255 18.3682 118.458 18.3802C118.635 18.3872 118.711 18.4722 118.715 18.6522C118.723 18.8782 118.723 19.1012 118.723 19.3272V40.4792C118.723 40.7062 118.723 40.9282 118.731 41.1552C118.738 41.3122 118.792 41.4042 119.003 41.4162C119.187 41.4272 119.371 41.4272 119.556 41.4272H122.564C123.309 41.4272 123.278 41.3972 123.278 42.1222V46.4732C123.278 46.5962 123.278 46.7192 123.27 46.8422C123.263 47.0492 123.186 47.1182 122.959 47.1302C122.879 47.1332 122.794 47.1332 122.714 47.1372H112.157C111.148 47.1372 111.267 47.2142 111.267 46.2552V32.7662L111.271 32.7622Z" fill="black"/>
<path d="M165.712 69.8171C165.344 70.1581 165.144 70.5691 165.144 71.0641C165.144 71.4131 165.309 71.6931 165.59 71.8971C165.912 72.1311 166.28 72.2461 166.679 72.2691C167.355 72.3031 168.026 72.3381 168.702 72.3651C169.051 72.3801 169.396 72.3921 169.746 72.3881C170.421 72.3881 171.096 72.4381 171.768 72.5141C172.501 72.5991 173.215 72.7791 173.89 73.0821C174.17 73.2091 174.439 73.3591 174.688 73.5351C175.717 74.2681 176.273 75.2771 176.4 76.5211C176.465 77.1771 176.411 77.8251 176.223 78.4621C175.932 79.4331 175.387 80.2281 174.608 80.8681C174.162 81.2371 173.671 81.5321 173.149 81.7661C172.286 82.1541 171.384 82.4001 170.448 82.5451C169.573 82.6801 168.698 82.6991 167.815 82.6911C167.405 82.6911 166.998 82.6801 166.587 82.6531C165.544 82.5881 164.519 82.4111 163.529 82.0581C163.161 81.9281 162.807 81.7701 162.47 81.5781C162.186 81.4131 161.917 81.2251 161.679 81.0031C161 80.3731 160.662 79.5871 160.609 78.6701C160.54 77.5531 160.893 76.5781 161.591 75.7191C161.863 75.3851 162.17 75.0851 162.5 74.8091C162.608 74.7171 162.738 74.6481 162.792 74.5101C162.723 74.3371 162.558 74.2831 162.431 74.1841C161.952 73.8041 161.618 73.3281 161.43 72.7481C161.342 72.4721 161.307 72.1881 161.303 71.9041C161.288 71.1751 161.445 70.4841 161.821 69.8511C162.063 69.4441 162.343 69.0681 162.665 68.7231C162.75 68.6351 162.838 68.5461 162.907 68.4471C162.934 68.4081 162.938 68.3201 162.911 68.2781C162.834 68.1591 162.738 68.0511 162.65 67.9361C162.105 67.2191 161.787 66.4201 161.695 65.5191C161.614 64.7171 161.641 63.9261 161.829 63.1431C162.19 61.6541 163.045 60.5301 164.365 59.7591C164.972 59.4061 165.624 59.1681 166.307 59.0221C167.113 58.8491 167.927 58.8031 168.748 58.8451C169.404 58.8761 170.053 58.9451 170.69 59.0991C170.904 59.1521 171.135 59.1491 171.361 59.1521C172.731 59.1561 174.105 59.1521 175.475 59.1521C175.64 59.1521 175.801 59.1521 175.966 59.1601C176.143 59.1721 176.281 59.2601 176.369 59.4061C176.442 59.5281 176.507 59.6591 176.538 59.7971C176.688 60.4651 176.699 61.1361 176.542 61.8041C176.503 61.9611 176.43 62.1111 176.354 62.2531C176.269 62.4031 176.123 62.4911 175.951 62.4991C175.625 62.5101 175.295 62.5061 174.968 62.5101C174.765 62.5101 174.562 62.5221 174.358 62.5331C174.278 62.5371 174.232 62.6411 174.274 62.7171C174.324 62.8061 174.374 62.8941 174.427 62.9821C174.669 63.3971 174.784 63.8531 174.815 64.3251C174.869 65.1081 174.776 65.8791 174.535 66.6241C174.082 68.0211 173.176 69.0261 171.852 69.6591C171.185 69.9821 170.479 70.1771 169.746 70.2811C169.3 70.3421 168.851 70.3851 168.402 70.3921C167.551 70.4041 166.737 70.2541 165.958 69.9011C165.885 69.8671 165.805 69.8471 165.72 69.8171H165.712ZM168.145 75.5571V75.5421C167.635 75.5271 167.125 75.5151 166.614 75.4961C166.468 75.4921 166.33 75.5081 166.207 75.6001C165.758 75.9341 165.382 76.3331 165.118 76.8241C165.041 76.9661 164.976 77.1191 164.941 77.2771C164.738 78.1711 164.991 78.8311 165.847 79.2531C166.234 79.4451 166.653 79.5521 167.075 79.6101C167.869 79.7171 168.663 79.7401 169.458 79.6171C170.03 79.5291 170.571 79.3571 171.054 79.0341C171.66 78.6271 171.964 78.0481 171.979 77.3301C171.99 76.7851 171.779 76.3361 171.307 76.0331C171.031 75.8531 170.724 75.7381 170.402 75.6761C170.041 75.6071 169.677 75.5541 169.308 75.5571C168.921 75.5651 168.533 75.5571 168.145 75.5571ZM168.145 61.8881C168.049 61.8961 167.927 61.8961 167.804 61.9111C166.795 62.0191 166.092 62.5411 165.732 63.4891C165.494 64.1141 165.444 64.7591 165.597 65.4151C165.82 66.3631 166.403 66.9581 167.332 67.2111C167.85 67.3531 168.376 67.3681 168.913 67.2531C169.757 67.0691 170.356 66.6011 170.69 65.8101C171.012 65.0431 171.02 64.2561 170.751 63.4731C170.509 62.7751 170.022 62.3071 169.323 62.0531C168.951 61.9191 168.564 61.8961 168.149 61.8881H168.145Z" fill="black"/>
<path d="M225.473 32.7742V46.1362C225.473 46.3622 225.473 46.5852 225.461 46.8112C225.454 47.0302 225.369 47.1142 225.17 47.1262C225.028 47.1332 224.882 47.1372 224.74 47.1372H218.481C218.071 47.1262 218.032 47.0872 218.021 46.6732C218.017 46.5082 218.021 46.3472 218.021 46.1822V18.7822C218.032 18.4262 218.082 18.3802 218.466 18.3682H224.725C224.909 18.3682 225.093 18.3832 225.273 18.3992C225.342 18.4032 225.423 18.4872 225.435 18.5602C225.446 18.6402 225.461 18.7212 225.461 18.8022C225.465 19.0052 225.465 19.2082 225.465 19.4162V32.7782L225.473 32.7742Z" fill="black"/>
<path d="M126.724 67.445C126.728 68.201 126.697 68.957 126.57 69.705C126.432 70.515 126.225 71.302 125.895 72.054C125.009 74.08 123.504 75.435 121.413 76.133C120.772 76.348 120.112 76.478 119.437 76.544C118.888 76.597 118.335 76.643 117.783 76.624C116.881 76.594 115.987 76.501 115.112 76.271C114.555 76.125 114.022 75.918 113.515 75.653C112.199 74.963 111.244 73.934 110.63 72.587C110.269 71.801 110.054 70.972 109.916 70.124C109.728 68.969 109.716 67.802 109.801 66.639C109.878 65.595 110.1 64.579 110.488 63.604C111.393 61.321 113.04 59.851 115.384 59.152C116.209 58.907 117.057 58.776 117.925 58.769C118.374 58.769 118.827 58.757 119.275 58.78C120.154 58.826 121.022 58.968 121.862 59.241C123.903 59.901 125.296 61.24 126.06 63.235C126.317 63.907 126.475 64.602 126.586 65.311C126.697 66.021 126.724 66.735 126.728 67.449L126.724 67.445ZM122.177 67.652C122.192 67.184 122.134 66.655 122.077 66.125C122.027 65.695 121.943 65.277 121.816 64.866C121.693 64.456 121.517 64.06 121.275 63.704C120.699 62.855 119.897 62.383 118.88 62.291C118.535 62.261 118.186 62.257 117.84 62.284C116.631 62.368 115.711 62.932 115.104 63.991C114.839 64.456 114.659 64.955 114.544 65.476C114.398 66.137 114.329 66.804 114.314 67.483C114.302 68.036 114.352 68.585 114.41 69.134C114.456 69.583 114.548 70.02 114.678 70.454C114.793 70.845 114.955 71.221 115.173 71.57C115.576 72.219 116.14 72.672 116.877 72.894C117.572 73.105 118.278 73.144 118.999 73.021C120.081 72.837 120.887 72.28 121.424 71.332C121.67 70.903 121.835 70.442 121.943 69.962C122.108 69.222 122.188 68.474 122.18 67.648L122.177 67.652Z" fill="black"/>
<path d="M187.06 68.8042H182.762C182.578 68.8042 182.394 68.8112 182.21 68.8232C182.133 68.8232 182.056 68.9072 182.048 68.9842C182.048 69.0032 182.037 69.0222 182.037 69.0452C182.022 69.7282 182.129 70.3922 182.375 71.0252C182.808 72.1422 183.641 72.8062 184.781 73.1052C185.138 73.1972 185.498 73.2552 185.871 73.2662C186.527 73.2862 187.183 73.2972 187.831 73.2172C188.622 73.1212 189.401 72.9482 190.161 72.6912C190.491 72.5802 190.821 72.4682 191.143 72.3462C191.339 72.2732 191.535 72.2302 191.742 72.2232C191.984 72.2112 192.175 72.3612 192.225 72.6032C192.252 72.7222 192.264 72.8442 192.275 72.9672C192.321 73.5202 192.31 74.0692 192.26 74.6212C192.252 74.7022 192.245 74.7862 192.225 74.8632C192.149 75.1512 191.999 75.3892 191.719 75.5232C191.496 75.6272 191.27 75.7222 191.043 75.8112C190.545 76.0032 190.03 76.1332 189.512 76.2412C188.25 76.5092 186.972 76.6702 185.675 76.6322C184.608 76.6012 183.553 76.4902 182.528 76.1752C182.371 76.1252 182.213 76.0832 182.06 76.0262C180.164 75.3232 178.856 74.0342 178.157 72.1312C177.923 71.4942 177.77 70.8412 177.666 70.1742C177.474 68.9342 177.47 67.6872 177.57 66.4442C177.67 65.2352 177.958 64.0642 178.487 62.9672C179.497 60.8602 181.139 59.5362 183.418 59.0032C184.036 58.8572 184.666 58.7722 185.303 58.7722C185.978 58.7722 186.65 58.7802 187.321 58.8912C188.238 59.0412 189.105 59.3292 189.904 59.8092C191.051 60.4952 191.857 61.4702 192.375 62.6942C192.697 63.4542 192.885 64.2482 192.977 65.0622C193.054 65.7342 193.089 66.4052 193.077 67.0812C193.073 67.3492 193.05 67.6102 192.989 67.8712C192.87 68.4042 192.459 68.7572 191.907 68.8042C191.723 68.8192 191.538 68.8152 191.354 68.8152H187.056L187.06 68.8042ZM185.399 65.9752H188.096C188.257 65.9752 188.422 65.9602 188.584 65.9482C188.641 65.9482 188.741 65.8372 188.741 65.7802C188.733 65.4732 188.749 65.1662 188.714 64.8622C188.645 64.2482 188.461 63.6652 188.123 63.1392C187.778 62.6062 187.298 62.2452 186.692 62.0502C186.239 61.9002 185.771 61.8732 185.299 61.8962C185.057 61.9082 184.808 61.9272 184.573 61.9882C183.672 62.2262 183.019 62.7792 182.593 63.6002C182.259 64.2452 182.087 64.9322 182.052 65.6572C182.052 65.6992 182.056 65.7372 182.056 65.7802C182.056 65.8372 182.156 65.9452 182.213 65.9482C182.375 65.9562 182.54 65.9722 182.701 65.9722H185.399V65.9752Z" fill="black"/>
<path d="M158.667 69.751V75.1471C158.667 75.3501 158.659 75.5541 158.648 75.7571C158.636 75.9371 158.525 76.0561 158.368 76.1291C158.199 76.2061 158.026 76.2601 157.838 76.2751C157.163 76.3211 156.487 76.3211 155.816 76.2751C155.674 76.2671 155.536 76.2171 155.401 76.1791C155.152 76.1061 155.04 75.9221 155.021 75.6761C155.01 75.4921 155.017 75.3081 155.01 75.1241C155.002 74.9631 154.991 74.8011 154.979 74.6361C154.975 74.583 154.875 74.548 154.833 74.583C154.695 74.702 154.557 74.8241 154.419 74.9431C153.697 75.5651 152.899 76.0491 151.982 76.3251C151.073 76.6011 150.14 76.6891 149.192 76.5861C148.643 76.5241 148.099 76.4401 147.573 76.2671C146.805 76.0141 146.115 75.6301 145.539 75.0511C144.852 74.3601 144.457 73.524 144.292 72.572C144.173 71.881 144.165 71.19 144.28 70.5C144.464 69.36 144.99 68.424 145.904 67.71C146.356 67.353 146.863 67.088 147.4 66.877C147.991 66.643 148.605 66.4861 149.227 66.3711C150.297 66.1751 151.376 66.0981 152.462 66.1021H153.874C153.974 66.1021 154.077 66.0901 154.177 66.0641C154.227 66.0481 154.269 65.9911 154.3 65.9411C154.323 65.9101 154.327 65.864 154.327 65.822C154.354 65.227 154.346 64.6361 154.235 64.0491C154.189 63.8071 154.116 63.5731 154.008 63.3511C153.793 62.9091 153.471 62.5791 153.014 62.3951C152.788 62.3031 152.554 62.2181 152.312 62.1841C151.848 62.1191 151.38 62.0881 150.908 62.1071C149.848 62.1461 148.851 62.4261 147.887 62.8361C147.454 63.0211 147.039 63.243 146.613 63.443C146.448 63.519 146.28 63.6 146.103 63.6501C145.723 63.7531 145.458 63.6231 145.301 63.2781C145.243 63.1471 145.194 63.0091 145.167 62.8711C145.071 62.3261 145.032 61.7771 145.132 61.2251C145.194 60.8871 145.351 60.6071 145.612 60.3961C145.785 60.2581 145.98 60.1351 146.176 60.0271C146.66 59.7591 147.174 59.5551 147.699 59.3901C148.993 58.9801 150.313 58.7421 151.679 58.7531C152.396 58.7611 153.11 58.7801 153.82 58.8911C154.53 59.0031 155.221 59.1751 155.877 59.4751C157.078 60.0271 157.888 60.9211 158.291 62.1801C158.467 62.7291 158.586 63.2851 158.625 63.8571C158.655 64.3061 158.671 64.7551 158.675 65.2041C158.682 66.7161 158.675 68.2281 158.675 69.7401L158.667 69.751ZM152.746 68.861V68.8421C152.258 68.8691 151.767 68.888 151.28 68.93C150.873 68.965 150.474 69.0641 150.09 69.1991C149.86 69.2791 149.641 69.3911 149.438 69.5331C149.039 69.8091 148.766 70.1771 148.628 70.6461C148.54 70.9451 148.528 71.248 148.548 71.555C148.609 72.411 149.043 73.0061 149.845 73.3161C150.09 73.4121 150.351 73.466 150.62 73.485C151.491 73.554 152.278 73.328 152.984 72.821C153.383 72.534 153.743 72.2041 154.085 71.8541C154.25 71.6851 154.338 71.5011 154.334 71.2561C154.323 70.6031 154.331 69.9511 154.331 69.2991C154.331 69.2181 154.323 69.137 154.315 69.057C154.308 68.988 154.223 68.8991 154.158 68.8921C154.077 68.8801 153.997 68.8651 153.916 68.8651H152.753L152.746 68.861Z" fill="black"/>
<path d="M100.998 76.3131C100.53 76.3021 100.042 76.2901 99.551 76.2831C99.263 76.2791 98.979 76.2331 98.703 76.1711C98.622 76.1521 98.542 76.1371 98.465 76.1101C98.177 76.0141 97.966 75.8341 97.859 75.5461C97.786 75.3541 97.717 75.1621 97.651 74.9701C96.784 72.3531 95.917 69.7401 95.046 67.1231C94.409 65.2041 93.768 63.2851 93.131 61.3701C92.989 60.9441 92.855 60.5151 92.793 60.0661C92.782 59.9851 92.77 59.9051 92.766 59.8241C92.755 59.5481 92.878 59.3521 93.139 59.2561C93.269 59.2061 93.411 59.1641 93.549 59.1451C94.528 59.0101 95.506 59.0331 96.485 59.1521C96.504 59.1521 96.527 59.1561 96.546 59.1601C96.965 59.2251 97.252 59.4251 97.379 59.8581C97.602 60.6221 97.851 61.3781 98.085 62.1381C99.018 65.1391 99.95 68.1431 100.883 71.1441C100.932 71.3021 100.982 71.4551 101.036 71.6091C101.044 71.6361 101.09 71.6511 101.121 71.6621C101.132 71.6621 101.159 71.6431 101.167 71.6281C101.216 71.4941 101.27 71.3631 101.312 71.2251C102.448 67.5181 103.584 63.8071 104.72 60.1001C104.766 59.9431 104.812 59.7861 104.874 59.6361C104.946 59.4591 105.073 59.3251 105.261 59.2671C105.395 59.2211 105.534 59.1751 105.672 59.1561C106.608 59.0261 107.548 59.0221 108.485 59.1491C108.65 59.1721 108.803 59.2251 108.945 59.3101C109.056 59.3751 109.137 59.4671 109.152 59.5981C109.168 59.7391 109.179 59.8811 109.168 60.0231C109.133 60.4761 109.006 60.9061 108.864 61.3321C108.323 62.9591 107.782 64.5861 107.241 66.2131C106.27 69.1371 105.3 72.0651 104.325 74.9901C104.26 75.1811 104.19 75.3731 104.118 75.5651C104.002 75.8801 103.772 76.0681 103.458 76.1481C103.162 76.2251 102.859 76.2871 102.552 76.2901C102.042 76.2981 101.531 76.3101 100.994 76.3211L100.998 76.3131Z" fill="black"/>
<path d="M201.462 58.7651C202.625 58.7421 203.669 58.9301 204.686 59.2561C204.996 59.3561 205.296 59.4941 205.58 59.6551C205.906 59.8351 206.09 60.1001 206.144 60.4761C206.24 61.1711 206.259 61.8581 206.148 62.5521C206.075 63.0131 205.795 63.1391 205.407 62.9631C205.257 62.8941 205.115 62.8171 204.969 62.7441C204.494 62.5061 203.999 62.3181 203.492 62.1571C202.679 61.8961 201.85 61.8461 201.005 61.9271C200.718 61.9541 200.445 62.0421 200.188 62.1691C199.647 62.4331 199.351 62.8791 199.29 63.4691C199.248 63.8721 199.374 64.2371 199.647 64.5441C199.866 64.7901 200.13 64.9811 200.422 65.1391C200.798 65.3421 201.193 65.5111 201.596 65.6611C202.134 65.8601 202.671 66.0521 203.2 66.2751C203.653 66.4631 204.095 66.6811 204.528 66.9041C204.893 67.0881 205.23 67.3261 205.541 67.5911C206.451 68.3741 206.969 69.3681 207.088 70.5571C207.157 71.2331 207.115 71.9081 206.95 72.5641C206.666 73.6961 206.048 74.6101 205.096 75.2961C204.597 75.6571 204.049 75.9371 203.465 76.1291C202.844 76.3361 202.207 76.4821 201.554 76.5441C201.067 76.5901 200.579 76.6431 200.084 76.6281C198.933 76.5941 197.809 76.4091 196.719 76.0181C196.374 75.8951 196.04 75.7421 195.717 75.5571C195.376 75.3581 195.18 75.0661 195.111 74.6831C194.977 73.9531 194.969 73.2201 195.103 72.4871C195.103 72.4681 195.111 72.4491 195.115 72.4261C195.207 72.0391 195.414 71.8971 195.848 72.0391C196.001 72.0881 196.14 72.1801 196.285 72.2611C196.842 72.5641 197.421 72.8181 198.016 73.0401C198.918 73.3741 199.847 73.4471 200.794 73.3621C201.186 73.3281 201.55 73.2011 201.9 73.0211C202.694 72.6141 202.913 71.7511 202.713 71.0371C202.656 70.8371 202.54 70.6691 202.402 70.5151C202.164 70.2541 201.884 70.0471 201.57 69.8971C201.201 69.7211 200.825 69.5561 200.449 69.4021C199.939 69.1911 199.417 69.0111 198.91 68.7921C198.461 68.5961 198.024 68.3741 197.59 68.1471C197.283 67.9861 196.999 67.7831 196.73 67.5601C195.79 66.7741 195.265 65.7641 195.138 64.5521C195.069 63.8761 195.092 63.2051 195.276 62.5451C195.572 61.4821 196.17 60.6301 197.072 59.9891C197.728 59.5211 198.465 59.2181 199.244 59.0221C200 58.8301 200.771 58.7381 201.462 58.7651Z" fill="black"/>
</svg>
