<svg width="469" height="77" viewBox="0 0 469 77" fill="none" xmlns="http://www.w3.org/2000/svg">
<path d="M48.1 68.4V63.5C48.1 56.8 43.4 53 32.1 53H30.4C29.9 53 29.4 52.8 29.1 52.5C28.7 52.1 28.6 51.7 28.6 51.2C28.6 50.7 28.8 50.2 29.1 49.9C29.4 49.6 29.9 49.4 30.4 49.4H32.1C43.4 49.4 48.1 45.6 48.1 38.9V8.3C48.1 2.5 42.6 0 38.3 0C34.9 0.0999987 31.6 0.9 28.5 2.2V5.7C31.9 4 35.9 3.4 35.9 8.5V29.3C32.2 26.6 27.7 25.2 23.1 25.5C10.7 25.5 0 34.7 0 51.1C0 67.7 10.7 76.9 23.1 76.9C27.6 76.9 34.6 74.9 37.4 71.5C37.8 73.4 41.4 76.9 45.7 76.9C49.1 76.8 52.4 76 55.5 74.7V71.3C52.1 73 48.1 73.6 48.1 68.4ZM35.9 64.3V64.8C33 66.3 29.9 67.1 26.7 67.2C16.7 67.2 12.1 58.7 12 51.2C12.1 43.6 16.7 35.1 26.7 35.1C29.9 35.3 33.1 36.2 35.9 37.7V38.1C35.9 44.8 35.3 46.3 31.4 46.3C27.5 46.3 25.4 48.3 25.4 51.2C25.4 54.1 27.5 56.1 31.4 56.1C35.3 56.1 35.9 57.5 35.9 64.3Z" fill="#1D1E18"/>
<path d="M65.6914 18.2C69.4914 18.2 72.5914 15.2 72.5914 11.5C72.5914 7.8 69.4914 4.8 65.6914 4.8C61.8914 4.8 58.8914 7.8 58.8914 11.5C58.8914 15.2 61.8914 18.2 65.6914 18.2ZM76.4914 46.3C72.6914 46.3 71.7914 44.8 71.7914 38.1V26.7H59.8914V38.9C59.8914 45.6 64.4914 49.4 75.7914 49.4H77.4914C77.9914 49.4 78.4914 49.6 78.7914 49.9C79.1914 50.2 79.3914 50.7 79.2914 51.2C79.3914 51.7 79.1914 52.1 78.7914 52.5C78.4914 52.8 77.9914 53 77.4914 53H75.7914C64.4914 53 59.8914 56.9 59.8914 63.6V75.8H71.7914V64.3C71.7914 57.5 72.6914 56.1 76.4914 56.1C80.3914 56.1 82.4914 54.1 82.4914 51.2C82.4914 48.3 80.3914 46.3 76.4914 46.3Z" fill="#1D1E18"/>
<path d="M140.366 25.5C134.766 25.6 129.366 27.6 125.066 31.3C121.366 26.6 115.466 25.5 108.766 25.5C104.566 25.8 100.466 27.7 97.4656 30.7L96.7656 26.7H85.9656V38.9C85.9656 45.6 90.5656 49.4 101.866 49.4H103.566C104.066 49.4 104.566 49.6 104.866 49.9C105.266 50.3 105.366 50.7 105.366 51.2C105.366 51.7 105.266 52.2 104.866 52.5C104.566 52.8 104.066 53 103.566 53H101.866C90.5656 53 85.9656 56.9 85.9656 63.6V75.8H97.8656V64.3C97.8656 57.6 98.6656 56.1 102.566 56.1C106.466 56.1 108.566 54.1 108.566 51.2C108.566 48.3 106.466 46.3 102.566 46.3C98.8656 46.3 97.8656 44.9 97.7656 38.7C100.466 36.3 103.966 34.8 107.566 34.5C107.766 34.5 107.966 34.5 108.266 34.6C108.666 34.6 109.266 34.6 109.866 34.7C119.066 36.5 114.066 49.5 133.266 49.5H134.966C135.466 49.4 135.966 49.6 136.266 50C136.666 50.3 136.766 50.8 136.766 51.2C136.766 51.7 136.666 52.2 136.266 52.5C135.966 52.9 135.466 53 134.966 53H133.266C121.966 53 117.266 56.9 117.266 63.6V75.8H129.566V64.3C129.566 57.6 130.066 56.2 133.966 56.2C137.866 56.2 139.966 54.1 139.966 51.2C139.966 48.4 137.866 46.3 133.966 46.3C130.066 46.3 129.566 42.7 129.566 39.7C131.866 36.6 135.466 34.7 139.266 34.5C146.966 34.5 148.966 39.5 148.966 49.2V75.7H161.466V48.6C161.466 28.3 151.266 25.5 140.366 25.5Z" fill="#1D1E18"/>
<path d="M215.569 51.7C215.569 35.6 206.669 25.7 191.969 25.7C179.369 25.7 167.969 34.6 167.969 50.8C167.969 68.9 178.769 76.9 192.669 76.9C199.369 76.8 206.169 75.5 212.469 73.2V64.6C206.569 66.6 200.369 67.7 194.069 67.6C186.469 67.6 180.669 63.5 180.069 55.6H215.369L215.569 51.7ZM180.069 47.3C180.469 40 185.669 35 191.969 35C198.169 35 203.269 40 203.669 47.3H180.069Z" fill="#1D1E18"/>
<path d="M245.101 25.5C240.701 25.5 236.501 27.4 233.601 30.7L232.701 26.7H222.001V38.9C222.001 45.6 226.601 49.5 237.901 49.5H239.601C240.101 49.4 240.601 49.6 240.901 49.9C241.301 50.3 241.401 50.7 241.401 51.2C241.401 51.7 241.301 52.2 240.901 52.5C240.601 52.9 240.101 53 239.601 53H237.901C226.601 53 222.001 56.9 222.001 63.6V75.8H233.901V64.3C233.901 57.6 234.701 56.1 238.601 56.1C242.501 56.1 244.601 54.1 244.601 51.2C244.601 48.4 242.501 46.3 238.601 46.3C234.901 46.3 234.001 45 233.901 39.1C236.001 37 240.501 34.3 243.901 34.3C250.101 34.3 253.701 38 253.701 47.6V75.8H266.201V48.6C266.201 28.3 255.501 25.5 245.101 25.5Z" fill="#1D1E18"/>
<path d="M292.656 45.4L288.056 43.9C286.256 43.6 285.056 41.9 285.156 40.1C285.256 37.4 286.956 34.8 294.356 34.7C299.456 34.8 304.456 36 309.056 38.3V28.8C304.556 27 299.756 25.9 294.856 25.6C279.956 25 273.456 31.3 273.156 40C273.156 40.6 272.256 49.8 284.656 53.8L287.456 54.7C294.156 56.8 299.856 58.6 299.556 62.2C299.156 66.2 295.256 67.2 289.956 67.2C284.556 67.2 277.056 64.5 273.556 63V72.5C277.156 74.1 283.456 76.9 289.656 76.9C300.956 76.9 310.356 74.7 311.256 62.6C311.756 52.2 302.856 48.8 292.656 45.4Z" fill="#1D1E18"/>
<path d="M323.602 18.2C327.402 18.2 330.502 15.2 330.502 11.5C330.502 7.8 327.402 4.8 323.602 4.8C319.802 4.8 316.802 7.8 316.802 11.5C316.802 15.2 319.802 18.2 323.602 18.2ZM334.402 46.3C330.602 46.3 329.702 44.8 329.702 38.1V26.7H317.802V38.9C317.802 45.6 322.402 49.4 333.702 49.4H335.402C335.902 49.4 336.402 49.6 336.702 49.9C337.102 50.2 337.302 50.7 337.202 51.2C337.302 51.7 337.102 52.1 336.702 52.5C336.402 52.8 335.902 53 335.402 53H333.702C322.402 53 317.802 56.9 317.802 63.6V75.8H329.702V64.3C329.702 57.5 330.602 56.1 334.402 56.1C338.302 56.1 340.402 54.1 340.402 51.2C340.402 48.3 338.302 46.3 334.402 46.3Z" fill="#1D1E18"/>
<path d="M370.148 25.5C358.248 25.2 343.748 32.7 343.748 51.5C343.748 69.9 358.248 77.2 370.148 76.9C382.248 77.2 396.748 69.9 396.748 51.5C396.748 32.7 382.248 25.2 370.148 25.5ZM370.248 67.5C361.648 67.5 355.748 61.4 355.748 51.1C355.748 41.2 361.648 34.9 370.248 34.9C378.848 34.9 384.748 41.2 384.748 51.1C384.748 61.4 378.848 67.5 370.248 67.5Z" fill="#1D1E18"/>
<path d="M426.058 25.5C421.658 25.5 417.458 27.4 414.558 30.7L413.658 26.7H402.958V38.9C402.958 45.6 407.558 49.5 418.858 49.5H420.558C421.058 49.4 421.558 49.6 421.858 49.9C422.258 50.3 422.358 50.7 422.358 51.2C422.358 51.7 422.258 52.2 421.858 52.5C421.558 52.9 421.058 53 420.558 53H418.858C407.558 53 402.958 56.9 402.958 63.6V75.8H414.858V64.3C414.858 57.6 415.658 56.1 419.558 56.1C423.458 56.1 425.558 54.1 425.558 51.2C425.558 48.4 423.458 46.3 419.558 46.3C415.858 46.3 414.958 45 414.858 39.1C416.958 37 421.458 34.3 424.858 34.3C431.058 34.3 434.658 38 434.658 47.6V75.8H447.158V48.6C447.158 28.3 436.458 25.5 426.058 25.5Z" fill="#1D1E18"/>
<path d="M461.513 63.1C455.613 63.1 454.313 66 454.313 70C454.313 73.8 455.913 76.8 461.513 76.8C467.313 76.8 468.913 73.8 468.913 70C468.913 66 467.613 63.1 461.513 63.1Z" fill="#1D1E18"/>
</svg>
