<svg width="470" height="78" viewBox="0 0 470 78" fill="none" xmlns="http://www.w3.org/2000/svg">
<path d="M48.2465 68.7V63.8C48.2465 57.1 43.5465 53.3 32.2465 53.3H30.5465C30.0465 53.3 29.5465 53.1 29.2465 52.8C28.8465 52.4 28.7465 52 28.7465 51.5C28.7465 51 28.9465 50.5 29.2465 50.2C29.5465 49.9 30.0465 49.7 30.5465 49.7H32.2465C43.5465 49.7 48.2465 45.9 48.2465 39.2V8.6C48.2465 2.8 42.7465 0.300003 38.4465 0.300003C35.0465 0.400002 31.7465 1.2 28.6465 2.5V6C32.0465 4.3 36.0465 3.7 36.0465 8.8V29.6C32.3465 26.9 27.8465 25.5 23.2465 25.8C10.8465 25.8 0.146484 35 0.146484 51.4C0.146484 68 10.8465 77.2 23.2465 77.2C27.7465 77.2 34.7465 75.2 37.5465 71.8C37.9465 73.7 41.5465 77.2 45.8465 77.2C49.2465 77.1 52.5465 76.3 55.6465 75V71.6C52.2465 73.3 48.2465 73.9 48.2465 68.7ZM36.0465 64.6V65.1C33.1465 66.6 30.0465 67.4 26.8465 67.5C16.8465 67.5 12.2465 59 12.1465 51.5C12.2465 43.9 16.8465 35.4 26.8465 35.4C30.0465 35.6 33.2465 36.5 36.0465 38V38.4C36.0465 45.1 35.4465 46.6 31.5465 46.6C27.6465 46.6 25.5465 48.6 25.5465 51.5C25.5465 54.4 27.6465 56.4 31.5465 56.4C35.4465 56.4 36.0465 57.8 36.0465 64.6Z" fill="white"/>
<path d="M65.8379 18.5C69.6379 18.5 72.7379 15.5 72.7379 11.8C72.7379 8.1 69.6379 5.1 65.8379 5.1C62.0379 5.1 59.0379 8.1 59.0379 11.8C59.0379 15.5 62.0379 18.5 65.8379 18.5ZM76.6379 46.6C72.8379 46.6 71.9379 45.1 71.9379 38.4V27H60.0379V39.2C60.0379 45.9 64.6379 49.7 75.9379 49.7H77.6379C78.1379 49.7 78.6379 49.9 78.9379 50.2C79.3379 50.5 79.5379 51 79.4379 51.5C79.5379 52 79.3379 52.4 78.9379 52.8C78.6379 53.1 78.1379 53.3 77.6379 53.3H75.9379C64.6379 53.3 60.0379 57.2 60.0379 63.9V76.1H71.9379V64.6C71.9379 57.8 72.8379 56.4 76.6379 56.4C80.5379 56.4 82.6379 54.4 82.6379 51.5C82.6379 48.6 80.5379 46.6 76.6379 46.6Z" fill="white"/>
<path d="M140.512 25.8C134.912 25.9 129.512 27.9 125.212 31.6C121.512 26.9 115.612 25.8 108.912 25.8C104.712 26.1 100.612 28 97.6121 31L96.9121 27H86.1121V39.2C86.1121 45.9 90.7121 49.7 102.012 49.7H103.712C104.212 49.7 104.712 49.9 105.012 50.2C105.412 50.6 105.512 51 105.512 51.5C105.512 52 105.412 52.5 105.012 52.8C104.712 53.1 104.212 53.3 103.712 53.3H102.012C90.7121 53.3 86.1121 57.2 86.1121 63.9V76.1H98.0121V64.6C98.0121 57.9 98.8121 56.4 102.712 56.4C106.612 56.4 108.712 54.4 108.712 51.5C108.712 48.6 106.612 46.6 102.712 46.6C99.0121 46.6 98.0121 45.2 97.9121 39C100.612 36.6 104.112 35.1 107.712 34.8C107.912 34.8 108.112 34.8 108.412 34.9C108.812 34.9 109.412 34.9 110.012 35C119.212 36.8 114.212 49.8 133.412 49.8H135.112C135.612 49.7 136.112 49.9 136.412 50.3C136.812 50.6 136.912 51.1 136.912 51.5C136.912 52 136.812 52.5 136.412 52.8C136.112 53.2 135.612 53.3 135.112 53.3H133.412C122.112 53.3 117.412 57.2 117.412 63.9V76.1H129.712V64.6C129.712 57.9 130.212 56.5 134.112 56.5C138.012 56.5 140.112 54.4 140.112 51.5C140.112 48.7 138.012 46.6 134.112 46.6C130.212 46.6 129.712 43 129.712 40C132.012 36.9 135.612 35 139.412 34.8C147.112 34.8 149.112 39.8 149.112 49.5V76H161.612V48.9C161.612 28.6 151.412 25.8 140.512 25.8Z" fill="white"/>
<path d="M215.715 52C215.715 35.9 206.815 26 192.115 26C179.515 26 168.115 34.9 168.115 51.1C168.115 69.2 178.915 77.2 192.815 77.2C199.515 77.1 206.315 75.8 212.615 73.5V64.9C206.715 66.9 200.515 68 194.215 67.9C186.615 67.9 180.815 63.8 180.215 55.9H215.515L215.715 52ZM180.215 47.6C180.615 40.3 185.815 35.3 192.115 35.3C198.315 35.3 203.415 40.3 203.815 47.6H180.215Z" fill="white"/>
<path d="M245.247 25.8C240.847 25.8 236.647 27.7 233.747 31L232.847 27H222.147V39.2C222.147 45.9 226.747 49.8 238.047 49.8H239.747C240.247 49.7 240.747 49.9 241.047 50.2C241.447 50.6 241.547 51 241.547 51.5C241.547 52 241.447 52.5 241.047 52.8C240.747 53.2 240.247 53.3 239.747 53.3H238.047C226.747 53.3 222.147 57.2 222.147 63.9V76.1H234.047V64.6C234.047 57.9 234.847 56.4 238.747 56.4C242.647 56.4 244.747 54.4 244.747 51.5C244.747 48.7 242.647 46.6 238.747 46.6C235.047 46.6 234.147 45.3 234.047 39.4C236.147 37.3 240.647 34.6 244.047 34.6C250.247 34.6 253.847 38.3 253.847 47.9V76.1H266.347V48.9C266.347 28.6 255.647 25.8 245.247 25.8Z" fill="white"/>
<path d="M292.803 45.7L288.203 44.2C286.403 43.9 285.203 42.2 285.303 40.4C285.403 37.7 287.103 35.1 294.503 35C299.603 35.1 304.603 36.3 309.203 38.6V29.1C304.703 27.3 299.903 26.2 295.003 25.9C280.103 25.3 273.603 31.6 273.303 40.3C273.303 40.9 272.403 50.1 284.803 54.1L287.603 55C294.303 57.1 300.003 58.9 299.703 62.5C299.303 66.5 295.403 67.5 290.103 67.5C284.703 67.5 277.203 64.8 273.703 63.3V72.8C277.303 74.4 283.603 77.2 289.803 77.2C301.103 77.2 310.503 75 311.403 62.9C311.903 52.5 303.003 49.1 292.803 45.7Z" fill="white"/>
<path d="M323.748 18.5C327.548 18.5 330.648 15.5 330.648 11.8C330.648 8.1 327.548 5.1 323.748 5.1C319.948 5.1 316.948 8.1 316.948 11.8C316.948 15.5 319.948 18.5 323.748 18.5ZM334.548 46.6C330.748 46.6 329.848 45.1 329.848 38.4V27H317.948V39.2C317.948 45.9 322.548 49.7 333.848 49.7H335.548C336.048 49.7 336.548 49.9 336.848 50.2C337.248 50.5 337.448 51 337.348 51.5C337.448 52 337.248 52.4 336.848 52.8C336.548 53.1 336.048 53.3 335.548 53.3H333.848C322.548 53.3 317.948 57.2 317.948 63.9V76.1H329.848V64.6C329.848 57.8 330.748 56.4 334.548 56.4C338.448 56.4 340.548 54.4 340.548 51.5C340.548 48.6 338.448 46.6 334.548 46.6Z" fill="white"/>
<path d="M370.294 25.8C358.394 25.5 343.894 33 343.894 51.8C343.894 70.2 358.394 77.5 370.294 77.2C382.394 77.5 396.894 70.2 396.894 51.8C396.894 33 382.394 25.5 370.294 25.8ZM370.394 67.8C361.794 67.8 355.894 61.7 355.894 51.4C355.894 41.5 361.794 35.2 370.394 35.2C378.994 35.2 384.894 41.5 384.894 51.4C384.894 61.7 378.994 67.8 370.394 67.8Z" fill="white"/>
<path d="M426.204 25.8C421.804 25.8 417.604 27.7 414.704 31L413.804 27H403.104V39.2C403.104 45.9 407.704 49.8 419.004 49.8H420.704C421.204 49.7 421.704 49.9 422.004 50.2C422.404 50.6 422.504 51 422.504 51.5C422.504 52 422.404 52.5 422.004 52.8C421.704 53.2 421.204 53.3 420.704 53.3H419.004C407.704 53.3 403.104 57.2 403.104 63.9V76.1H415.004V64.6C415.004 57.9 415.804 56.4 419.704 56.4C423.604 56.4 425.704 54.4 425.704 51.5C425.704 48.7 423.604 46.6 419.704 46.6C416.004 46.6 415.104 45.3 415.004 39.4C417.104 37.3 421.604 34.6 425.004 34.6C431.204 34.6 434.804 38.3 434.804 47.9V76.1H447.304V48.9C447.304 28.6 436.604 25.8 426.204 25.8Z" fill="white"/>
<path d="M461.66 63.4C455.76 63.4 454.46 66.3 454.46 70.3C454.46 74.1 456.06 77.1 461.66 77.1C467.46 77.1 469.06 74.1 469.06 70.3C469.06 66.3 467.76 63.4 461.66 63.4Z" fill="white"/>
</svg>
