<svg width="300" height="101" viewBox="0 0 300 101" fill="none" xmlns="http://www.w3.org/2000/svg">
<g clip-path="url(#clip0_9_176)">
<path d="M15.148 67.5322C16.002 66.7322 16.779 65.9942 17.361 65.4512C16.243 62.8812 14.946 60.5282 14.17 58.0202C9.806 43.8812 19.015 29.0662 33.581 26.5972C36.835 26.0462 40.057 26.1392 43.271 26.8142C44.98 27.1712 46.199 28.7712 45.935 30.3082C45.609 32.2342 44.25 33.2512 42.309 33.0962C40.251 32.9332 38.17 32.5682 36.136 32.7312C30.01 33.2282 25.281 36.2332 22.113 41.4662C15.381 52.6082 21.997 66.8872 34.831 69.0772C42.324 70.3582 49.864 66.7322 53.792 59.9532C54.468 58.7812 55.415 58.0822 56.79 58.1212C57.993 58.1602 58.94 58.7272 59.492 59.7982C60.066 60.9322 59.934 62.0502 59.29 63.1522C55.85 69.0612 50.85 73.0442 44.258 74.7762C36.571 76.7952 29.419 75.4202 22.959 70.6992C22.889 70.6452 22.804 70.6062 22.649 70.5292C21.857 71.2742 21.057 72.0192 20.211 72.8192C22.913 75.0322 25.84 76.5852 29.039 77.6492C41.711 81.8422 55.516 76.5072 62.232 64.7982C63.273 62.9822 64.717 62.0032 66.806 62.0262C70.308 62.0652 72.707 65.9942 70.983 69.0462C65.408 78.9452 57.1 85.3982 45.997 87.8132C33.799 90.4602 22.75 87.6812 13.199 79.6052C6.592 74.0302 2.461 66.8952 0.753004 58.3852C-3.293 38.2362 9.34 19.0112 28.752 14.2202C34.435 12.8152 40.158 12.7912 45.88 13.9792C48.621 14.5462 50.283 17.1552 49.693 19.8652C49.126 22.4582 46.486 24.0422 43.768 23.4602C28.48 20.1762 13.642 29.9202 10.389 44.8442C8.68 52.6942 10.132 59.9462 14.512 66.6462C14.69 66.9262 14.9 67.1902 15.148 67.5322Z" fill="black"/>
<path d="M77.956 50.395C76.271 53.439 74.664 56.358 73.017 59.34C70.145 57.841 67.334 56.366 64.515 54.899C58.374 51.692 52.24 48.47 46.082 45.302C45.368 44.929 45.282 44.642 45.578 43.904C49.297 34.851 52.969 25.774 56.658 16.705C56.727 16.534 56.813 16.379 56.945 16.115C60.089 17.326 63.211 18.529 66.418 19.764C63.63 26.667 60.881 33.468 58.125 40.301C64.748 43.679 71.301 47.018 77.948 50.403L77.956 50.395Z" fill="black"/>
<path d="M90.472 33.802V37.397H105.745V42.165H90.495V46.373H106.855V51.11H84.299V29.113H106.708C106.708 30.51 106.731 31.931 106.677 33.344C106.677 33.507 106.211 33.771 105.962 33.779C104.161 33.818 102.36 33.802 100.558 33.802H90.472Z" fill="black"/>
<path d="M164.197 29.0891H186.481V33.7791H170.354V37.3971H185.712V42.1571H170.346V46.3891H171.433C176.247 46.3891 181.061 46.4041 185.867 46.3731C186.628 46.3731 186.908 46.5751 186.869 47.3591C186.807 48.5861 186.854 49.8211 186.854 51.1021H164.197V29.0891Z" fill="black"/>
<path d="M299.975 51.117H277.342V29.105H299.61V33.795H283.468V37.382H298.811V42.141H283.491V46.389H284.578C289.33 46.389 294.082 46.42 298.826 46.365C299.812 46.35 300.053 46.66 299.991 47.577C299.913 48.718 299.975 49.867 299.975 51.117Z" fill="black"/>
<path d="M190.177 29.074C190.433 29.058 190.674 29.043 190.914 29.043C196.039 29.043 201.156 29.019 206.28 29.05C207.934 29.058 209.526 29.431 210.986 30.262C212.911 31.364 213.804 33.088 213.874 35.231C213.905 36.271 213.843 37.351 213.579 38.345C213.113 40.099 211.824 41.217 210.217 41.978C209.883 42.134 209.549 42.281 209.138 42.475C211.522 45.356 213.851 48.175 216.312 51.156C214.891 51.156 213.626 51.009 212.399 51.187C210.046 51.537 208.478 50.667 207.166 48.71C205.931 46.862 204.378 45.224 202.934 43.524C202.709 43.26 202.274 43.05 201.932 43.034C200.255 42.988 198.578 43.034 196.909 43.003C196.249 42.988 196.055 43.236 196.062 43.873C196.093 45.923 196.07 47.973 196.07 50.015V51.086H190.177V29.074ZM196.14 38.329H205.582C205.729 38.329 205.877 38.251 206.032 38.213C207.484 37.871 207.888 37.327 207.818 35.775C207.764 34.556 207.197 33.896 205.799 33.841C202.647 33.725 199.486 33.725 196.326 33.686C196.28 33.686 196.225 33.74 196.14 33.795V38.337V38.329Z" fill="black"/>
<path d="M272.225 35.0452C270.051 34.4702 267.954 33.8182 265.819 33.3912C263.311 32.8862 260.772 32.8862 258.256 33.4372C258.078 33.4762 257.86 33.4922 257.736 33.6002C257.387 33.9112 256.843 34.2452 256.82 34.6022C256.797 34.9512 257.231 35.5422 257.604 35.6812C258.87 36.1552 260.174 36.5432 261.486 36.8542C264.367 37.5372 267.31 37.9952 270.02 39.2922C271.767 40.1302 273.304 41.2102 273.894 43.1902C274.795 46.2182 273.226 49.2462 270.097 50.5502C267.83 51.4982 265.439 51.7152 263.016 51.7852C259.149 51.8862 255.36 51.4432 251.664 50.2552C250.981 50.0382 250.748 49.7202 250.771 49.0132C250.826 47.6002 250.787 46.1792 250.787 44.7742C252.48 45.3562 254.04 46.0162 255.671 46.4282C259.064 47.2892 262.511 47.4912 265.967 46.7462C266.883 46.5522 267.923 46.2332 267.947 45.1082C267.97 44.0672 266.96 43.7332 266.137 43.5242C263.746 42.9102 261.331 42.4052 258.932 41.8312C256.828 41.3262 254.778 40.6902 252.93 39.4782C249.692 37.3592 250.042 32.5522 252.837 30.5722C254.452 29.4312 256.292 28.9262 258.202 28.6782C262.62 28.1112 266.96 28.6082 271.246 29.7802C272.007 29.9902 272.279 30.3082 272.24 31.1082C272.17 32.4362 272.225 33.7712 272.225 35.0452Z" fill="black"/>
<path d="M136.858 29.0431C142.735 29.0431 148.512 28.9811 154.281 29.0891C155.562 29.1131 156.921 29.5471 158.101 30.0831C161.145 31.4811 162.015 34.6021 161.65 37.7861C161.153 42.1491 158.039 43.8571 154.677 44.0441C151.121 44.2381 147.549 44.1841 143.985 44.2301H142.805V51.0861H136.865V29.0431H136.858ZM142.79 39.4701C145.158 39.4701 147.417 39.4941 149.669 39.4631C150.904 39.4471 152.146 39.3931 153.373 39.2691C154.343 39.1751 155.143 38.7561 155.469 37.7231C156.137 35.6041 155.019 33.9271 152.705 33.8491C149.607 33.7481 146.509 33.8021 143.411 33.8181C143.201 33.8181 142.829 34.1131 142.821 34.2841C142.774 35.9761 142.797 37.6771 142.797 39.4701H142.79Z" fill="black"/>
<path d="M124.9 39.8121C128.402 43.6011 131.803 47.2891 135.375 51.1481C132.89 51.1481 130.638 51.1721 128.386 51.1171C128.091 51.1171 127.758 50.7761 127.525 50.5191C125.599 48.4541 123.689 46.3731 121.779 44.3001C121.631 44.1451 121.468 44.0131 121.228 43.8031C119.62 45.5351 117.935 47.1421 116.507 48.9591C115.163 50.6671 113.665 51.4981 111.452 51.1871C110.124 51.0011 108.742 51.1561 107.174 51.1561C110.73 47.3051 114.146 43.6011 117.64 39.8201C114.371 36.2791 111.118 32.7541 107.756 29.1201C108.098 29.0811 108.315 29.0431 108.54 29.0431C110.404 29.0431 112.267 29.0041 114.131 29.0661C114.589 29.0811 115.148 29.3221 115.466 29.6481C117.392 31.6671 119.263 33.7401 121.251 35.8911C122.322 34.7501 123.371 33.6321 124.411 32.5131C125.11 31.7601 125.879 31.0691 126.469 30.2381C127.206 29.2061 128.115 28.9491 129.326 29.0121C131.081 29.1051 132.843 29.0351 134.862 29.0351C131.453 32.7231 128.216 36.2331 124.908 39.8121H124.9Z" fill="black"/>
<path d="M224.527 33.833H215.171V29.105H239.924V33.795H230.576V51.094H224.519V33.833H224.527Z" fill="black"/>
<path d="M247.394 29.0891H241.4V51.1091H247.394V29.0891Z" fill="black"/>
<path d="M90.527 64.612C93.477 66.778 96.257 68.82 99.06 70.878C100.799 69.527 101.428 67.718 101.824 65.785H103.392C103.214 68.137 102.119 69.993 100.481 71.748C101.793 72.617 103.066 73.464 104.386 74.333C102.655 74.799 101.288 74.217 100.061 73.192C99.51 72.734 99.075 72.757 98.415 73.107C94.525 75.187 90.433 75.42 86.295 74.03C83.802 73.192 82.607 71.437 83.01 69.216C83.181 68.285 83.779 67.299 84.47 66.631C85.472 65.653 86.737 64.946 87.933 64.084C87.607 63.688 87.227 63.246 86.885 62.78C84.672 59.751 85.65 56.964 89.292 56.009C91.249 55.497 93.213 55.473 95.131 56.226C97.794 57.275 98.283 59.557 96.086 61.367C94.82 62.415 93.26 63.114 91.823 63.96C91.505 64.146 91.163 64.294 90.542 64.612H90.527ZM97.794 71.895C94.937 69.713 92.157 67.594 89.37 65.489C89.238 65.389 88.927 65.357 88.803 65.451C87.654 66.219 86.404 66.903 85.425 67.858C84.245 68.991 84.307 70.521 85.379 71.585C85.806 72.012 86.349 72.408 86.908 72.602C90.62 73.93 94.246 73.65 97.794 71.895ZM92.312 57.042C91.373 57.158 90.627 57.197 89.905 57.352C87.483 57.865 86.768 59.581 88.073 61.685C88.22 61.918 88.376 62.151 88.554 62.368C89.175 63.129 89.942 63.3 90.853 62.881C91.466 62.593 92.11 62.353 92.685 62.003C93.524 61.491 94.401 60.994 95.108 60.326C96.101 59.394 95.814 58.059 94.549 57.57C93.788 57.275 92.941 57.189 92.312 57.042Z" fill="black"/>
<path d="M299.432 59.2311C297.553 58.6101 295.759 57.8261 293.88 57.4451C290.953 56.8551 288.01 57.1041 285.223 58.2531C282.14 59.5261 280.572 62.1041 280.673 65.5361C280.766 68.7971 282.598 71.2661 285.813 72.4471C288.624 73.4711 291.52 73.4331 294.431 73.1221C295.682 72.9901 296.908 72.7111 298.151 72.4931V66.9261H290.751V65.2951H299.867V66.8411C299.867 68.7971 299.882 70.7541 299.843 72.7111C299.843 72.9981 299.618 73.4641 299.393 73.5341C294.571 75.0791 289.687 75.5211 284.827 73.7901C280.781 72.3531 278.778 69.1471 278.926 64.7831C279.058 60.7221 281.434 57.7091 285.65 56.4441C290.145 55.0931 294.579 55.4731 298.896 57.2441C299.145 57.3441 299.346 57.7561 299.409 58.0511C299.494 58.4701 299.432 58.9131 299.432 59.2231V59.2311Z" fill="black"/>
<path d="M139.412 75.0861C137.518 74.6901 135.561 74.4891 133.744 73.8671C129.621 72.4541 127.571 69.0611 127.804 64.7291C128.122 58.7811 132.37 56.5371 136.57 55.9001C139.831 55.4031 143.054 55.5661 146.128 56.9561C149.995 58.7111 151.564 62.3761 151.199 66.4061C150.787 70.9481 147.48 73.9221 142.533 74.6281C141.524 74.7761 140.499 74.8071 139.482 74.9001C139.459 74.9621 139.443 75.0321 139.42 75.0941L139.412 75.0861ZM149.483 65.2881C149.483 61.4831 147.666 58.9591 144.024 57.8261C141.555 57.0571 139.032 57.0881 136.5 57.4841C132.836 58.0591 129.877 60.2251 129.59 64.4961C129.334 68.3311 130.91 71.3911 134.738 72.6171C137.51 73.5101 140.352 73.5571 143.17 72.9361C147.324 72.0121 149.467 69.3411 149.467 65.2881H149.483Z" fill="black"/>
<path d="M256.665 56.1561C257.946 55.7991 258.769 56.2811 259.607 57.1431C264.181 61.8711 268.808 66.5451 273.421 71.2511C273.654 71.4911 273.824 71.8021 274.026 72.0741C274.119 72.0271 274.213 71.9731 274.306 71.9261V56.1331H276.092V74.3721C274.942 74.6051 274.073 74.3951 273.195 73.4871C268.56 68.6881 263.847 63.9601 259.157 59.2161C258.924 58.9751 258.676 58.7581 258.303 58.4001V74.3951H256.672V56.1641L256.665 56.1561Z" fill="black"/>
<path d="M154.149 56.1492C155.361 55.8612 156.191 56.1802 157.022 57.0492C161.634 61.8322 166.309 66.5532 170.967 71.2902C171.192 71.5232 171.449 71.7322 171.829 72.0892V56.1412H173.568V74.3802C172.481 74.5582 171.643 74.4582 170.796 73.5802C166.138 68.7582 161.401 64.0062 156.688 59.2312C156.448 58.9912 156.261 58.6962 156.044 58.4322C155.958 58.4702 155.881 58.5012 155.795 58.5402V74.4032H154.142V56.1492H154.149Z" fill="black"/>
<path d="M176.985 71.491C180.386 73.332 183.957 73.588 187.607 73.169C188.748 73.037 189.936 72.718 190.945 72.183C192.84 71.173 192.941 68.914 191.085 67.85C189.664 67.035 188.026 66.584 186.45 66.08C184.338 65.404 182.187 64.868 180.067 64.208C179.493 64.03 178.941 63.688 178.445 63.331C176.232 61.739 176.27 58.781 178.522 57.22C180.168 56.079 182.078 55.83 183.996 55.698C186.551 55.528 189.051 55.931 191.536 56.483C192.498 56.692 192.848 57.112 192.669 58.036C192.63 58.237 192.638 58.447 192.63 58.579C191.116 58.175 189.657 57.671 188.15 57.407C185.813 57.003 183.46 57.057 181.154 57.694C180.681 57.826 180.223 58.036 179.803 58.292C178.266 59.231 178.134 61.18 179.671 62.089C180.875 62.803 182.249 63.253 183.592 63.688C185.914 64.434 188.282 65.024 190.596 65.769C191.341 66.01 192.056 66.46 192.685 66.941C194.742 68.533 194.672 71.507 192.576 73.083C190.922 74.326 188.958 74.659 186.978 74.791C184.159 74.978 181.348 74.815 178.592 74.069C176.767 73.58 176.744 73.572 176.985 71.499V71.491Z" fill="black"/>
<path d="M197.126 56.0871H198.811V57.0801C198.811 60.8391 198.834 64.5971 198.803 68.3471C198.788 70.0941 199.58 71.3051 201.039 72.1201C202.911 73.1691 204.984 73.4561 207.057 73.2701C208.54 73.1381 210.046 72.7881 211.436 72.2601C213.183 71.6081 214.045 70.2491 214.006 68.2691C213.936 64.5731 213.983 60.8851 213.983 57.1891V56.1181H215.761V68.0281C215.761 71.2271 214.519 73.1071 211.459 74.0771C207.849 75.2341 204.192 75.2261 200.643 73.7981C198.306 72.8501 197.072 71.0641 197.111 68.4401C197.157 64.6821 197.126 60.9321 197.126 57.1741V56.0791V56.0871Z" fill="black"/>
<path d="M126.111 59.27C124.605 58.711 123.114 58.012 121.554 57.624C118.557 56.879 115.536 56.995 112.609 58.059C108.812 59.441 107.492 62.492 107.803 65.955C108.168 70.04 110.582 72.369 114.667 73.029C118.673 73.673 122.478 73.239 126.011 71.103C126.5 72.641 126.329 73.013 124.939 73.526C120.653 75.118 116.305 75.444 111.972 73.86C105.031 71.321 104.891 63.742 107.531 60C109.293 57.508 111.871 56.366 114.76 55.9C118.176 55.357 121.538 55.683 124.799 56.933C126.399 57.554 126.414 57.546 126.119 59.27H126.111Z" fill="black"/>
<path d="M239.132 57.5462H230.785V56.1182H249.133V57.5542H245.391C244.21 57.5542 243.03 57.6012 241.85 57.5392C241.042 57.5002 240.778 57.7402 240.786 58.5792C240.825 63.4552 240.802 68.3312 240.802 73.2072V74.3802H239.132V57.5462Z" fill="black"/>
<path d="M219.736 56.0872H221.336V72.8192H234.769V74.4032H219.736V56.0872Z" fill="black"/>
<path d="M252.425 56.1182H250.748V74.4042H252.425V56.1182Z" fill="black"/>
</g>
<defs>
<clipPath id="clip0_9_176">
<rect width="300" height="100" fill="white" transform="translate(0 0.954102)"/>
</clipPath>
</defs>
</svg>
