<svg width="24" height="24" viewBox="0 0 24 24" fill="none" xmlns="http://www.w3.org/2000/svg">
<g clip-path="url(#clip0_33_563)">
<g clip-path="url(#clip1_33_563)">
<path d="M23.998 6.093V17.9C23.984 17.976 23.971 18.052 23.955 18.128C23.8876 18.5589 23.7958 18.9856 23.68 19.406C23.2602 20.7428 22.4225 21.9097 21.29 22.7349C20.1576 23.56 18.7902 24 17.389 23.99C13.797 24.004 10.205 23.99 6.61301 23.99C5.49163 24.0072 4.3863 23.7222 3.41301 23.165C2.35954 22.5995 1.48382 21.7526 0.883487 20.7186C0.283152 19.6846 -0.0182076 18.5042 0.0130065 17.309C-0.00899354 13.764 0.00300646 10.219 0.0130065 6.673C0.00552577 6.23002 0.0454191 5.7875 0.132006 5.353C0.356161 4.11127 0.938185 2.96208 1.80656 2.04662C2.67494 1.13117 3.79183 0.489339 5.02001 0.2C5.37001 0.1 5.73801 0.064 6.09801 0H17.908C18.153 0.039 18.401 0.065 18.642 0.12C19.8855 0.346503 21.036 0.930653 21.9527 1.80094C22.8693 2.67123 23.5123 3.7899 23.803 5.02C23.903 5.37 23.936 5.737 24.003 6.096M18.582 11.996C18.5816 10.6956 18.1957 9.42446 17.4731 8.34329C16.7505 7.26212 15.7236 6.41944 14.5221 5.92174C13.3207 5.42405 11.9987 5.29368 10.7232 5.54711C9.44775 5.80055 8.27602 6.42641 7.35613 7.3456C6.43624 8.26479 5.80949 9.43604 5.55509 10.7113C5.30069 11.9866 5.43005 13.3087 5.92684 14.5105C6.42362 15.7123 7.26552 16.7399 8.34614 17.4633C9.42676 18.1868 10.6976 18.5736 11.998 18.575C13.7436 18.5747 15.4176 17.8814 16.6522 16.6474C17.8868 15.4133 18.5809 13.7396 18.582 11.994M18.976 3.03C18.5801 3.03 18.193 3.14753 17.8639 3.3677C17.5348 3.58786 17.2785 3.90075 17.1274 4.26673C16.9763 4.6327 16.9372 5.0353 17.0151 5.4235C17.093 5.81171 17.2844 6.16806 17.565 6.4474C17.8456 6.72674 18.2028 6.91651 18.5914 6.99266C18.9799 7.06881 19.3823 7.02792 19.7476 6.87516C20.1129 6.72241 20.4247 6.46466 20.6433 6.13458C20.862 5.8045 20.9778 5.41694 20.976 5.021C20.9697 4.49335 20.7567 3.98921 20.3828 3.61692C20.0088 3.24462 19.5037 3.03389 18.976 3.03Z" fill="#1D1E18"/>
<path d="M11.99 17.157C10.9692 17.1544 9.97208 16.849 9.12489 16.2795C8.2777 15.71 7.61851 14.902 7.23075 13.9577C6.84298 13.0134 6.74408 11.9753 6.94656 10.9747C7.14904 9.97419 7.6438 9.05621 8.36821 8.33698C9.09263 7.61775 10.0141 7.1296 11.0161 6.93431C12.0181 6.73902 13.0554 6.84537 13.9969 7.2399C14.9384 7.63443 15.7417 8.29941 16.3051 9.15066C16.8685 10.0019 17.1667 11.0012 17.162 12.022C17.1543 13.3879 16.6058 14.6952 15.6364 15.6576C14.6671 16.62 13.356 17.1591 11.99 17.157Z" fill="#1D1E18"/>
<path d="M18.974 4.44701C19.05 4.44688 19.1253 4.46173 19.1955 4.49072C19.2657 4.5197 19.3296 4.56226 19.3834 4.61594C19.4371 4.66963 19.4798 4.73339 19.5089 4.80358C19.538 4.87377 19.553 4.94901 19.553 5.025C19.5504 5.17835 19.488 5.32462 19.3791 5.4326C19.2701 5.54057 19.1234 5.60172 18.97 5.60301C18.8207 5.5962 18.6792 5.53388 18.5734 5.42826C18.4676 5.32264 18.4051 5.18134 18.398 5.03201C18.3988 4.87864 18.4594 4.73163 18.567 4.62234C18.6746 4.51305 18.8207 4.45014 18.974 4.44701Z" fill="#1D1E18"/>
</g>
</g>
<defs>
<clipPath id="clip0_33_563">
<rect width="24" height="24" fill="white"/>
</clipPath>
<clipPath id="clip1_33_563">
<rect width="24" height="24" fill="white"/>
</clipPath>
</defs>
</svg>
