<svg width="40" height="31" viewBox="0 0 40 31" fill="none" xmlns="http://www.w3.org/2000/svg">
<g clip-path="url(#clip0_4_716)">
<path d="M17.742 27.949C17.742 21.9717 17.742 15.9943 17.742 10.017V9.65899H23.197V12.202C23.286 12.09 23.327 12.049 23.356 12.002C23.8141 11.2479 24.4392 10.6091 25.1831 10.1347C25.9271 9.66034 26.77 9.36313 27.647 9.266C28.7635 9.10919 29.8998 9.17238 30.992 9.452C31.9391 9.66242 32.8087 10.1328 33.5031 10.8103C34.1975 11.4877 34.6892 12.3454 34.923 13.287C35.1969 14.2387 35.36 15.2189 35.409 16.208C35.419 16.357 35.443 16.508 35.46 16.653V27.953H29.792C29.792 24.769 29.792 21.585 29.78 18.4C29.7726 17.8029 29.7202 17.2072 29.623 16.618C29.5948 15.9927 29.3341 15.4006 28.892 14.9575C28.4498 14.5145 27.8582 14.2525 27.233 14.223C25.365 14.05 24.022 14.794 23.633 16.758C23.4986 17.4836 23.4316 18.2201 23.433 18.958C23.41 21.958 23.421 24.952 23.42 27.949H17.742Z" fill="white"/>
<path d="M8.479 27.949C8.486 27.825 8.5 27.701 8.5 27.577C8.5 21.733 8.5 15.889 8.5 10.045V9.66H14.19V10.017C14.19 15.8697 14.19 21.7227 14.19 27.576C14.19 27.7 14.201 27.825 14.207 27.949H8.479Z" fill="white"/>
<path d="M11.745 0.537003C11.992 0.607003 12.245 0.660003 12.486 0.749003C13.2158 1.01888 13.8263 1.53867 14.2091 2.21607C14.5919 2.89346 14.7223 3.6846 14.577 4.449C14.4326 5.19996 14.0341 5.87831 13.4484 6.37002C12.8627 6.86173 12.1256 7.1368 11.361 7.149C10.5924 7.14433 9.84892 6.87437 9.25637 6.38477C8.66382 5.89517 8.25852 5.21597 8.10899 4.462C8.09399 4.384 8.07099 4.308 8.05099 4.231V3.431C8.06799 3.372 8.09099 3.314 8.10199 3.254C8.252 2.41888 8.71792 1.67362 9.40299 1.173C9.86448 0.853146 10.3893 0.636246 10.942 0.537003L11.745 0.537003Z" fill="white"/>
</g>
<defs>
<clipPath id="clip0_4_716">
<rect width="28" height="28" fill="white" transform="translate(8)"/>
</clipPath>
</defs>
</svg>
