<svg width="16" height="26" viewBox="0 0 16 26" fill="none" xmlns="http://www.w3.org/2000/svg">
<path d="M0 3.9C0 2.86566 0.421427 1.87368 1.17157 1.14228C1.92172 0.410892 2.93913 0 4 0H12C13.0609 0 14.0783 0.410892 14.8284 1.14228C15.5786 1.87368 16 2.86566 16 3.9V22.1C16 23.1343 15.5786 24.1263 14.8284 24.8577C14.0783 25.5891 13.0609 26 12 26H4C2.93913 26 1.92172 25.5891 1.17157 24.8577C0.421427 24.1263 0 23.1343 0 22.1V3.9ZM6.66667 18.2C6.31305 18.2 5.97391 18.337 5.72386 18.5808C5.47381 18.8246 5.33333 19.1552 5.33333 19.5C5.33333 19.8448 5.47381 20.1754 5.72386 20.4192C5.97391 20.663 6.31305 20.8 6.66667 20.8H9.33333C9.68696 20.8 10.0261 20.663 10.2761 20.4192C10.5262 20.1754 10.6667 19.8448 10.6667 19.5C10.6667 19.1552 10.5262 18.8246 10.2761 18.5808C10.0261 18.337 9.68696 18.2 9.33333 18.2H6.66667Z" fill="white"/>
</svg>
