<svg width="300" height="101" viewBox="0 0 300 101" fill="none" xmlns="http://www.w3.org/2000/svg">
<g clip-path="url(#clip0_9_199)">
<path d="M150.002 8.44113C150.423 8.77213 150.916 9.04313 151.26 9.44613C154.568 13.2611 158.361 16.5601 162.208 19.8051C167.063 23.9011 171.924 27.9871 176.431 32.4721C178.486 34.5171 180.178 36.8341 180.979 39.6901C181.771 42.5181 181.445 45.2841 180.459 47.9901C180.029 49.1751 179.423 50.2931 178.97 51.4701C178.694 52.1851 178.45 52.9451 178.386 53.7011C178.146 56.7291 178.002 59.7651 177.789 62.7931C177.667 64.5441 177.495 66.2861 177.332 68.0331C177.318 68.1551 177.182 68.2691 177.105 68.3821C177.051 68.2461 176.956 68.1101 176.947 67.9701C176.748 64.4851 176.558 61.0011 176.368 57.5161C176.323 56.6341 176.304 55.7471 176.255 54.8601C176.146 52.9901 176.703 51.2621 177.3 49.5241C177.771 48.1441 178.291 46.7541 178.545 45.3291C179.133 42.0481 178.092 39.1971 175.929 36.7171C173.874 34.3591 171.494 32.3591 169.104 30.3581C164.294 26.3261 159.442 22.3391 154.659 18.2751C152.994 16.8591 151.487 15.2611 149.907 13.7501C149.857 13.7001 149.799 13.6551 149.713 13.5821C148.957 14.3161 148.246 15.0891 147.459 15.7681C143.431 19.2391 139.376 22.6791 135.34 26.1411C131.95 29.0511 128.565 31.9651 125.193 34.8931C124.596 35.4131 124.067 36.0151 123.537 36.6131C120.627 39.8851 119.962 43.5911 121.392 47.7181C121.967 49.3881 122.587 51.0631 122.926 52.7871C123.18 54.0771 123.062 55.4481 123.021 56.7781C122.944 59.2181 122.818 61.6571 122.691 64.0921C122.618 65.4271 122.501 66.7621 122.401 68.0921C122.392 68.1921 122.356 68.2871 122.198 68.4131C122.143 68.2371 122.057 68.0601 122.039 67.8791C121.872 65.9881 121.695 64.0961 121.559 62.2041C121.351 59.2491 121.206 56.2851 120.962 53.3301C120.908 52.6511 120.663 51.9451 120.342 51.3341C119.107 48.9851 118.274 46.5191 118.002 43.8811C117.726 41.2291 118.414 38.7941 119.772 36.5271C121.093 34.3141 122.79 32.4081 124.714 30.7201C130.235 25.8741 135.788 21.0721 141.322 16.2391C143.685 14.1801 145.893 11.9671 147.961 9.61413C148.355 9.16113 148.88 8.82613 149.346 8.43213H149.998L150.002 8.44113Z" fill="black"/>
<path d="M0.009 83.9272C0.299 83.9272 0.584 83.9312 0.873 83.9272C1.806 83.9182 1.869 83.9862 2.272 84.8142C2.747 85.7872 3.195 86.7872 3.792 87.6782C6.245 91.3262 10.857 92.7792 15.237 91.2762C17.989 90.3352 18.912 87.0002 17.147 84.6062C16.287 83.4382 15.115 82.7232 13.758 82.2892C11.558 81.5872 9.341 80.9262 7.15 80.1932C5.476 79.6372 3.901 78.8762 2.634 77.5912C0.457 75.3872 0.367 71.7222 2.435 69.4042C4.091 67.5492 6.227 66.6352 8.626 66.2232C11.689 65.6942 14.599 66.2232 17.396 67.4902C17.962 67.7482 18.342 67.7392 18.74 67.2102C18.939 66.9472 19.315 66.7482 19.645 66.6712C20.736 66.4182 21.075 66.4762 21.08 67.7072C21.084 70.0022 21.166 72.3012 21.211 74.5952C21.225 75.2292 21.134 75.3282 20.519 75.3332C20.338 75.3332 20.157 75.3152 19.976 75.3332C19.469 75.3962 19.22 75.1292 19.052 74.6902C18.776 73.9662 18.491 73.2422 18.165 72.5362C16.785 69.5272 14.477 67.8112 11.133 67.6622C9.843 67.6032 8.576 67.7842 7.408 68.4362C4.883 69.8482 4.557 72.8572 6.729 74.7812C7.816 75.7452 9.151 76.2062 10.481 76.6632C12.821 77.4642 15.183 78.2072 17.505 79.0572C18.794 79.5332 20.021 80.1892 20.976 81.2212C23.139 83.5512 23.162 87.3352 21.012 89.7422C19.333 91.6252 17.174 92.6522 14.731 93.1322C14.061 93.2632 13.382 93.3622 12.708 93.4762H10.101C9.983 93.4442 9.861 93.3852 9.739 93.3762C7.707 93.2042 5.761 92.6662 3.887 91.8872C3.371 91.6702 3.037 91.7242 2.752 92.1902C2.376 92.7972 1.76 92.9462 1.118 92.9912C0.529 93.0322 0.348 92.8422 0.326 92.2402C0.24 90.0772 0.167 87.9092 0.086 85.7462C0.077 85.5702 0.032 85.3932 0 85.2212V83.9182L0.009 83.9272Z" fill="black"/>
<path d="M299.995 73.9341C299.769 73.9711 299.538 74.0021 299.312 74.0431C298.851 74.1201 298.674 73.8671 298.475 73.4771C297.859 72.2781 297.239 71.0701 296.493 69.9481C295.787 68.8891 294.714 68.4091 293.406 68.4811C292.705 68.5171 291.994 68.4811 291.293 68.4631C290.84 68.4501 290.637 68.6221 290.637 69.0971C290.646 75.7581 290.637 82.4151 290.646 89.0771C290.646 90.2851 291.076 90.8331 292.234 91.1401C292.877 91.3121 293.538 91.4531 294.198 91.5301C294.809 91.6021 294.773 91.9911 294.787 92.4261C294.8 92.9191 294.492 92.9281 294.144 92.9281H283.233C282.835 92.9281 282.513 92.8741 282.518 92.3491C282.527 91.7381 282.645 91.5981 283.206 91.5431C283.835 91.4841 284.464 91.4211 285.088 91.3081C286.057 91.1361 286.523 90.6381 286.686 89.6521C286.731 89.3851 286.749 89.1131 286.749 88.8411V69.6221C286.749 69.4591 286.736 69.2961 286.736 69.1331C286.74 68.6261 286.496 68.4311 285.989 68.4541C285.048 68.4951 284.106 68.4901 283.17 68.5271C282.364 68.5581 281.731 68.9561 281.201 69.5451C280.165 70.7081 279.382 72.0201 278.884 73.4911C278.717 73.9891 278.395 74.1471 277.943 74.0841C277.486 74.0251 277.409 73.6631 277.409 73.2691C277.409 71.4051 277.395 69.5401 277.4 67.6761C277.4 67.1101 277.554 66.9881 278.241 66.9881H291.65C293.986 66.9881 296.321 66.9831 298.656 66.9881C299.104 66.9881 299.552 67.0471 300 67.0741V73.9161L299.995 73.9341Z" fill="black"/>
<path d="M166.747 63.386C166.48 63.558 166.29 63.634 166.154 63.77C161.746 68.169 157.347 72.572 152.944 76.98C152.27 77.654 152.27 77.704 152.926 78.36C153.437 78.872 153.962 79.37 154.455 79.899C154.777 80.248 155.003 80.234 155.338 79.89C157.745 77.46 160.167 75.043 162.588 72.627C162.773 72.441 162.986 72.274 163.262 72.034C163.33 72.292 163.411 72.455 163.411 72.618C163.407 79.062 163.393 85.506 163.38 91.946C163.38 92.604 163.046 92.933 162.38 92.933C161.728 92.933 161.076 92.919 160.424 92.933C159.967 92.946 159.818 92.697 159.818 92.294C159.832 88.982 159.85 85.674 159.854 82.361C159.854 81.845 159.804 81.325 159.768 80.664C159.465 80.926 159.243 81.098 159.049 81.293C156.13 84.207 153.211 87.126 150.292 90.045C149.744 90.593 149.654 90.593 149.111 90.05C146.296 87.23 143.486 84.411 140.68 81.587C140.413 81.32 140.2 81.003 139.843 80.569C139.72 80.913 139.553 81.166 139.553 81.424C139.539 84.918 139.548 88.412 139.553 91.905V92.068C139.53 92.865 139.467 92.933 138.675 92.933H136.937C136.307 92.933 135.99 92.625 135.987 92.009V72.731C135.987 72.527 136.037 72.323 136.073 72.061C138.865 74.862 141.589 77.596 144.391 80.406C145.282 79.514 146.079 78.732 146.843 77.921C146.929 77.831 146.88 77.564 146.83 77.401C146.789 77.279 146.64 77.188 146.54 77.084C142.151 72.695 137.761 68.305 133.371 63.915C133.208 63.752 133.032 63.598 132.747 63.336C132.688 63.68 132.611 63.906 132.611 64.137V91.996C132.611 92.715 132.593 92.724 131.891 92.742C131.276 92.756 130.665 92.81 130.049 92.819C129.348 92.828 129.063 92.534 129.072 91.828C129.081 91.285 129.149 90.747 129.149 90.204C129.153 78.673 129.149 67.142 129.149 55.611C129.149 55.448 129.108 55.267 129.167 55.127C129.203 55.036 129.416 54.936 129.493 54.968C129.633 55.022 129.733 55.181 129.846 55.294C136.272 61.72 142.698 68.146 149.12 74.573C149.283 74.736 149.409 74.944 149.572 75.156C156.401 68.323 163.14 61.589 169.996 54.728C170.095 55.081 170.195 55.267 170.195 55.457C170.195 67.64 170.191 79.822 170.181 92.005C170.181 92.095 170.218 92.213 170.172 92.272C170.05 92.435 169.896 92.693 169.747 92.702C168.901 92.747 168.045 92.729 167.195 92.724C166.846 92.724 166.729 92.498 166.729 92.186V63.372L166.747 63.386ZM149.83 80.193C149.731 80.234 149.695 80.243 149.667 80.266C149.075 80.849 148.486 81.438 147.898 82.022C147.325 82.592 147.322 83.16 147.889 83.728C148.482 84.321 149.079 84.918 149.731 85.57C150.518 84.755 151.247 84.004 151.975 83.253C152.202 83.022 152.247 82.8 152.007 82.547C151.283 81.768 150.559 80.985 149.826 80.193H149.83Z" fill="black"/>
<path d="M216.274 80.1752C216.455 80.4742 216.581 80.7092 216.74 80.9262C218.717 83.6012 220.691 86.2852 222.695 88.9412C223.655 90.2082 224.822 91.2082 226.47 91.4842C226.596 91.5072 226.719 91.5252 226.845 91.5392C227.465 91.5982 227.778 92.1132 227.506 92.6792C227.447 92.8012 227.221 92.9102 227.072 92.9102C225.098 92.9232 223.13 92.9282 221.157 92.9192C220.573 92.9192 220.279 92.4942 219.989 92.0642C218.333 89.6242 216.681 87.1852 215.007 84.7592C214.391 83.8682 213.73 83.0042 213.074 82.1392C212.382 81.2252 211.241 80.8722 210.169 81.2702C209.974 81.3432 209.748 81.6552 209.748 81.8632C209.721 84.5242 209.721 87.1812 209.748 89.8422C209.757 90.5662 210.146 91.0772 210.884 91.2402C211.427 91.3622 211.979 91.4842 212.531 91.5392C213.142 91.6022 213.287 91.7022 213.287 92.2722C213.287 92.7922 213.147 92.9232 212.536 92.9232H202.928C202.652 92.9232 202.349 92.9642 202.367 92.5432C202.385 92.1722 202.199 91.7022 202.801 91.5982C203.299 91.5122 203.801 91.4532 204.295 91.3352C205.322 91.0912 205.684 90.6522 205.743 89.5972C205.779 88.9862 205.806 88.3712 205.806 87.7552C205.811 82.3432 205.811 76.9352 205.806 71.5222C205.806 71.0702 205.77 70.6172 205.734 70.1692C205.68 69.4902 205.349 68.9972 204.688 68.7982C204.1 68.6222 203.503 68.4812 202.896 68.3822C202.317 68.2822 202.303 67.9072 202.34 67.4592C202.38 66.9832 202.711 67.0202 203.05 67.0202C206.978 67.0242 210.906 67.0202 214.83 67.0292C216.12 67.0292 217.387 67.2412 218.591 67.7302C220.763 68.6172 222.089 70.2102 222.424 72.5272C222.786 75.0302 221.881 77.0622 219.813 78.4922C218.962 79.0802 217.953 79.4382 217.016 79.8952C216.808 79.9942 216.581 80.0622 216.278 80.1752H216.274ZM211.866 68.4722V68.5222H210.563C209.798 68.5272 209.712 68.5942 209.703 69.3502C209.666 72.4592 209.639 75.5682 209.617 78.6772C209.612 79.3422 209.952 79.7182 210.612 79.6912C211.585 79.6502 212.576 79.6322 213.518 79.4102C214.287 79.2292 215.083 78.8942 215.708 78.4152C217.713 76.8812 218.206 74.7222 217.808 72.3462C217.464 70.2912 216.17 69.0472 214.133 68.6442C213.395 68.4992 212.626 68.5222 211.866 68.4722Z" fill="black"/>
<path d="M228.696 92.923C228.674 92.761 228.651 92.656 228.642 92.552C228.583 91.638 228.606 91.611 229.511 91.53C231.565 91.344 232.018 90.86 232.018 88.805V71.269C232.018 70.943 231.973 70.622 231.941 70.301C231.873 69.64 231.497 69.196 230.905 68.956C230.389 68.748 229.823 68.644 229.325 68.404C229.036 68.264 228.732 67.983 228.615 67.694C228.474 67.35 228.637 67.024 229.126 67.024H238.842C239.168 67.024 239.413 67.124 239.408 67.513C239.404 67.897 239.444 68.287 238.906 68.373C238.317 68.468 237.729 68.572 237.154 68.717C236.457 68.898 236.023 69.341 235.978 70.092C235.951 70.509 235.919 70.921 235.919 71.337C235.914 73.835 235.914 76.333 235.919 78.831C235.919 79.012 236.009 79.189 236.055 79.37C236.249 79.306 236.485 79.293 236.629 79.17C239.385 76.84 241.979 74.346 244.124 71.432C244.513 70.902 244.789 70.282 245.056 69.676C245.26 69.21 245.042 68.852 244.567 68.708C244.069 68.554 243.558 68.418 243.047 68.336C242.431 68.237 242.513 67.811 242.535 67.395C242.558 66.902 242.92 67.015 243.209 67.02C245.943 67.02 248.672 67.024 251.405 67.033C252.125 67.033 252.27 67.205 252.224 67.839C252.193 68.282 251.917 68.355 251.564 68.382C249.844 68.527 248.427 69.264 247.264 70.54C244.988 73.043 242.694 75.527 240.404 78.012C240.164 78.27 240.051 78.483 240.318 78.799C243.25 82.334 246.156 85.895 249.115 89.412C250.156 90.647 251.509 91.444 253.179 91.561C253.786 91.602 253.686 92.068 253.704 92.448C253.722 92.842 253.442 92.928 253.125 92.928H246.938C246.427 92.928 246.187 92.575 245.925 92.222C244.201 89.896 242.522 87.543 240.73 85.271C239.453 83.655 238.032 82.153 236.661 80.614C236.539 80.474 236.308 80.429 236.127 80.343C236.059 80.533 235.928 80.723 235.928 80.913C235.923 83.737 235.928 86.561 235.946 89.38C235.951 90.385 236.412 90.964 237.385 91.213C237.91 91.349 238.44 91.453 238.974 91.561C239.539 91.674 239.372 92.113 239.39 92.471C239.413 92.847 239.159 92.928 238.86 92.928H228.705L228.696 92.923Z" fill="black"/>
<path d="M117.794 92.9012C115.749 92.9012 113.703 92.8962 111.658 92.9052C111.232 92.9052 110.961 92.8332 110.983 92.3172C111.006 91.6932 111.087 91.6112 111.685 91.5392C112.563 91.4262 113.441 91.3172 114.296 91.1042C115.215 90.8822 115.351 90.5342 114.966 89.6832C114.169 87.9232 113.35 86.1712 112.549 84.4112C112.364 84.0042 112.07 83.8092 111.617 83.8092C108.232 83.8142 104.847 83.8142 101.462 83.8092C101.041 83.8092 100.701 83.9452 100.539 84.3392C99.887 85.9232 99.204 87.4972 98.62 89.1092C98.24 90.1582 98.538 90.6882 99.62 90.9822C100.593 91.2452 101.593 91.4122 102.593 91.5342C103.123 91.5982 103.181 91.8512 103.195 92.2812C103.213 92.7332 103.028 92.9102 102.602 92.9102C101.462 92.9102 100.321 92.9232 99.181 92.9232H92.067C91.868 92.9232 91.669 92.9142 91.469 92.9052C91.103 92.8872 90.777 92.8382 90.791 92.3442C90.804 91.9142 90.854 91.5932 91.411 91.5252C92.832 91.3532 94.207 90.9912 95.18 89.8372C95.665 89.2622 96.094 88.6202 96.425 87.9452C99.615 81.4602 102.779 74.9572 105.947 68.4632C106.209 67.9292 106.462 67.3912 106.693 66.8392C106.834 66.5042 107.046 66.3002 107.413 66.2822C107.648 66.2682 107.883 66.2682 108.114 66.2552C108.712 66.2192 109.015 66.4862 109.282 67.0512C111.332 71.3592 113.436 75.6412 115.509 79.9352C116.772 82.5562 118.043 85.1712 119.247 87.8192C120.22 89.9592 121.695 91.3672 124.134 91.5522C124.583 91.5842 124.673 91.8922 124.669 92.2812C124.669 92.6882 124.551 92.9282 124.08 92.9232C121.98 92.9102 119.881 92.9192 117.781 92.9192V92.9102L117.794 92.9012ZM101.643 82.0762H111.382C109.743 78.7132 108.141 75.4192 106.481 72.0112C104.842 75.4232 103.258 78.7222 101.643 82.0762Z" fill="black"/>
<path d="M52.921 92.9229H46.948C46.237 92.9229 45.97 92.7419 45.943 92.2809C45.916 91.8329 46.065 91.5929 46.572 91.5339C47.504 91.4299 48.436 91.2989 49.351 91.0859C50.188 90.8919 50.328 90.5609 49.984 89.7869C49.174 87.9729 48.337 86.1709 47.513 84.3609C47.332 83.9679 47.029 83.8089 46.604 83.8089C43.2 83.8089 39.797 83.7999 36.399 83.8319C36.113 83.8319 35.67 84.0579 35.57 84.2889C34.851 85.9809 34.168 87.6869 33.548 89.4209C33.281 90.1579 33.525 90.6249 34.294 90.8459C35.326 91.1449 36.394 91.3399 37.458 91.5209C37.865 91.5879 38.145 91.6789 38.2 92.1319C38.268 92.6879 38.096 92.8959 37.53 92.9189H26.565C26.23 92.9189 25.854 92.9959 25.841 92.4479C25.818 91.6929 25.841 91.5979 26.47 91.5299C28.904 91.2629 30.484 89.9639 31.543 87.7509C34.729 81.0849 38.005 74.4589 41.25 67.8159C41.377 67.5579 41.544 67.3049 41.612 67.0289C41.761 66.4179 42.169 66.2279 42.734 66.2549C43.024 66.2679 43.323 66.2369 43.594 66.3139C43.789 66.3679 44.02 66.5309 44.106 66.7069C46.558 71.7439 49.002 76.7809 51.432 81.8269C52.414 83.8629 53.378 85.9039 54.32 87.9539C55.265 90.0229 56.745 91.3439 59.085 91.5249C59.601 91.5659 59.673 91.8959 59.669 92.3219C59.664 92.7789 59.415 92.9139 59.008 92.9139H52.93L52.921 92.9229ZM46.328 81.9899C44.694 78.6499 43.105 75.4049 41.449 72.0199C39.797 75.4599 38.222 78.7409 36.584 82.1479C39.87 82.2249 43.051 82.3469 46.328 81.9899Z" fill="black"/>
<path d="M276.232 85.3979C276.178 86.4659 276.133 87.5059 276.065 88.5519C275.983 89.8329 275.875 91.1129 275.802 92.3939C275.78 92.8009 275.585 92.9329 275.223 92.9279H255.84C255.532 92.9279 255.225 92.9189 254.917 92.9279C254.591 92.9369 254.297 92.9419 254.252 92.4979C254.188 91.8919 254.301 91.6609 254.795 91.5789C255.329 91.4889 255.872 91.4389 256.401 91.3349C257.343 91.1499 257.768 90.6879 257.904 89.7379C257.945 89.4519 257.958 89.1629 257.958 88.8729V71.7169C257.958 71.3369 257.908 70.9609 257.899 70.5809C257.868 69.5579 257.288 68.9969 256.352 68.7479C255.845 68.6129 255.333 68.5079 254.822 68.3859C254.36 68.2779 254.175 68.0019 254.234 67.5129C254.292 67.0099 254.614 67.0289 254.971 67.0289C260.927 67.0239 266.878 67.0149 272.833 67.0059C273.014 67.0059 273.195 67.0199 273.376 67.0239C274.007 67.0389 274.322 67.3679 274.322 68.0109C274.322 69.5129 274.327 71.0159 274.318 72.5179C274.318 72.8169 274.444 73.1969 273.942 73.2739C273.186 73.3909 273.028 73.2779 272.743 72.7669C272.195 71.7979 271.63 70.8299 270.978 69.9289C270.24 68.9019 269.177 68.4989 267.905 68.5169C266.131 68.5449 264.357 68.4989 262.588 68.4899C261.977 68.4899 261.836 68.6129 261.836 69.2139C261.832 72.1649 261.836 75.1109 261.841 78.0619C261.841 78.4239 261.936 78.7409 262.37 78.7319C263.633 78.7089 264.9 78.7179 266.158 78.6139C267.131 78.5369 267.842 77.9489 268.231 77.0619C268.521 76.4049 268.747 75.7129 268.914 75.0119C269.064 74.3829 269.498 74.4729 269.924 74.4819C270.39 74.4909 270.34 74.8439 270.34 75.1519V83.8909C270.34 84.2159 270.489 84.6059 269.942 84.6689C269.304 84.7409 269.091 84.6189 268.928 84.0669C268.729 83.3929 268.557 82.7049 268.29 82.0579C267.833 80.9539 266.968 80.3649 265.765 80.3249C264.697 80.2879 263.633 80.2839 262.565 80.2479C262.072 80.2289 261.841 80.4009 261.845 80.9349C261.864 83.5599 261.845 86.1849 261.868 88.8049C261.882 90.5199 262.651 91.3029 264.375 91.3079C266.308 91.3119 268.236 91.2759 270.168 91.2039C271.268 91.1589 272.141 90.6019 272.693 89.6469C273.345 88.5249 273.956 87.3749 274.549 86.2169C275.051 85.2299 275.024 85.2169 276.228 85.3889L276.232 85.3979Z" fill="black"/>
<path d="M75.97 92.923H64.407C64.19 92.923 63.972 92.91 63.755 92.91C63.325 92.91 63.085 92.765 63.108 92.267C63.131 91.792 63.267 91.552 63.801 91.521C64.574 91.475 65.353 91.376 66.104 91.208C66.982 91.009 67.403 90.448 67.48 89.547C67.516 89.099 67.539 88.647 67.539 88.194V71.798C67.539 71.346 67.498 70.898 67.493 70.445C67.489 69.531 67.036 68.929 66.181 68.667C65.389 68.427 64.579 68.232 63.769 68.056C63.181 67.925 62.859 67.345 63.194 66.852C63.294 66.707 63.592 66.639 63.805 66.639C66.231 66.626 68.656 66.63 71.078 66.63H76.237C76.612 66.63 77.024 66.572 77.033 67.164C77.047 67.807 76.952 67.938 76.286 68.038C75.553 68.146 74.816 68.237 74.092 68.386C73.028 68.608 72.634 69.07 72.512 70.151C72.485 70.4 72.471 70.654 72.471 70.907C72.471 76.681 72.467 82.451 72.471 88.226C72.471 88.728 72.503 89.244 72.603 89.733C72.802 90.701 73.295 91.168 74.372 91.272C76.97 91.525 79.572 91.566 82.156 91.122C83.197 90.941 84.075 90.444 84.708 89.606C85.645 88.366 86.546 87.099 87.424 85.818C87.799 85.271 88.265 84.995 88.917 85.026C89.279 85.045 89.478 85.203 89.437 85.615C89.229 87.846 89.026 90.077 88.836 92.313C88.804 92.706 88.636 92.91 88.229 92.91C87.704 92.91 87.179 92.923 86.654 92.923H75.961H75.97Z" fill="black"/>
<path d="M195.968 92.9229C194.393 92.9229 192.818 92.9099 191.248 92.9329C190.813 92.9369 190.623 92.8189 190.619 92.3619C190.619 91.9099 190.687 91.6069 191.225 91.5339C191.899 91.4439 192.583 91.3209 193.23 91.1179C193.931 90.8959 194.044 90.6059 193.796 89.9189C193.148 88.1169 192.479 86.3249 191.836 84.5199C191.691 84.1119 191.433 83.9449 191.026 83.9449C188.419 83.9449 185.813 83.9309 183.21 83.9679C182.93 83.9679 182.482 84.2069 182.4 84.4379C181.821 86.1079 181.283 87.7919 180.798 89.4929C180.586 90.2439 180.857 90.7199 181.608 90.9779C182.337 91.2259 183.097 91.3939 183.858 91.5299C184.382 91.6249 184.523 91.7509 184.518 92.3669C184.518 92.8469 184.22 92.9189 183.83 92.9189H175.363C175.042 92.9189 174.711 92.9139 174.748 92.4529C174.775 92.0769 174.567 91.6109 175.246 91.5209C177.092 91.2809 178.269 90.1949 178.934 88.4889C181.667 81.4739 184.414 74.4589 187.152 67.4449C187.32 67.0149 187.46 66.6259 188.057 66.6079C188.79 66.5849 188.971 66.6439 189.238 67.3449C192.008 74.5229 194.778 81.6999 197.543 88.8779C198.104 90.3349 199.149 91.1859 200.656 91.5389C200.91 91.5979 201.199 91.7739 201.34 91.9819C201.656 92.4709 201.38 92.9189 200.806 92.9189C199.194 92.9229 197.583 92.9189 195.977 92.9189L195.968 92.9229ZM183.251 82.2209C185.844 82.3469 188.32 82.4019 190.872 82.1119C189.596 78.8449 188.356 75.6679 187.111 72.4909C187.071 72.4909 187.025 72.4909 186.985 72.4859C185.754 75.6899 184.527 78.8939 183.247 82.2209H183.251Z" fill="black"/>
</g>
<defs>
<clipPath id="clip0_9_199">
<rect width="300" height="100" fill="white" transform="translate(0 0.954102)"/>
</clipPath>
</defs>
</svg>
